<?xml version="1.0" standalone="no"?>
<!DOCTYPE svg PUBLIC "-//W3C//DTD SVG 1.1//EN" "http://www.w3.org/Graphics/SVG/1.1/DTD/svg11.dtd" >
<svg xmlns="http://www.w3.org/2000/svg" xmlns:xlink="http://www.w3.org/1999/xlink" version="1.1">
<metadata>
Created by FontForge 20141024 at Tue Jan 13 10:54:31 2015
 By System Administrator
Digitized data copyright (c) 2010-2011, Google Corporation.
</metadata>
<defs>
<font id="OpenSans-CondensedLightItalic" horiz-adv-x="737" >
  <font-face 
    font-family="Open Sans Condensed Light"
    font-weight="300"
    font-style="italic"
    font-stretch="condensed"
    units-per-em="2048"
    panose-1="2 11 3 6 3 5 4 2 2 4"
    ascent="1638"
    descent="-410"
    x-height="1085"
    cap-height="1462"
    bbox="-750 -508 2042 2132"
    underline-thickness="102"
    underline-position="-103"
    slope="-12"
    unicode-range="U+0020-FFFD"
  />
<missing-glyph horiz-adv-x="1106" 
d="M406 1462h755l-309 -1462h-756zM205 90h577l273 1282h-578z" />
    <glyph glyph-name="uniFB01" unicode="fi" horiz-adv-x="754" 
d="M-113 -492q-51 0 -88 11v92q37 -12 84 -12t73 26.5t47.5 88.5t47.5 186l236 1101h-121l10 54l131 41l21 98q29 143 63.5 223t80.5 115t126 35q66 0 111 -25l-41 -88q-42 21 -82 21q-47 0 -72.5 -26.5t-47 -89.5t-65.5 -274h144l-19 -84h-143l-240 -1107
q-34 -160 -65 -239t-73 -113t-118 -34zM570 0h-94l231 1085h94zM754 1356q0 51 23 88t59 37q47 0 47 -58q0 -57 -22 -94t-58 -37q-49 0 -49 64z" />
    <glyph glyph-name="uniFB02" unicode="fl" horiz-adv-x="754" 
d="M-113 -492q-51 0 -88 11v92q37 -12 84 -12t73 26.5t47.5 88.5t47.5 186l236 1101h-121l10 54l131 41l21 98q29 143 63.5 223t80.5 115t126 35q66 0 111 -25l-41 -88q-42 21 -82 21q-47 0 -72.5 -26.5t-47 -89.5t-65.5 -274h144l-19 -84h-143l-240 -1107
q-34 -160 -65 -239t-73 -113t-118 -34zM574 0h-94l331 1556h95z" />
    <glyph glyph-name="uniFB03" unicode="ffi" horiz-adv-x="1167" 
d="M981 0h-94l231 1085h94zM1165 1356q0 51 23 88t59 37q47 0 47 -58q0 -57 -22 -94t-58 -37q-49 0 -49 64zM-113 -492q-51 0 -88 11v92q37 -12 84 -12t73 26.5t47.5 88.5t47.5 186l236 1101h-121l10 54l131 41l21 98q29 143 63.5 223t80.5 115t126 35q66 0 111 -25l-41 -88
q-42 21 -82 21q-47 0 -72.5 -26.5t-47 -89.5t-65.5 -274h320q41 203 67.5 281.5t58 122.5t72 61t95.5 17q65 0 110 -25l-41 -88q-39 21 -82 21q-45 0 -70 -24t-46.5 -86t-67.5 -280h144l-19 -84h-143l-240 -1107q-34 -160 -65 -238t-73.5 -113t-117.5 -35q-51 0 -88 11v92
q37 -12 84 -12t73 26.5t47.5 88.5t47.5 186l235 1101h-319l-240 -1107q-34 -160 -65 -239t-73 -113t-118 -34z" />
    <glyph glyph-name="uniFB04" unicode="ffl" horiz-adv-x="1171" 
d="M991 0h-94l331 1556h95zM-113 -492q-51 0 -88 11v92q37 -12 84 -12t73 26.5t47.5 88.5t47.5 186l236 1101h-121l10 54l131 41l21 98q29 143 63.5 223t80.5 115t126 35q66 0 111 -25l-41 -88q-42 21 -82 21q-47 0 -72.5 -26.5t-47 -89.5t-65.5 -274h320q41 203 67.5 281.5
t58 122.5t72 61t95.5 17q65 0 110 -25l-41 -88q-39 21 -82 21q-45 0 -70 -24t-46.5 -86t-67.5 -280h144l-19 -84h-143l-240 -1107q-34 -160 -65 -238t-73.5 -113t-117.5 -35q-51 0 -88 11v92q37 -12 84 -12t73 26.5t47.5 88.5t47.5 186l235 1101h-319l-240 -1107
q-34 -160 -65 -239t-73 -113t-118 -34z" />
    <glyph glyph-name="ff" unicode="ff" horiz-adv-x="823" 
d="M-113 -492q-51 0 -88 11v92q37 -12 84 -12t73 26.5t47.5 88.5t47.5 186l236 1101h-121l10 54l131 41l21 98q29 143 63.5 223t80.5 115t126 35q66 0 111 -25l-41 -88q-42 21 -82 21q-47 0 -72.5 -26.5t-47 -89.5t-65.5 -274h320q41 203 67.5 281.5t58 122.5t72 61t95.5 17
q65 0 110 -25l-41 -88q-39 21 -82 21q-45 0 -70 -24t-46.5 -86t-67.5 -280h144l-19 -84h-143l-240 -1107q-34 -160 -65 -238t-73.5 -113t-117.5 -35q-51 0 -88 11v92q37 -12 84 -12t73 26.5t47.5 88.5t47.5 186l235 1101h-319l-240 -1107q-34 -160 -65 -239t-73 -113
t-118 -34z" />
    <glyph glyph-name=".notdef" horiz-adv-x="1106" 
d="M406 1462h755l-309 -1462h-756zM205 90h577l273 1282h-578z" />
    <glyph glyph-name="null" horiz-adv-x="0" 
 />
    <glyph glyph-name="nonmarkingreturn" horiz-adv-x="940" 
 />
    <glyph glyph-name="space" unicode=" " horiz-adv-x="346" 
 />
    <glyph glyph-name="exclam" unicode="!" horiz-adv-x="477" 
d="M266 367h-61l203 1095h122zM96 53q0 61 28 102.5t75 41.5q27 0 42 -21t15 -55q0 -61 -27.5 -99t-70.5 -38q-25 0 -43.5 17.5t-18.5 51.5z" />
    <glyph glyph-name="quotedbl" unicode="&#x22;" horiz-adv-x="616" 
d="M412 1462l-138 -528h-61l82 528h117zM680 1462l-139 -528h-62l84 528h117z" />
    <glyph glyph-name="numbersign" unicode="#" horiz-adv-x="782" 
d="M53 467l19 90h151l127 399h-151l18 86h162l129 420h82l-131 -420h203l133 420h75l-129 -420h148l-19 -86h-157l-127 -399h157l-18 -90h-166l-147 -467h-82l149 467h-203l-145 -467h-80l146 467h-144zM305 557h201l129 399h-205z" />
    <glyph glyph-name="dollar" unicode="$" 
d="M223 -119l51 242q-152 5 -221 53v103q29 -22 89.5 -42t150.5 -22l113 528q-85 65 -116 102.5t-49 83.5t-18 105q0 143 83.5 231t232.5 105l41 186h82l-39 -182q119 -3 211 -57l-48 -90q-99 54 -184 57l-104 -489q81 -66 113.5 -111.5t51.5 -102t19 -130.5
q0 -137 -84 -223.5t-242 -102.5l-51 -244h-82zM588 449q0 85 -32.5 141.5t-80.5 97.5l-98 -469q102 14 156.5 73t54.5 157zM319 1040q0 -51 25 -96t84 -94l92 428q-201 -27 -201 -238z" />
    <glyph glyph-name="percent" unicode="%" horiz-adv-x="1087" 
d="M1014 1462l-735 -1462h-89l740 1462h84zM924 819q-48 0 -97 -96t-87 -266t-38 -277q0 -117 62 -117q53 0 102.5 98t84 260.5t34.5 272.5q0 125 -61 125zM1067 696q0 -166 -46.5 -341.5t-118 -275t-152.5 -99.5q-63 0 -95 54t-32 148q0 158 45.5 335.5t117 278.5
t152.5 101q63 0 96 -55t33 -146zM453 1405q-48 0 -97 -96t-87 -266t-38 -277q0 -117 62 -117q53 0 102.5 98t84 260.5t34.5 272.5q0 125 -61 125zM596 1282q0 -167 -47 -343.5t-118.5 -275t-151.5 -98.5q-61 0 -94 53t-33 150q0 156 45 332.5t116.5 279.5t153.5 103
q61 0 95 -53.5t34 -147.5z" />
    <glyph glyph-name="ampersand" unicode="&#x26;" horiz-adv-x="750" 
d="M582 0l-47 166q-77 -108 -138 -147t-135 -39q-104 0 -162.5 69t-58.5 187q0 165 71.5 299t237.5 260q-41 142 -41 268q0 197 65 308.5t179 111.5q62 0 100.5 -46t38.5 -134q0 -144 -63 -284.5t-178 -248.5l118 -420q68 125 113 295h84q-20 -95 -73.5 -215.5t-94.5 -177.5
l82 -252h-98zM373 717q-238 -190 -238 -463q0 -182 133 -182q60 0 111.5 37t128.5 151zM428 852q86 80 132 194.5t46 239.5q0 107 -69 107q-65 0 -103.5 -84t-38.5 -228q0 -123 33 -229z" />
    <glyph glyph-name="quotesingle" unicode="'" horiz-adv-x="350" 
d="M412 1462l-138 -528h-61l82 528h117z" />
    <glyph glyph-name="parenleft" unicode="(" horiz-adv-x="508" 
d="M102 219q0 336 130.5 657t373.5 586h76q-235 -287 -355 -601.5t-120 -641.5q0 -146 24 -291.5t70 -251.5h-76q-55 97 -89 247t-34 296z" />
    <glyph glyph-name="parenright" unicode=")" horiz-adv-x="508" 
d="M498 920q0 -333 -128.5 -653t-375.5 -591h-76q235 287 355 601.5t120 642.5q0 147 -24.5 293.5t-69.5 248.5h76q55 -98 89 -247t34 -295z" />
    <glyph glyph-name="asterisk" unicode="*" horiz-adv-x="672" 
d="M578 1546l-58 -231l223 24v-104l-215 22l117 -233l-96 -31l-70 238l-141 -211l-82 55l170 195l-205 37l29 98l211 -82l4 240z" />
    <glyph glyph-name="plus" unicode="+" 
d="M485 782h279v-73h-279v-336h-77v336h-277v73h277v338h77v-338z" />
    <glyph glyph-name="comma" unicode="," horiz-adv-x="379" 
d="M289 182q-102 -214 -244 -446h-65q41 88 96.5 224t89.5 245h115z" />
    <glyph glyph-name="hyphen" unicode="-" horiz-adv-x="465" 
d="M94 502l23 102h368l-22 -102h-369z" />
    <glyph glyph-name="period" unicode="." horiz-adv-x="379" 
d="M98 53q0 61 28 102.5t75 41.5q27 0 42 -21t15 -55q0 -61 -27.5 -99t-70.5 -38q-25 0 -43.5 17.5t-18.5 51.5z" />
    <glyph glyph-name="slash" unicode="/" horiz-adv-x="641" 
d="M838 1462l-779 -1462h-92l778 1462h93z" />
    <glyph glyph-name="zero" unicode="0" 
d="M791 1178q0 -197 -42.5 -431t-114 -413.5t-157.5 -266.5t-182 -87q-102 0 -151.5 77t-49.5 232q0 249 74 557t184 472.5t238 164.5q97 0 149 -77.5t52 -227.5zM584 1389q-96 0 -182.5 -163.5t-147.5 -447.5t-61 -489q0 -109 25.5 -162t84.5 -53q96 0 182 157t146.5 442.5
t60.5 504.5q0 100 -24.5 155.5t-83.5 55.5z" />
    <glyph glyph-name="one" unicode="1" 
d="M383 0h-96l225 1063l33 148l33 135q-27 -29 -55 -56.5t-191 -163.5l-45 68l313 268h92z" />
    <glyph glyph-name="two" unicode="2" 
d="M575 0h-583l10 78l352 434q161 197 221.5 293t96 192.5t35.5 198.5q0 197 -164 197q-49 0 -95 -17t-116 -67l-45 77q55 39 120 68t148 29q118 0 184 -72.5t66 -204.5q0 -142 -78.5 -306t-284.5 -417l-321 -393h473z" />
    <glyph glyph-name="three" unicode="3" 
d="M805 1206q0 -172 -83.5 -290.5t-223.5 -151.5l-2 -6q170 -63 170 -295q0 -138 -52 -249.5t-146 -172.5t-214 -61q-153 0 -238 49v108q93 -69 226 -69q100 0 173 48.5t112.5 136t39.5 196.5q0 131 -56.5 196.5t-162.5 65.5h-65l18 92h59q149 0 249 112t100 279
q0 94 -42 147.5t-122 53.5q-66 0 -119 -22.5t-111 -65.5l-45 71q58 46 124.5 75.5t152.5 29.5q119 0 188.5 -76t69.5 -201z" />
    <glyph glyph-name="four" unicode="4" 
d="M705 332h-140l-71 -332h-95l72 332h-455l17 84l651 1063h125l-225 -1057h139zM489 422l156 720l55 224h-8l-25 -48l-75 -140l-461 -756h358z" />
    <glyph glyph-name="five" unicode="5" 
d="M596 492q0 141 -53.5 220t-163.5 79q-33 0 -63.5 -5t-96.5 -28l-39 63l178 641h457l-20 -94h-365l-145 -508q56 14 118 14q140 0 215.5 -94.5t75.5 -271.5q0 -151 -56.5 -272t-162 -188.5t-246.5 -67.5q-64 0 -122.5 14t-90.5 33v110q76 -69 217 -69q163 0 263 116.5
t100 307.5z" />
    <glyph glyph-name="six" unicode="6" 
d="M104 317q0 292 85 577.5t217 437t290 151.5q91 0 144 -23l-27 -94q-46 23 -115 23q-148 0 -263 -165.5t-195 -482.5h6q46 75 115.5 118.5t150.5 43.5q96 0 152.5 -77.5t56.5 -204.5q0 -169 -53.5 -325.5t-140.5 -236t-195 -79.5q-106 0 -167 89.5t-61 247.5zM344 72
q77 0 139 68t103 205.5t41 262.5q0 94 -37.5 148.5t-104.5 54.5q-85 0 -152.5 -60t-101.5 -159t-34 -275q0 -115 39 -180t108 -65z" />
    <glyph glyph-name="seven" unicode="7" 
d="M125 0l637 1368h-518l18 94h615l-11 -82l-639 -1380h-102z" />
    <glyph glyph-name="eight" unicode="8" 
d="M35 287q0 169 82 285t258 204q-71 79 -104 162.5t-33 183.5q0 157 92 259t241 102q113 0 181.5 -73t68.5 -200q0 -142 -80 -257.5t-227 -192.5q94 -94 133 -187t39 -196q0 -174 -97.5 -285.5t-254.5 -111.5q-144 0 -221.5 81.5t-77.5 225.5zM588 373q0 95 -35 174.5
t-123 169.5q-162 -84 -229.5 -183t-67.5 -241q0 -99 54.5 -161t144.5 -62q118 0 187 81.5t69 221.5zM336 1116q0 -92 31 -164t92 -137q130 68 198 166t68 211q0 93 -42.5 147t-117.5 54q-109 0 -169 -73t-60 -204z" />
    <glyph glyph-name="nine" unicode="9" 
d="M784 1163q0 -310 -78.5 -598t-208.5 -436.5t-294 -148.5q-98 0 -154 22v94q49 -22 154 -22q153 0 266.5 165.5t181.5 483.5h-6q-46 -74 -116.5 -119t-147.5 -45q-95 0 -153 85t-58 222q0 166 54.5 316.5t140.5 225.5t196 75q109 0 166 -82t57 -238zM549 1391
q-79 0 -142 -67t-104 -196.5t-41 -250.5q0 -108 37 -167t104 -59q84 0 152.5 62t102.5 172.5t34 265.5q0 113 -36.5 176.5t-106.5 63.5z" />
    <glyph glyph-name="colon" unicode=":" horiz-adv-x="379" 
d="M70 53q0 60 27 102t75 42q27 0 42 -21t15 -55q0 -61 -27.5 -99t-70.5 -38q-25 0 -43 17.5t-18 51.5zM260 944q0 61 28 102t74 41q31 0 44.5 -23.5t13.5 -51.5q0 -60 -27 -99t-71 -39q-25 0 -43.5 18t-18.5 52z" />
    <glyph glyph-name="semicolon" unicode=";" horiz-adv-x="379" 
d="M276 182q-97 -207 -243 -446h-66q122 263 187 469h114zM274 944q0 61 28 102t75 41q31 0 44 -23.5t13 -51.5q0 -60 -27 -99t-71 -39q-25 0 -43.5 18t-18.5 52z" />
    <glyph glyph-name="less" unicode="&#x3c;" 
d="M709 307l-633 404v67l633 400v-101l-541 -334l541 -333v-103z" />
    <glyph glyph-name="equal" unicode="=" 
d="M768 547v-82h-633v82h633zM768 977v-82h-633v82h633z" />
    <glyph glyph-name="greater" unicode="&#x3e;" 
d="M170 389l541 334l-541 334v100l633 -399v-68l-633 -403v102z" />
    <glyph glyph-name="question" unicode="?" horiz-adv-x="520" 
d="M164 367l10 51q40 199 176 383l70 94q87 118 115 193t28 159q0 76 -35.5 111t-89.5 35q-40 0 -73 -11t-91 -53l-38 78q107 76 210 76q104 0 161 -60t57 -166q0 -70 -18.5 -131.5t-51.5 -120t-133 -188.5q-83 -106 -120.5 -170t-64 -133t-38.5 -147h-74zM72 53
q0 60 27 102t75 42q27 0 42 -21t15 -55q0 -61 -27.5 -99t-70.5 -38q-25 0 -43 17.5t-18 51.5z" />
    <glyph glyph-name="at" unicode="@" horiz-adv-x="1110" 
d="M1137 1024q0 -167 -51 -365.5t-127 -310.5t-160 -112q-57 0 -85 32t-28 86q0 42 10 90q-73 -213 -192 -213q-111 0 -111 179q0 144 53.5 312.5t131.5 253.5t172 85q80 0 141 -29l-118 -471q-25 -97 -25 -149q0 -97 65 -97q51 0 105.5 108t95.5 287t41 302
q0 184 -60.5 280.5t-181.5 96.5q-156 0 -297.5 -145t-229 -402.5t-87.5 -550.5q0 -185 68.5 -288t187.5 -103q58 0 112.5 15.5t89.5 37.5l11 -78q-104 -55 -222 -55q-152 0 -243.5 122.5t-91.5 336.5q0 328 99.5 602.5t267.5 433t356 158.5q140 0 221.5 -118.5t81.5 -330.5z
M725 981q-60 0 -116.5 -79t-94 -215t-37.5 -259q0 -109 58 -109q44 0 84 83.5t88 263.5l81 307q-24 8 -63 8z" />
    <glyph glyph-name="A" unicode="A" horiz-adv-x="731" 
d="M555 0v530h-307l-221 -530h-105l606 1468h123v-1468h-96zM555 629v370l6 355q-15 -52 -52 -152t-226 -573h272z" />
    <glyph glyph-name="B" unicode="B" horiz-adv-x="817" 
d="M375 1462h225q130 0 208.5 -75t78.5 -199q0 -167 -74.5 -279t-204.5 -137l-2 -6q73 -19 118.5 -89.5t45.5 -166.5q0 -151 -51 -267t-148 -179.5t-233 -63.5h-272zM336 813h147q90 0 158 46t105.5 129.5t37.5 187.5q0 97 -51 143.5t-155 46.5h-123zM317 719l-133 -625h158
q154 0 240 107.5t86 292.5q0 104 -51 164.5t-142 60.5h-158z" />
    <glyph glyph-name="C" unicode="C" horiz-adv-x="727" 
d="M739 1389q-130 0 -245.5 -129t-188 -355.5t-72.5 -437.5q0 -204 51.5 -299.5t172.5 -95.5q76 0 172 39v-95q-94 -36 -187 -36q-153 0 -230 115.5t-77 353.5q0 256 85.5 504.5t226 390t303.5 141.5q122 0 196 -62l-61 -86q-60 52 -146 52z" />
    <glyph glyph-name="D" unicode="D" horiz-adv-x="895" 
d="M913 1047q0 -300 -82.5 -544.5t-230 -373.5t-344.5 -129h-190l309 1462h217q154 0 237.5 -105t83.5 -310zM276 94q151 0 270.5 116t191 345t71.5 492q0 319 -231 319h-123l-271 -1272h92z" />
    <glyph glyph-name="E" unicode="E" horiz-adv-x="709" 
d="M543 0h-477l309 1462h477l-21 -96h-376l-117 -553h354l-20 -94h-355l-133 -625h377z" />
    <glyph glyph-name="F" unicode="F" horiz-adv-x="655" 
d="M166 0h-100l309 1462h479l-20 -96h-379l-129 -614h356l-20 -95h-357z" />
    <glyph glyph-name="G" unicode="G" horiz-adv-x="967" 
d="M645 741h295l-152 -708q-137 -53 -288 -53q-365 0 -365 458q0 184 51 389t138.5 357t199 226.5t240.5 74.5q170 0 301 -94l-64 -88q-68 50 -124.5 68t-118.5 18q-111 0 -204.5 -72t-165 -208.5t-113.5 -321t-42 -355.5q0 -191 68.5 -275.5t208.5 -84.5q100 0 192 28
l117 547h-194z" />
    <glyph glyph-name="H" unicode="H" horiz-adv-x="924" 
d="M702 0h-98l152 717h-441l-151 -717h-98l309 1462h98l-137 -647h440l137 647h99z" />
    <glyph glyph-name="I.alt" horiz-adv-x="424" 
d="M293 0h-316l15 76l110 14l273 1280l-107 16l17 76h317l-16 -76l-113 -16l-272 -1280l106 -14z" />
    <glyph glyph-name="J" unicode="J" horiz-adv-x="360" 
d="M-113 -369q-70 0 -114 25l28 92q42 -20 90 -20q68 0 105 55t63 182l318 1497h98l-321 -1519q-34 -161 -98 -236.5t-169 -75.5z" />
    <glyph glyph-name="K" unicode="K" horiz-adv-x="743" 
d="M666 0h-101l-149 709l-129 -129l-123 -580h-98l309 1462h98l-164 -774l123 180l416 594h100l-452 -667z" />
    <glyph glyph-name="L" unicode="L" horiz-adv-x="639" 
d="M66 0l309 1462h98l-289 -1368h359l-19 -94h-458z" />
    <glyph glyph-name="M" unicode="M" horiz-adv-x="1255" 
d="M494 0l-52 1331h-6l-44 -240l-230 -1091h-96l309 1462h160l34 -1108l4 -164l-2 -88h2q17 50 107 250l494 1110h169l-309 -1462h-100l238 1122l49 207h-4l-596 -1329h-127z" />
    <glyph glyph-name="N" unicode="N" horiz-adv-x="981" 
d="M760 0h-121l-201 1311h-8q-14 -115 -45 -262l-221 -1049h-98l309 1462h131l192 -1296h7l14 86l35 188l217 1022h98z" />
    <glyph glyph-name="O" unicode="O" horiz-adv-x="958" 
d="M412 -20q-277 0 -277 399q0 196 46 414t124.5 376.5t178.5 236t218 77.5q275 0 275 -383q0 -284 -80 -557t-207 -418t-278 -145zM233 377q0 -303 187 -303q92 0 173.5 80.5t144.5 230t102 349.5t39 366q0 289 -187 289q-91 0 -171.5 -73.5t-144.5 -220.5t-103.5 -350
t-39.5 -368z" />
    <glyph glyph-name="P" unicode="P" horiz-adv-x="772" 
d="M858 1155q0 -157 -57 -283t-164 -197t-250 -71h-96l-127 -604h-98l309 1462h170q145 0 229 -83.5t84 -223.5zM311 698h70q178 0 275.5 115.5t97.5 325.5q0 107 -58.5 167t-165.5 60h-77z" />
    <glyph glyph-name="Q" unicode="Q" horiz-adv-x="958" 
d="M412 -20q-277 0 -277 399q0 196 46 414t124.5 376.5t178.5 236t218 77.5q275 0 275 -402q0 -232 -60 -471.5t-158 -395t-218 -206.5l114 -356h-116l-97 330zM233 371q0 -297 187 -297q124 0 228 147t167.5 404t63.5 483q0 281 -187 281q-127 0 -230 -140.5t-166 -398
t-63 -479.5z" />
    <glyph glyph-name="R" unicode="R" horiz-adv-x="795" 
d="M299 639l-135 -639h-98l309 1462h180q140 0 220.5 -82t80.5 -227q0 -120 -38.5 -228t-109.5 -179t-161 -89l121 -657h-107l-117 639h-145zM317 729h105q157 0 244.5 108.5t87.5 307.5q0 107 -58.5 164t-165.5 57h-77z" />
    <glyph glyph-name="S" unicode="S" horiz-adv-x="727" 
d="M655 399q0 -196 -104 -307.5t-287 -111.5q-79 0 -148 17t-106 40v108q121 -71 262 -71q133 0 207 86.5t74 236.5q0 64 -16 115t-44 95.5t-110 131.5q-78 83 -108 130t-46 99.5t-16 116.5q0 114 48.5 206.5t136 142t204.5 49.5q65 0 136 -18t106 -42l-53 -94
q-91 57 -199 57q-84 0 -146.5 -37t-96.5 -103t-34 -146q0 -75 30 -138t116 -149q92 -94 124 -147t51 -117.5t19 -149.5z" />
    <glyph glyph-name="T" unicode="T" horiz-adv-x="639" 
d="M291 0h-101l289 1366h-256l21 96h612l-20 -96h-256z" />
    <glyph glyph-name="U" unicode="U" horiz-adv-x="911" 
d="M1012 1462l-215 -1003q-55 -253 -151.5 -366t-260.5 -113q-125 0 -190.5 78t-65.5 218q0 75 18 164l220 1022h98l-221 -1034q-19 -80 -19 -152q0 -202 172 -202q114 0 186.5 90t114.5 293l215 1005h99z" />
    <glyph glyph-name="V" unicode="V" horiz-adv-x="729" 
d="M850 1462h100l-610 -1462h-109v1462h99v-909q0 -167 -23 -432q34 105 125 334z" />
    <glyph glyph-name="W" unicode="W" horiz-adv-x="1270" 
d="M1376 1462h101l-588 -1462h-121l47 1094l16 239l-79 -237l-426 -1096h-121l26 1462h101l-27 -1007q-7 -211 -18 -344l26 74l99 266l389 1011h108l-32 -970q-11 -253 -25 -381q85 241 127 344z" />
    <glyph glyph-name="X" unicode="X" horiz-adv-x="651" 
d="M547 0h-101l-53 666l-348 -666h-102l419 791l-81 671h100l68 -606l307 606h100l-377 -719z" />
    <glyph glyph-name="Y" unicode="Y" horiz-adv-x="616" 
d="M379 707l366 755h103l-447 -891l-120 -571h-101l121 571l-74 891h101z" />
    <glyph glyph-name="Z" unicode="Z" horiz-adv-x="580" 
d="M465 0h-490l19 88l641 1278h-367l21 96h473l-19 -90l-651 -1278h391z" />
    <glyph glyph-name="bracketleft" unicode="[" horiz-adv-x="580" 
d="M383 -324h-358l381 1786h358l-21 -90h-262l-342 -1605h264z" />
    <glyph glyph-name="backslash" unicode="\" horiz-adv-x="641" 
d="M365 1462l163 -1462h-96l-162 1462h95z" />
    <glyph glyph-name="bracketright" unicode="]" horiz-adv-x="580" 
d="M-43 -233h260l342 1605h-264l20 90h359l-381 -1786h-356z" />
    <glyph glyph-name="asciicircum" unicode="^" 
d="M692 758l-123 590l-352 -590h-106l432 704h82l159 -704h-92z" />
    <glyph glyph-name="underscore" unicode="_" horiz-adv-x="758" 
d="M729 -266h-764l17 82h763z" />
    <glyph glyph-name="grave" unicode="`" horiz-adv-x="1014" 
d="M743 1241q-48 57 -101.5 151t-70.5 160v17h127q26 -156 84 -309v-19h-39z" />
    <glyph glyph-name="a" unicode="a" horiz-adv-x="817" 
d="M319 -20q-200 0 -200 282q0 209 62.5 414t162 317.5t217.5 112.5q134 0 174 -150h6l39 129h80l-229 -1085h-76l18 156h-4q-114 -176 -250 -176zM338 63q90 0 168 104t132 304t54 377q0 83 -35.5 125.5t-99.5 42.5q-88 0 -163 -101.5t-126 -297.5t-51 -369
q0 -91 26.5 -138t94.5 -47z" />
    <glyph glyph-name="b" unicode="b" horiz-adv-x="803" 
d="M612 1106q201 0 201 -283q0 -211 -63 -415.5t-162.5 -316t-216.5 -111.5q-68 0 -115 41t-59 110h-7l-45 -131h-73l327 1556h95l-119 -555l-21 -81h4q52 91 118 138.5t136 47.5zM594 1022q-94 0 -173 -104.5t-130 -294t-51 -371.5q0 -186 135 -186q88 0 163.5 103.5
t126 299.5t50.5 369q0 91 -26.5 137.5t-94.5 46.5z" />
    <glyph glyph-name="c" unicode="c" horiz-adv-x="588" 
d="M358 -20q-116 0 -177.5 80t-61.5 231q0 217 63 413.5t163 299t224 102.5q86 0 144 -33l-39 -86q-53 29 -113 29q-92 0 -168.5 -97t-126 -277t-49.5 -353q0 -223 160 -223q63 0 143 40v-86q-75 -40 -162 -40z" />
    <glyph glyph-name="d" unicode="d" horiz-adv-x="817" 
d="M319 -20q-200 0 -200 282q0 209 62.5 414t162 317.5t217.5 112.5q69 0 115.5 -42t58.5 -110h6l125 602h95l-330 -1556h-76l18 156h-4q-114 -176 -250 -176zM338 63q90 0 168 102.5t132 300t54 378.5q0 85 -32 128.5t-103 43.5q-88 0 -163 -101.5t-126 -297.5t-51 -369
q0 -91 26.5 -138t94.5 -47z" />
    <glyph glyph-name="e" unicode="e" horiz-adv-x="723" 
d="M373 -20q-120 0 -187 83.5t-67 233.5q0 214 60.5 401.5t164 297.5t217.5 110q87 0 134.5 -50.5t47.5 -152.5q0 -123 -59.5 -215t-170 -137t-263.5 -45h-12q-21 -99 -21 -199q0 -241 184 -241q47 0 88.5 13t94.5 44v-96q-84 -47 -211 -47zM545 1018q-89 0 -169 -118
t-126 -312q399 0 399 317q0 53 -22.5 83t-81.5 30z" />
    <glyph glyph-name="f" unicode="f" horiz-adv-x="408" 
d="M-113 -492q-51 0 -88 11v92q37 -12 84 -12t73 26.5t47.5 88.5t47.5 186l236 1101h-121l10 54l131 41l21 98q29 143 63.5 223t80.5 115t126 35q66 0 111 -25l-41 -88q-42 21 -82 21q-47 0 -72.5 -26.5t-47 -89.5t-65.5 -274h144l-19 -84h-143l-240 -1107
q-34 -160 -65 -239t-73 -113t-118 -34z" />
    <glyph glyph-name="g" unicode="g" horiz-adv-x="668" 
d="M821 1085l-14 -67l-137 -17q30 -57 30 -143q0 -109 -44.5 -224.5t-118 -181t-162.5 -65.5h-25l-22 2q-125 -87 -125 -158q0 -23 8 -37.5t25 -24t118 -40.5q126 -39 177 -98.5t51 -159.5q0 -161 -106 -262t-273 -101q-132 0 -204.5 67t-72.5 189q0 105 65 191.5t185 140.5
q-63 42 -63 113q0 52 32 101t115 108q-86 72 -86 209q0 123 49.5 240.5t125 178t167.5 60.5q64 0 98 -21h207zM16 -229q0 -98 49.5 -141.5t145.5 -43.5q122 0 202.5 74t80.5 193q0 64 -40.5 111t-123.5 71l-90 24q-96 -32 -160 -113t-64 -175zM266 612q0 -74 28.5 -112.5
t82.5 -38.5q62 0 112.5 52.5t83.5 158t33 202.5q0 154 -108 154q-61 0 -112.5 -56t-85.5 -164.5t-34 -195.5z" />
    <glyph glyph-name="h" unicode="h" horiz-adv-x="784" 
d="M504 0l172 815q10 40 10 84q0 113 -100 113q-105 0 -176 -101t-115 -315l-127 -596h-94l329 1556h95l-99 -454l-41 -168h4q93 172 242 172q84 0 130 -48.5t46 -139.5q0 -56 -14 -121l-168 -797h-94z" />
    <glyph glyph-name="i" unicode="i" horiz-adv-x="348" 
d="M162 0h-94l231 1085h94zM346 1356q0 51 23 88t59 37q47 0 47 -58q0 -57 -22 -94t-58 -37q-49 0 -49 64z" />
    <glyph glyph-name="j" unicode="j" horiz-adv-x="348" 
d="M346 1356q0 51 23 88t59 37q47 0 47 -58q0 -57 -22 -94t-58 -37q-49 0 -49 64zM299 1085h94l-254 -1191q-34 -160 -65 -238t-73.5 -113t-117.5 -35q-51 0 -88 11v92q37 -12 84 -12t73 26.5t47.5 88.5t47.5 186z" />
    <glyph glyph-name="k" unicode="k" horiz-adv-x="639" 
d="M276 549l48 59l82 105l270 372h102l-307 -430l96 -655h-98l-84 573l-127 -139l-92 -434h-94l331 1556h95l-179 -817q-8 -40 -45 -190h2z" />
    <glyph glyph-name="l" unicode="l" horiz-adv-x="346" 
d="M166 0h-94l331 1556h95z" />
    <glyph glyph-name="m" unicode="m" horiz-adv-x="1171" 
d="M891 0l172 813q10 47 10 84q0 115 -94 115q-82 0 -146 -71.5t-88 -188.5l-157 -752h-94l168 799q12 58 12 98q0 115 -99 115q-101 0 -168 -96t-114 -320l-127 -596h-94l229 1085h80l-25 -151h4q91 172 240 172q73 0 114.5 -36t51.5 -114q51 75 107 112.5t131 37.5
q77 0 119 -50t42 -149q0 -57 -14 -121l-166 -786h-94z" />
    <glyph glyph-name="n" unicode="n" horiz-adv-x="782" 
d="M502 0l172 815q10 40 10 84q0 113 -100 113q-105 0 -176 -101t-115 -315l-127 -596h-94l229 1085h80l-25 -151h4q93 172 242 172q84 0 130 -48.5t46 -139.5q0 -56 -14 -121l-168 -797h-94z" />
    <glyph glyph-name="o" unicode="o" horiz-adv-x="780" 
d="M340 -20q-107 0 -164 80t-57 227q0 142 36 305t94 276.5t136 175.5t174 62q106 0 165.5 -82.5t59.5 -232.5q0 -139 -36.5 -298.5t-95.5 -274t-138 -176.5t-174 -62zM217 268q0 -202 135 -202q89 0 164 101.5t122.5 286.5t47.5 357q0 205 -139 205q-84 0 -157.5 -98
t-123 -286t-49.5 -364z" />
    <glyph glyph-name="p" unicode="p" horiz-adv-x="803" 
d="M614 1106q201 0 201 -283q0 -210 -63 -414.5t-162 -316.5t-217 -112q-68 0 -115 41t-59 110h-6l-125 -602h-95l330 1556h82l-25 -155h5q114 176 249 176zM596 1022q-94 0 -173 -104.5t-130 -294t-51 -371.5q0 -186 135 -186q88 0 163.5 103.5t126 299.5t50.5 369
q0 91 -26.5 137.5t-94.5 46.5z" />
    <glyph glyph-name="q" unicode="q" horiz-adv-x="817" 
d="M319 -20q-200 0 -200 282q0 209 62.5 414t162 317.5t217.5 112.5q134 0 174 -150h6l39 129h80l-334 -1577h-94l103 488l43 162h-5q-115 -178 -254 -178zM338 63q90 0 168 104t132 304t54 377q0 83 -35.5 125.5t-99.5 42.5q-88 0 -163 -101.5t-126 -297.5t-51 -369
q0 -91 26.5 -138t94.5 -47z" />
    <glyph glyph-name="r" unicode="r" horiz-adv-x="504" 
d="M582 1106q39 0 73 -12l-26 -97q-30 15 -66 15q-85 0 -158 -117t-116 -320l-123 -575h-94l229 1085h70l-29 -190h4q88 211 236 211z" />
    <glyph glyph-name="s" unicode="s" horiz-adv-x="594" 
d="M229 -20q-56 0 -117 14t-83 31v110q24 -24 80.5 -44.5t113.5 -20.5q97 0 151 56.5t54 160.5q0 44 -11 80.5t-28.5 67.5t-77.5 97q-65 71 -88 107.5t-36 78.5t-13 97q0 130 80 210.5t207 80.5q136 0 219 -62l-51 -86q-71 58 -172 58q-82 0 -135.5 -51.5t-53.5 -137.5
q0 -59 21.5 -107t81.5 -114q72 -78 97.5 -118t40.5 -87t15 -104q0 -152 -76.5 -234.5t-218.5 -82.5z" />
    <glyph glyph-name="t" unicode="t" horiz-adv-x="403" 
d="M328 80v-80q-56 -20 -105 -20q-127 0 -127 151q0 38 13 100l163 770h-98l12 56l103 28l80 258h69l-55 -258h143l-18 -84h-143l-158 -743q-14 -64 -14 -106q0 -45 16.5 -64.5t52.5 -19.5q31 0 66 12z" />
    <glyph glyph-name="u" unicode="u" horiz-adv-x="786" 
d="M395 1085l-162 -755q-18 -78 -18 -135q0 -123 94 -123q209 0 297 417l127 596h94l-231 -1085h-74l8 135h-4q-101 -155 -239 -155q-164 0 -164 198q0 79 20 166l158 741h94z" />
    <glyph glyph-name="v" unicode="v" horiz-adv-x="588" 
d="M178 0v1085h94v-659q0 -38 -4.5 -141.5t-11.5 -161.5h6q21 62 51 141t338 821h99l-459 -1085h-113z" />
    <glyph glyph-name="w" unicode="w" horiz-adv-x="1012" 
d="M608 0l29 735l12 228q-40 -118 -54 -158t-308 -805h-117l20 1085h95l-13 -632q-4 -176 -22 -330h4q8 28 39.5 115t324.5 847h109l-16 -632q-3 -90 -15 -262l-4 -68h4l60 157l313 805h96l-436 -1085h-121z" />
    <glyph glyph-name="x" unicode="x" horiz-adv-x="608" 
d="M313 571l-92 514h96l70 -434l250 434h100l-327 -538l108 -547h-96l-80 461l-268 -461h-101z" />
    <glyph glyph-name="y" unicode="y" horiz-adv-x="588" 
d="M-68 -492q-46 0 -90 19v86q37 -16 88 -16q54 0 92.5 43.5t94.5 173.5l71 170l-8 1101h94v-639q0 -161 -12 -323h6q53 157 97 264l288 698h99l-562 -1329q-58 -138 -116 -193t-142 -55z" />
    <glyph glyph-name="z" unicode="z" horiz-adv-x="487" 
d="M389 0h-393l14 76l475 925h-264l19 84h364l-16 -77l-477 -924h297z" />
    <glyph glyph-name="braceleft" unicode="{" horiz-adv-x="664" 
d="M838 1462l-19 -80q-113 -2 -164.5 -48t-72.5 -150l-76 -353q-23 -111 -82.5 -174.5t-167.5 -85.5v-4q77 -17 113.5 -59t36.5 -113q0 -33 -11 -88l-67 -315q-11 -55 -11 -86q0 -75 35.5 -111.5t116.5 -38.5v-80q-129 4 -187.5 60t-58.5 164q0 45 13 96l67 323q8 32 8 70
q0 146 -186 146l16 69q119 0 182.5 54.5t86.5 160.5l79 371q30 145 111 208.5t238 63.5z" />
    <glyph glyph-name="bar" unicode="|" 
d="M225 -492h-92l434 2048h92z" />
    <glyph glyph-name="braceright" unicode="}" horiz-adv-x="664" 
d="M-59 -324l18 80q112 2 164 47t74 152l75 352q23 112 82.5 175.5t167.5 84.5v4q-77 17 -113 59t-36 113q0 40 10 88l68 316q10 50 10 86q0 74 -35.5 110.5t-116.5 38.5v80q129 -3 187.5 -59.5t58.5 -163.5q0 -44 -12 -96l-68 -324q-8 -32 -8 -69q0 -146 186 -146l-16 -69
q-119 0 -182 -54.5t-86 -161.5l-80 -370q-30 -146 -111.5 -209.5t-236.5 -63.5z" />
    <glyph glyph-name="asciitilde" unicode="~" 
d="M602 625q-81 0 -168 55q-38 22 -74 40.5t-79 18.5q-71 0 -170 -121v99q86 106 188 106q49 0 95.5 -19.5t95.5 -48.5q73 -44 131 -44q43 0 82.5 29t84.5 87v-98q-82 -104 -186 -104z" />
    <glyph glyph-name="nonbreakingspace" unicode="&#xa0;" horiz-adv-x="479" 
 />
    <glyph glyph-name="exclamdown" unicode="&#xa1;" horiz-adv-x="477" 
d="M317 705h62l-203 -1096h-123zM487 1018q0 -60 -27 -102t-75 -42q-27 0 -42 21t-15 55q0 61 27.5 99t70.5 38q25 0 43 -17.5t18 -51.5z" />
    <glyph glyph-name="cent" unicode="&#xa2;" 
d="M301 -20l47 219q-155 44 -155 288q0 196 52.5 382t140 300t198.5 140l37 174h84l-35 -170q70 -6 116 -31l-38 -86q-53 29 -113 29q-93 0 -169.5 -100t-125.5 -282.5t-49 -353.5q0 -115 37.5 -165t109.5 -50q45 0 77.5 13.5t55.5 25.5l23 -84q-26 -16 -72 -27.5t-92 -13.5
l-45 -208h-84z" />
    <glyph glyph-name="sterling" unicode="&#xa3;" 
d="M680 1483q60 0 106.5 -17.5t100.5 -64.5l-64 -78q-63 70 -151 70q-81 0 -128.5 -66t-76.5 -207l-74 -352h223l-18 -86h-223l-62 -287q-47 -223 -159 -301h456l-20 -94h-582l19 82q63 28 112.5 107.5t75.5 203.5l61 289h-141l19 86h141l82 385q34 158 106 244t197 86z" />
    <glyph glyph-name="currency" unicode="&#xa4;" horiz-adv-x="1022" 
d="M227 723q0 118 78 221l-121 123l52 51l120 -123q104 82 226 82t221 -80l121 121l53 -51l-121 -121q80 -99 80 -223t-80 -223l121 -123l-51 -51l-123 120q-103 -77 -221 -77q-127 0 -226 80l-118 -123l-54 55l121 119q-78 103 -78 223zM309 723q0 -112 78.5 -192
t194.5 -80t194 80.5t78 191.5q0 113 -79.5 192.5t-192.5 79.5q-114 0 -193.5 -79.5t-79.5 -192.5z" />
    <glyph glyph-name="yen" unicode="&#xa5;" 
d="M358 655l-36 807h92l24 -745l338 745h94l-376 -807h180l-19 -82h-200l-41 -200h198l-16 -82h-199l-63 -291h-96l61 291h-195l17 82h194l41 200h-192l18 82h176z" />
    <glyph glyph-name="brokenbar" unicode="&#xa6;" 
d="M492 758h-93l168 798h92zM225 -492h-92l170 799h92z" />
    <glyph glyph-name="section" unicode="&#xa7;" horiz-adv-x="629" 
d="M553 1556q127 0 209 -63l-49 -74q-76 58 -160 58q-90 0 -145.5 -53t-55.5 -132q0 -55 24 -95t105 -97q89 -64 124.5 -118.5t35.5 -115.5q0 -90 -40.5 -158t-133.5 -124q80 -80 80 -178q0 -93 -41 -162.5t-111.5 -107.5t-154.5 -38q-66 0 -124.5 13.5t-88.5 35.5v101
q37 -31 96 -49.5t117 -18.5q87 0 149 59t62 152q0 36 -9.5 64.5t-28.5 52t-75 65.5q-111 81 -148.5 137.5t-37.5 120.5q0 171 196 261q-48 45 -68 91.5t-20 100.5q0 115 83.5 193.5t209.5 78.5zM545 850q0 54 -25.5 92t-83.5 78l-30 22q-162 -62 -162 -198q0 -59 42 -106.5
t132 -102.5q127 83 127 215z" />
    <glyph glyph-name="dieresis" unicode="&#xa8;" horiz-adv-x="1014" 
d="M453 1362q0 49 22.5 81t59.5 32q47 0 47 -58q0 -53 -21.5 -86t-58.5 -33q-49 0 -49 64zM725 1362q0 49 23 81t59 32q47 0 47 -58q0 -53 -21.5 -86t-58.5 -33q-49 0 -49 64z" />
    <glyph glyph-name="copyright" unicode="&#xa9;" horiz-adv-x="1704" 
d="M971 1092q-142 0 -222.5 -94.5t-80.5 -264.5q0 -186 74.5 -275t220.5 -89q84 0 198 43v-88q-102 -45 -209 -45q-187 0 -288 116t-101 330q0 208 111 332.5t297 124.5q119 0 227 -52l-37 -83q-98 45 -190 45zM174 731q0 200 100 375t275 276t377 101q199 0 373.5 -99
t276 -275.5t101.5 -377.5q0 -199 -98.5 -373t-272.5 -276t-380 -102q-207 0 -382 103.5t-272.5 276.5t-97.5 371zM266 731q0 -182 92 -335t243 -238.5t325 -85.5q178 0 329.5 88.5t240.5 240.5t89 330q0 174 -85.5 325t-239 243t-334.5 92q-178 0 -330 -89t-241 -240.5
t-89 -330.5z" />
    <glyph glyph-name="ordfeminine" unicode="&#xaa;" horiz-adv-x="510" 
d="M426 817l2 84h-6q-38 -53 -75.5 -74.5t-82.5 -21.5q-52 0 -86.5 38t-34.5 101q0 106 64 170t182 76l98 10l15 70q8 32 8 65q0 44 -20 59t-54 15q-46 0 -103 -28l-24 -11l-20 66q31 16 78 29.5t92 13.5q133 0 133 -119q0 -36 -12 -88l-97 -455h-57zM225 950q0 -76 68 -76
q55 0 101 53t65 142l14 66l-59 -7q-189 -19 -189 -178z" />
    <glyph glyph-name="guillemotleft" unicode="&#xab;" horiz-adv-x="770" 
d="M465 907l57 -41l-276 -340l125 -350l-64 -29l-180 367l4 27zM776 907l55 -41l-274 -340l123 -350l-62 -29l-182 367l4 27z" />
    <glyph glyph-name="logicalnot" unicode="&#xac;" 
d="M737 776v-461h-73v379h-560v82h633z" />
    <glyph glyph-name="uni00AD" unicode="&#xad;" horiz-adv-x="465" 
d="M94 502l23 102h368l-22 -102h-369z" />
    <glyph glyph-name="registered" unicode="&#xae;" horiz-adv-x="1704" 
d="M782 731h113q91 0 143 46.5t52 135.5q0 172 -197 172h-111v-354zM1194 918q0 -79 -39 -140t-111 -94l238 -393h-121l-211 360h-168v-360h-100v880h211q142 0 221.5 -62t79.5 -191zM174 731q0 200 100 375t275 276t377 101q199 0 373.5 -99t276 -275.5t101.5 -377.5
q0 -199 -98.5 -373t-272.5 -276t-380 -102q-207 0 -382 103.5t-272.5 276.5t-97.5 371zM266 731q0 -182 92 -335t243 -238.5t325 -85.5q178 0 329.5 88.5t240.5 240.5t89 330q0 174 -85.5 325t-239 243t-334.5 92q-178 0 -330 -89t-241 -240.5t-89 -330.5z" />
    <glyph glyph-name="overscore" unicode="&#xaf;" horiz-adv-x="758" 
d="M999 1556h-772l19 82h772z" />
    <glyph glyph-name="degree" unicode="&#xb0;" horiz-adv-x="764" 
d="M240 1184q0 132 86.5 215.5t212.5 83.5q128 0 213.5 -85t85.5 -214t-85.5 -214t-213.5 -85q-130 0 -214.5 83t-84.5 216zM324 1184q0 -95 63 -159t152 -64q87 0 151 63.5t64 159.5t-63 159.5t-152 63.5q-92 0 -153.5 -64.5t-61.5 -158.5z" />
    <glyph glyph-name="plusminus" unicode="&#xb1;" 
d="M41 74h633v-74h-633v74zM393 688h281v-74h-281v-350h-74v350h-278v74h278v350h74v-350z" />
    <glyph glyph-name="twosuperior" unicode="&#xb2;" horiz-adv-x="494" 
d="M471 586h-420l8 78l288 309q83 86 124 164t41 155q0 56 -28.5 85.5t-73.5 29.5q-42 0 -75.5 -14.5t-86.5 -59.5l-39 70q51 44 100.5 63t110.5 19q83 0 131.5 -52.5t48.5 -136.5q0 -70 -25 -131.5t-69 -122.5t-176 -198l-168 -178h325z" />
    <glyph glyph-name="threesuperior" unicode="&#xb3;" horiz-adv-x="494" 
d="M600 1292q0 -89 -46 -152.5t-120 -92.5l-2 -9q96 -53 96 -176q0 -128 -81 -210.5t-209 -82.5q-115 0 -181 33v88q40 -24 79.5 -34.5t101.5 -10.5q88 0 145 60t57 149q0 74 -40 114t-105 40h-55l14 73h57q86 0 143.5 58.5t57.5 146.5q0 57 -27.5 88t-76.5 31
q-50 0 -88 -16.5t-78 -45.5l-35 70q41 29 89.5 50.5t117.5 21.5q85 0 135.5 -53t50.5 -140z" />
    <glyph glyph-name="acute" unicode="&#xb4;" horiz-adv-x="1014" 
d="M500 1241v16q154 186 223 312h139v-17q-42 -63 -136 -156t-175 -155h-51z" />
    <glyph glyph-name="mu" unicode="&#xb5;" horiz-adv-x="782" 
d="M395 1085l-162 -755q-18 -78 -18 -135q0 -123 94 -123q209 0 297 417l127 596h94l-231 -1085h-74l8 135h-4q-101 -155 -231 -155q-89 0 -125 81q-11 -69 -21 -124.5t-92 -428.5h-90l334 1577h94z" />
    <glyph glyph-name="paragraph" unicode="&#xb6;" horiz-adv-x="870" 
d="M565 -260h-88l365 1720h-127l-365 -1720h-88l172 813q-22 -12 -72 -12q-60 0 -98.5 61.5t-38.5 163.5q0 207 66 398.5t171.5 291.5t233.5 100h254z" />
    <glyph glyph-name="periodcentered" unicode="&#xb7;" horiz-adv-x="379" 
d="M186 686q0 61 28 102t75 41q31 0 44 -23.5t13 -51.5q0 -60 -27 -99t-71 -39q-25 0 -43.5 18t-18.5 52z" />
    <glyph glyph-name="cedilla" unicode="&#xb8;" horiz-adv-x="418" 
d="M330 -266q0 -100 -68.5 -163t-179.5 -63q-24 0 -60 3.5t-49 7.5v78q26 -11 103 -11q78 0 122 36.5t44 98.5q0 45 -35 74t-117 45l103 160h81l-79 -115q65 -18 100 -58.5t35 -92.5z" />
    <glyph glyph-name="onesuperior" unicode="&#xb9;" horiz-adv-x="494" 
d="M360 586h-86l151 692l21 86q-45 -38 -68.5 -55.5t-129.5 -89.5l-35 69l244 174h90z" />
    <glyph glyph-name="ordmasculine" unicode="&#xba;" horiz-adv-x="557" 
d="M637 1282q0 -117 -42 -235.5t-107 -180t-146 -61.5q-83 0 -130.5 50.5t-47.5 143.5q0 123 42 242t109 178.5t150 59.5q78 0 125 -49t47 -148zM457 1409q-58 0 -102.5 -51.5t-73.5 -153.5t-29 -200q0 -69 20 -101.5t70 -32.5q58 0 104.5 50t74.5 152t28 208
q0 66 -21.5 97.5t-70.5 31.5z" />
    <glyph glyph-name="guillemotright" unicode="&#xbb;" horiz-adv-x="770" 
d="M416 147l-58 41l277 340l-125 351l63 28l181 -366l-4 -27zM104 147l-55 41l275 340l-123 351l61 28l182 -366l-4 -27z" />
    <glyph glyph-name="onequarter" unicode="&#xbc;" horiz-adv-x="1286" 
d="M1150 210h-90l-45 -209h-78l39 209h-301l9 65l436 608h84l-127 -591h90zM993 292l61 282q25 121 39 170l-20 -33l-80 -122l-211 -297h211zM378 586h-86l151 692l21 86q-45 -38 -68.5 -55.5t-129.5 -89.5l-35 69l244 174h90zM1315 1462l-1122 -1462h-97l1123 1462h96z" />
    <glyph glyph-name="onehalf" unicode="&#xbd;" horiz-adv-x="1286" 
d="M1186 1h-420l8 78l288 309q83 86 124 164t41 155q0 56 -28.5 85.5t-73.5 29.5q-42 0 -75.5 -14.5t-86.5 -59.5l-39 70q51 44 100.5 63t110.5 19q83 0 131.5 -52.5t48.5 -136.5q0 -70 -25 -131.5t-69 -122.5t-176 -198l-168 -178h325zM378 586h-86l151 692l21 86
q-45 -38 -68.5 -55.5t-129.5 -89.5l-35 69l244 174h90zM1303 1462l-1122 -1462h-97l1123 1462h96z" />
    <glyph glyph-name="threequarters" unicode="&#xbe;" horiz-adv-x="1286" 
d="M1193 210h-90l-45 -209h-78l39 209h-301l9 65l436 608h84l-127 -591h90zM1036 292l61 282q25 121 39 170l-20 -33l-80 -122l-211 -297h211zM643 1292q0 -89 -46 -152.5t-120 -92.5l-2 -9q96 -53 96 -176q0 -128 -81 -210.5t-209 -82.5q-115 0 -181 33v88
q40 -24 79.5 -34.5t101.5 -10.5q88 0 145 60t57 149q0 74 -40 114t-105 40h-55l14 73h57q86 0 143.5 58.5t57.5 146.5q0 57 -27.5 88t-76.5 31q-50 0 -88 -16.5t-78 -45.5l-35 70q41 29 89.5 50.5t117.5 21.5q85 0 135.5 -53t50.5 -140zM1366 1462l-1122 -1462h-97
l1123 1462h96z" />
    <glyph glyph-name="questiondown" unicode="&#xbf;" horiz-adv-x="520" 
d="M467 705q-19 -97 -33 -143.5t-37.5 -97.5t-52.5 -99t-133 -189q-78 -102 -108.5 -183.5t-30.5 -168.5q0 -75 32 -110.5t86 -35.5q40 0 73 11t91 53l39 -78q-107 -76 -211 -76q-103 0 -157 60t-54 166q0 71 18.5 132.5t52 120.5t132.5 187q88 113 124 174.5t61 128.5
t38 148h70zM563 1018q0 -61 -28 -102.5t-74 -41.5q-31 0 -44.5 24t-13.5 52q0 61 27 99t72 38q25 0 43 -17.5t18 -51.5z" />
    <glyph glyph-name="Agrave" unicode="&#xc0;" horiz-adv-x="731" 
d="M555 0v530h-307l-221 -530h-105l606 1468h123v-1468h-96zM555 629v370l6 355q-15 -52 -52 -152t-226 -573h272zM640 1579q-48 57 -101.5 151t-70.5 160v17h127q26 -156 84 -309v-19h-39z" />
    <glyph glyph-name="Aacute" unicode="&#xc1;" horiz-adv-x="731" 
d="M555 0v530h-307l-221 -530h-105l606 1468h123v-1468h-96zM555 629v370l6 355q-15 -52 -52 -152t-226 -573h272zM520 1579v16q154 186 223 312h139v-17q-42 -63 -136 -156t-175 -155h-51z" />
    <glyph glyph-name="Acircumflex" unicode="&#xc2;" horiz-adv-x="731" 
d="M555 0v530h-307l-221 -530h-105l606 1468h123v-1468h-96zM555 629v370l6 355q-15 -52 -52 -152t-226 -573h272zM763 1579q-59 88 -125 203q-132 -132 -219 -203h-45l4 19q160 182 239 309h86q11 -51 47.5 -150.5t63.5 -158.5l-4 -19h-47z" />
    <glyph glyph-name="Atilde" unicode="&#xc3;" horiz-adv-x="731" 
d="M555 0v530h-307l-221 -530h-105l606 1468h123v-1468h-96zM555 629v370l6 355q-15 -52 -52 -152t-226 -573h272zM738 1589q-35 0 -64.5 20.5t-57 45t-53 45t-50.5 20.5q-40 0 -62.5 -35t-39.5 -98h-70q31 120 75.5 175t104.5 55q36 0 65 -20.5t54.5 -45t49.5 -45t48 -20.5
q30 0 47.5 22.5t40.5 112.5h70q-29 -134 -65.5 -183t-92.5 -49z" />
    <glyph glyph-name="Adieresis" unicode="&#xc4;" horiz-adv-x="731" 
d="M555 0v530h-307l-221 -530h-105l606 1468h123v-1468h-96zM555 629v370l6 355q-15 -52 -52 -152t-226 -573h272zM423 1700q0 49 22.5 81t59.5 32q47 0 47 -58q0 -53 -21.5 -86t-58.5 -33q-49 0 -49 64zM695 1700q0 49 23 81t59 32q47 0 47 -58q0 -53 -21.5 -86t-58.5 -33
q-49 0 -49 64z" />
    <glyph glyph-name="Aring" unicode="&#xc5;" horiz-adv-x="731" 
d="M555 0v530h-307l-221 -530h-105l606 1468h123v-1468h-96zM555 629v370l6 355q-15 -52 -52 -152t-226 -573h272zM781 1598q0 -88 -51 -139.5t-139 -51.5q-90 0 -140.5 51t-50.5 136t50.5 135.5t140.5 50.5q84 0 137 -51t53 -131zM710 1594q0 52 -31.5 86.5t-87.5 34.5
t-87.5 -34.5t-31.5 -86.5q0 -54 28.5 -86.5t90.5 -32.5q53 0 86 32.5t33 86.5z" />
    <glyph glyph-name="AE" unicode="&#xc6;" horiz-adv-x="1036" 
d="M870 0h-477l113 530h-236l-245 -530h-101l684 1462h572l-21 -96h-377l-116 -553h356l-21 -94h-356l-133 -625h377zM313 629h213l156 735h-29z" />
    <glyph glyph-name="Ccedilla" unicode="&#xc7;" horiz-adv-x="727" 
d="M739 1389q-130 0 -245.5 -129t-188 -355.5t-72.5 -437.5q0 -204 51.5 -299.5t172.5 -95.5q76 0 172 39v-95q-94 -36 -187 -36q-153 0 -230 115.5t-77 353.5q0 256 85.5 504.5t226 390t303.5 141.5q122 0 196 -62l-61 -86q-60 52 -146 52zM520 -266q0 -100 -68.5 -163
t-179.5 -63q-24 0 -60 3.5t-49 7.5v78q26 -11 103 -11q78 0 122 36.5t44 98.5q0 45 -35 74t-117 45l103 160h81l-79 -115q65 -18 100 -58.5t35 -92.5z" />
    <glyph glyph-name="Egrave" unicode="&#xc8;" horiz-adv-x="709" 
d="M543 0h-477l309 1462h477l-21 -96h-376l-117 -553h354l-20 -94h-355l-133 -625h377zM646 1579q-48 57 -101.5 151t-70.5 160v17h127q26 -156 84 -309v-19h-39z" />
    <glyph glyph-name="Eacute" unicode="&#xc9;" horiz-adv-x="709" 
d="M543 0h-477l309 1462h477l-21 -96h-376l-117 -553h354l-20 -94h-355l-133 -625h377zM533 1579v16q154 186 223 312h139v-17q-42 -63 -136 -156t-175 -155h-51z" />
    <glyph glyph-name="Ecircumflex" unicode="&#xca;" horiz-adv-x="709" 
d="M543 0h-477l309 1462h477l-21 -96h-376l-117 -553h354l-20 -94h-355l-133 -625h377zM794 1579q-59 88 -125 203q-132 -132 -219 -203h-45l4 19q160 182 239 309h86q11 -51 47.5 -150.5t63.5 -158.5l-4 -19h-47z" />
    <glyph glyph-name="Edieresis" unicode="&#xcb;" horiz-adv-x="709" 
d="M543 0h-477l309 1462h477l-21 -96h-376l-117 -553h354l-20 -94h-355l-133 -625h377zM450 1700q0 49 22.5 81t59.5 32q47 0 47 -58q0 -53 -21.5 -86t-58.5 -33q-49 0 -49 64zM722 1700q0 49 23 81t59 32q47 0 47 -58q0 -53 -21.5 -86t-58.5 -33q-49 0 -49 64z" />
    <glyph glyph-name="Igrave.alt" horiz-adv-x="424" 
d="M293 0h-316l15 76l110 14l273 1280l-107 16l17 76h317l-16 -76l-113 -16l-272 -1280l106 -14zM463 1579q-48 57 -101.5 151t-70.5 160v17h127q26 -156 84 -309v-19h-39z" />
    <glyph glyph-name="Iacute.alt" horiz-adv-x="424" 
d="M293 0h-316l15 76l110 14l273 1280l-107 16l17 76h317l-16 -76l-113 -16l-272 -1280l106 -14zM395 1579v16q154 186 223 312h139v-17q-42 -63 -136 -156t-175 -155h-51z" />
    <glyph glyph-name="Icircumflex.alt" horiz-adv-x="424" 
d="M293 0h-316l15 76l110 14l273 1280l-107 16l17 76h317l-16 -76l-113 -16l-272 -1280l106 -14zM620 1579q-59 88 -125 203q-132 -132 -219 -203h-45l4 19q160 182 239 309h86q11 -51 47.5 -150.5t63.5 -158.5l-4 -19h-47z" />
    <glyph glyph-name="Idieresis.alt" horiz-adv-x="424" 
d="M293 0h-316l15 76l110 14l273 1280l-107 16l17 76h317l-16 -76l-113 -16l-272 -1280l106 -14zM282 1700q0 49 22.5 81t59.5 32q47 0 47 -58q0 -53 -21.5 -86t-58.5 -33q-49 0 -49 64zM554 1700q0 49 23 81t59 32q47 0 47 -58q0 -53 -21.5 -86t-58.5 -33q-49 0 -49 64z
" />
    <glyph glyph-name="Eth" unicode="&#xd0;" horiz-adv-x="895" 
d="M913 1047q0 -300 -82.5 -544.5t-230 -373.5t-344.5 -129h-190l149 715h-88l18 92h88l142 655h217q154 0 237.5 -105t83.5 -310zM276 94q151 0 270.5 116t191 345t71.5 492q0 319 -231 319h-123l-121 -559h190l-18 -92h-193l-129 -621h92z" />
    <glyph glyph-name="Ntilde" unicode="&#xd1;" horiz-adv-x="981" 
d="M760 0h-121l-201 1311h-8q-14 -115 -45 -262l-221 -1049h-98l309 1462h131l192 -1296h7l14 86l35 188l217 1022h98zM868 1589q-35 0 -64.5 20.5t-57 45t-53 45t-50.5 20.5q-40 0 -62.5 -35t-39.5 -98h-70q31 120 75.5 175t104.5 55q36 0 65 -20.5t54.5 -45t49.5 -45
t48 -20.5q30 0 47.5 22.5t40.5 112.5h70q-29 -134 -65.5 -183t-92.5 -49z" />
    <glyph glyph-name="Ograve" unicode="&#xd2;" horiz-adv-x="958" 
d="M412 -20q-277 0 -277 399q0 196 46 414t124.5 376.5t178.5 236t218 77.5q275 0 275 -383q0 -284 -80 -557t-207 -418t-278 -145zM233 377q0 -303 187 -303q92 0 173.5 80.5t144.5 230t102 349.5t39 366q0 289 -187 289q-91 0 -171.5 -73.5t-144.5 -220.5t-103.5 -350
t-39.5 -368zM761 1579q-48 57 -101.5 151t-70.5 160v17h127q26 -156 84 -309v-19h-39z" />
    <glyph glyph-name="Oacute" unicode="&#xd3;" horiz-adv-x="958" 
d="M412 -20q-277 0 -277 399q0 196 46 414t124.5 376.5t178.5 236t218 77.5q275 0 275 -383q0 -284 -80 -557t-207 -418t-278 -145zM233 377q0 -303 187 -303q92 0 173.5 80.5t144.5 230t102 349.5t39 366q0 289 -187 289q-91 0 -171.5 -73.5t-144.5 -220.5t-103.5 -350
t-39.5 -368zM662 1579v16q154 186 223 312h139v-17q-42 -63 -136 -156t-175 -155h-51z" />
    <glyph glyph-name="Ocircumflex" unicode="&#xd4;" horiz-adv-x="958" 
d="M412 -20q-277 0 -277 399q0 196 46 414t124.5 376.5t178.5 236t218 77.5q275 0 275 -383q0 -284 -80 -557t-207 -418t-278 -145zM233 377q0 -303 187 -303q92 0 173.5 80.5t144.5 230t102 349.5t39 366q0 289 -187 289q-91 0 -171.5 -73.5t-144.5 -220.5t-103.5 -350
t-39.5 -368zM877 1579q-59 88 -125 203q-132 -132 -219 -203h-45l4 19q160 182 239 309h86q11 -51 47.5 -150.5t63.5 -158.5l-4 -19h-47z" />
    <glyph glyph-name="Otilde" unicode="&#xd5;" horiz-adv-x="958" 
d="M412 -20q-277 0 -277 399q0 196 46 414t124.5 376.5t178.5 236t218 77.5q275 0 275 -383q0 -284 -80 -557t-207 -418t-278 -145zM233 377q0 -303 187 -303q92 0 173.5 80.5t144.5 230t102 349.5t39 366q0 289 -187 289q-91 0 -171.5 -73.5t-144.5 -220.5t-103.5 -350
t-39.5 -368zM847 1589q-35 0 -64.5 20.5t-57 45t-53 45t-50.5 20.5q-40 0 -62.5 -35t-39.5 -98h-70q31 120 75.5 175t104.5 55q36 0 65 -20.5t54.5 -45t49.5 -45t48 -20.5q30 0 47.5 22.5t40.5 112.5h70q-29 -134 -65.5 -183t-92.5 -49z" />
    <glyph glyph-name="Odieresis" unicode="&#xd6;" horiz-adv-x="958" 
d="M412 -20q-277 0 -277 399q0 196 46 414t124.5 376.5t178.5 236t218 77.5q275 0 275 -383q0 -284 -80 -557t-207 -418t-278 -145zM233 377q0 -303 187 -303q92 0 173.5 80.5t144.5 230t102 349.5t39 366q0 289 -187 289q-91 0 -171.5 -73.5t-144.5 -220.5t-103.5 -350
t-39.5 -368zM547 1700q0 49 22.5 81t59.5 32q47 0 47 -58q0 -53 -21.5 -86t-58.5 -33q-49 0 -49 64zM819 1700q0 49 23 81t59 32q47 0 47 -58q0 -53 -21.5 -86t-58.5 -33q-49 0 -49 64z" />
    <glyph glyph-name="multiply" unicode="&#xd7;" 
d="M446 774l265 264l53 -51l-264 -264l258 -260l-51 -51l-261 260l-262 -264l-51 53l262 262l-260 260l51 51z" />
    <glyph glyph-name="Oslash" unicode="&#xd8;" horiz-adv-x="958" 
d="M412 -20q-139 0 -209 102l-111 -176l-69 41l139 223q-27 83 -27 209q0 196 46 414t124.5 376.5t178.5 236t218 77.5q145 0 213 -109l109 172l72 -45l-140 -221q21 -80 21 -180q0 -284 -80 -557t-207 -418t-278 -145zM233 377q0 -61 5 -86l614 981q-45 117 -160 117
q-91 0 -171.5 -73.5t-144.5 -220.5t-103.5 -350t-39.5 -368zM420 74q92 0 173.5 80.5t144.5 230t102 349.5t39 366l-2 53l-613 -973q45 -106 156 -106z" />
    <glyph glyph-name="Ugrave" unicode="&#xd9;" horiz-adv-x="911" 
d="M1012 1462l-215 -1003q-55 -253 -151.5 -366t-260.5 -113q-125 0 -190.5 78t-65.5 218q0 75 18 164l220 1022h98l-221 -1034q-19 -80 -19 -152q0 -202 172 -202q114 0 186.5 90t114.5 293l215 1005h99zM717 1579q-48 57 -101.5 151t-70.5 160v17h127q26 -156 84 -309v-19
h-39z" />
    <glyph glyph-name="Uacute" unicode="&#xda;" horiz-adv-x="911" 
d="M1012 1462l-215 -1003q-55 -253 -151.5 -366t-260.5 -113q-125 0 -190.5 78t-65.5 218q0 75 18 164l220 1022h98l-221 -1034q-19 -80 -19 -152q0 -202 172 -202q114 0 186.5 90t114.5 293l215 1005h99zM602 1579v16q154 186 223 312h139v-17q-42 -63 -136 -156t-175 -155
h-51z" />
    <glyph glyph-name="Ucircumflex" unicode="&#xdb;" horiz-adv-x="911" 
d="M1012 1462l-215 -1003q-55 -253 -151.5 -366t-260.5 -113q-125 0 -190.5 78t-65.5 218q0 75 18 164l220 1022h98l-221 -1034q-19 -80 -19 -152q0 -202 172 -202q114 0 186.5 90t114.5 293l215 1005h99zM871 1579q-59 88 -125 203q-132 -132 -219 -203h-45l4 19
q160 182 239 309h86q11 -51 47.5 -150.5t63.5 -158.5l-4 -19h-47z" />
    <glyph glyph-name="Udieresis" unicode="&#xdc;" horiz-adv-x="911" 
d="M1012 1462l-215 -1003q-55 -253 -151.5 -366t-260.5 -113q-125 0 -190.5 78t-65.5 218q0 75 18 164l220 1022h98l-221 -1034q-19 -80 -19 -152q0 -202 172 -202q114 0 186.5 90t114.5 293l215 1005h99zM527 1700q0 49 22.5 81t59.5 32q47 0 47 -58q0 -53 -21.5 -86
t-58.5 -33q-49 0 -49 64zM799 1700q0 49 23 81t59 32q47 0 47 -58q0 -53 -21.5 -86t-58.5 -33q-49 0 -49 64z" />
    <glyph glyph-name="Yacute" unicode="&#xdd;" horiz-adv-x="616" 
d="M379 707l366 755h103l-447 -891l-120 -571h-101l121 571l-74 891h101zM470 1579v16q154 186 223 312h139v-17q-42 -63 -136 -156t-175 -155h-51z" />
    <glyph glyph-name="Thorn" unicode="&#xde;" horiz-adv-x="756" 
d="M473 1462l-57 -270h65q146 0 233 -84t87 -223q0 -163 -62 -292t-167.5 -194t-241.5 -65h-97l-69 -334h-98l309 1462h98zM254 428h70q178 0 275 116.5t97 323.5q0 228 -223 228h-78z" />
    <glyph glyph-name="germandbls" unicode="&#xdf;" horiz-adv-x="741" 
d="M623 1567q89 0 139.5 -57.5t50.5 -151.5q0 -75 -31 -145.5t-120 -174.5q-71 -84 -94 -135t-23 -100q0 -54 24 -109t52 -116q26 -57 46.5 -120.5t20.5 -138.5q0 -150 -82 -244.5t-217 -94.5q-51 0 -94 13t-66 32v100q77 -55 164 -55q91 0 145 64t54 173q0 100 -51 217
l-31 68q-61 121 -61 201q0 72 27.5 134.5t86.5 127.5q84 92 119 157t35 146q0 59 -30 87t-81 28q-73 0 -121 -64t-75 -195l-285 -1320q-36 -164 -67 -241.5t-73 -111t-116 -33.5q-51 0 -88 11v92q36 -12 84 -12q47 0 73 26.5t47.5 88.5t47.5 186l278 1304q38 181 113 272
t199 91z" />
    <glyph glyph-name="agrave" unicode="&#xe0;" horiz-adv-x="817" 
d="M319 -20q-200 0 -200 282q0 209 62.5 414t162 317.5t217.5 112.5q134 0 174 -150h6l39 129h80l-229 -1085h-76l18 156h-4q-114 -176 -250 -176zM338 63q90 0 168 104t132 304t54 377q0 83 -35.5 125.5t-99.5 42.5q-88 0 -163 -101.5t-126 -297.5t-51 -369
q0 -91 26.5 -138t94.5 -47zM586 1241q-48 57 -101.5 151t-70.5 160v17h127q26 -156 84 -309v-19h-39z" />
    <glyph glyph-name="aacute" unicode="&#xe1;" horiz-adv-x="817" 
d="M319 -20q-200 0 -200 282q0 209 62.5 414t162 317.5t217.5 112.5q134 0 174 -150h6l39 129h80l-229 -1085h-76l18 156h-4q-114 -176 -250 -176zM338 63q90 0 168 104t132 304t54 377q0 83 -35.5 125.5t-99.5 42.5q-88 0 -163 -101.5t-126 -297.5t-51 -369
q0 -91 26.5 -138t94.5 -47zM468 1241v16q154 186 223 312h139v-17q-42 -63 -136 -156t-175 -155h-51z" />
    <glyph glyph-name="acircumflex" unicode="&#xe2;" horiz-adv-x="817" 
d="M319 -20q-200 0 -200 282q0 209 62.5 414t162 317.5t217.5 112.5q134 0 174 -150h6l39 129h80l-229 -1085h-76l18 156h-4q-114 -176 -250 -176zM338 63q90 0 168 104t132 304t54 377q0 83 -35.5 125.5t-99.5 42.5q-88 0 -163 -101.5t-126 -297.5t-51 -369
q0 -91 26.5 -138t94.5 -47zM743 1243q-59 88 -125 203q-132 -132 -219 -203h-45l4 19q160 182 239 309h86q11 -51 47.5 -150.5t63.5 -158.5l-4 -19h-47z" />
    <glyph glyph-name="atilde" unicode="&#xe3;" horiz-adv-x="817" 
d="M319 -20q-200 0 -200 282q0 209 62.5 414t162 317.5t217.5 112.5q134 0 174 -150h6l39 129h80l-229 -1085h-76l18 156h-4q-114 -176 -250 -176zM338 63q90 0 168 104t132 304t54 377q0 83 -35.5 125.5t-99.5 42.5q-88 0 -163 -101.5t-126 -297.5t-51 -369
q0 -91 26.5 -138t94.5 -47zM713 1251q-35 0 -64.5 20.5t-57 45t-53 45t-50.5 20.5q-40 0 -62.5 -35t-39.5 -98h-70q31 120 75.5 175t104.5 55q36 0 65 -20.5t54.5 -45t49.5 -45t48 -20.5q30 0 47.5 22.5t40.5 112.5h70q-29 -134 -65.5 -183t-92.5 -49z" />
    <glyph glyph-name="adieresis" unicode="&#xe4;" horiz-adv-x="817" 
d="M319 -20q-200 0 -200 282q0 209 62.5 414t162 317.5t217.5 112.5q134 0 174 -150h6l39 129h80l-229 -1085h-76l18 156h-4q-114 -176 -250 -176zM338 63q90 0 168 104t132 304t54 377q0 83 -35.5 125.5t-99.5 42.5q-88 0 -163 -101.5t-126 -297.5t-51 -369
q0 -91 26.5 -138t94.5 -47zM413 1362q0 49 22.5 81t59.5 32q47 0 47 -58q0 -53 -21.5 -86t-58.5 -33q-49 0 -49 64zM685 1362q0 49 23 81t59 32q47 0 47 -58q0 -53 -21.5 -86t-58.5 -33q-49 0 -49 64z" />
    <glyph glyph-name="aring" unicode="&#xe5;" horiz-adv-x="817" 
d="M319 -20q-200 0 -200 282q0 209 62.5 414t162 317.5t217.5 112.5q134 0 174 -150h6l39 129h80l-229 -1085h-76l18 156h-4q-114 -176 -250 -176zM338 63q90 0 168 104t132 304t54 377q0 83 -35.5 125.5t-99.5 42.5q-88 0 -163 -101.5t-126 -297.5t-51 -369
q0 -91 26.5 -138t94.5 -47zM773 1442q0 -88 -51 -139.5t-139 -51.5q-90 0 -140.5 51t-50.5 136t50.5 135.5t140.5 50.5q84 0 137 -51t53 -131zM702 1438q0 52 -31.5 86.5t-87.5 34.5t-87.5 -34.5t-31.5 -86.5q0 -54 28.5 -86.5t90.5 -32.5q53 0 86 32.5t33 86.5z" />
    <glyph glyph-name="ae" unicode="&#xe6;" horiz-adv-x="1192" 
d="M319 -20q-200 0 -200 282q0 209 62.5 414t162 317.5t217.5 112.5q59 0 96.5 -34.5t57.5 -119.5l39 133h80l-33 -141q110 162 229 162q87 0 134.5 -50.5t47.5 -152.5q0 -123 -59.5 -215t-170 -137t-263.5 -45h-12q-21 -99 -21 -199q0 -124 47 -182.5t141 -58.5
q89 0 185 55v-86q-51 -29 -96 -42t-105 -13q-88 0 -146 48t-75 136l-33 -164h-76l23 156q-88 -176 -232 -176zM338 63q88 0 159.5 101t116.5 297t45 387q0 81 -26.5 124.5t-75.5 43.5q-88 0 -163 -101.5t-126 -297.5t-51 -369q0 -91 26.5 -138t94.5 -47zM1014 1018
q-84 0 -160 -108.5t-133 -321.5q195 0 296 79.5t101 237.5q0 53 -22.5 83t-81.5 30z" />
    <glyph glyph-name="ccedilla" unicode="&#xe7;" horiz-adv-x="588" 
d="M358 -20q-116 0 -177.5 80t-61.5 231q0 217 63 413.5t163 299t224 102.5q86 0 144 -33l-39 -86q-53 29 -113 29q-92 0 -168.5 -97t-126 -277t-49.5 -353q0 -223 160 -223q63 0 143 40v-86q-75 -40 -162 -40zM428 -266q0 -100 -68.5 -163t-179.5 -63q-24 0 -60 3.5
t-49 7.5v78q26 -11 103 -11q78 0 122 36.5t44 98.5q0 45 -35 74t-117 45l103 160h81l-79 -115q65 -18 100 -58.5t35 -92.5z" />
    <glyph glyph-name="egrave" unicode="&#xe8;" horiz-adv-x="723" 
d="M373 -20q-120 0 -187 83.5t-67 233.5q0 214 60.5 401.5t164 297.5t217.5 110q87 0 134.5 -50.5t47.5 -152.5q0 -123 -59.5 -215t-170 -137t-263.5 -45h-12q-21 -99 -21 -199q0 -241 184 -241q47 0 88.5 13t94.5 44v-96q-84 -47 -211 -47zM545 1018q-89 0 -169 -118
t-126 -312q399 0 399 317q0 53 -22.5 83t-81.5 30zM572 1241q-48 57 -101.5 151t-70.5 160v17h127q26 -156 84 -309v-19h-39z" />
    <glyph glyph-name="eacute" unicode="&#xe9;" horiz-adv-x="723" 
d="M373 -20q-120 0 -187 83.5t-67 233.5q0 214 60.5 401.5t164 297.5t217.5 110q87 0 134.5 -50.5t47.5 -152.5q0 -123 -59.5 -215t-170 -137t-263.5 -45h-12q-21 -99 -21 -199q0 -241 184 -241q47 0 88.5 13t94.5 44v-96q-84 -47 -211 -47zM545 1018q-89 0 -169 -118
t-126 -312q399 0 399 317q0 53 -22.5 83t-81.5 30zM478 1241v16q154 186 223 312h139v-17q-42 -63 -136 -156t-175 -155h-51z" />
    <glyph glyph-name="ecircumflex" unicode="&#xea;" horiz-adv-x="723" 
d="M373 -20q-120 0 -187 83.5t-67 233.5q0 214 60.5 401.5t164 297.5t217.5 110q87 0 134.5 -50.5t47.5 -152.5q0 -123 -59.5 -215t-170 -137t-263.5 -45h-12q-21 -99 -21 -199q0 -241 184 -241q47 0 88.5 13t94.5 44v-96q-84 -47 -211 -47zM545 1018q-89 0 -169 -118
t-126 -312q399 0 399 317q0 53 -22.5 83t-81.5 30zM745 1241q-59 88 -125 203q-132 -132 -219 -203h-45l4 19q160 182 239 309h86q11 -51 47.5 -150.5t63.5 -158.5l-4 -19h-47z" />
    <glyph glyph-name="edieresis" unicode="&#xeb;" horiz-adv-x="723" 
d="M373 -20q-120 0 -187 83.5t-67 233.5q0 214 60.5 401.5t164 297.5t217.5 110q87 0 134.5 -50.5t47.5 -152.5q0 -123 -59.5 -215t-170 -137t-263.5 -45h-12q-21 -99 -21 -199q0 -241 184 -241q47 0 88.5 13t94.5 44v-96q-84 -47 -211 -47zM545 1018q-89 0 -169 -118
t-126 -312q399 0 399 317q0 53 -22.5 83t-81.5 30zM413 1362q0 49 22.5 81t59.5 32q47 0 47 -58q0 -53 -21.5 -86t-58.5 -33q-49 0 -49 64zM685 1362q0 49 23 81t59 32q47 0 47 -58q0 -53 -21.5 -86t-58.5 -33q-49 0 -49 64z" />
    <glyph glyph-name="igrave" unicode="&#xec;" horiz-adv-x="348" 
d="M162 0h-94l231 1085h94zM402 1241q-48 57 -101.5 151t-70.5 160v17h127q26 -156 84 -309v-19h-39z" />
    <glyph glyph-name="iacute" unicode="&#xed;" horiz-adv-x="348" 
d="M162 0h-94l231 1085h94zM298 1241v16q154 186 223 312h139v-17q-42 -63 -136 -156t-175 -155h-51z" />
    <glyph glyph-name="icircumflex" unicode="&#xee;" horiz-adv-x="348" 
d="M162 0h-94l231 1085h94zM515 1241q-59 88 -125 203q-132 -132 -219 -203h-45l4 19q160 182 239 309h86q11 -51 47.5 -150.5t63.5 -158.5l-4 -19h-47z" />
    <glyph glyph-name="idieresis" unicode="&#xef;" horiz-adv-x="348" 
d="M162 0h-94l231 1085h94zM182 1362q0 49 22.5 81t59.5 32q47 0 47 -58q0 -53 -21.5 -86t-58.5 -33q-49 0 -49 64zM454 1362q0 49 23 81t59 32q47 0 47 -58q0 -53 -21.5 -86t-58.5 -33q-49 0 -49 64z" />
    <glyph glyph-name="eth" unicode="&#xf0;" horiz-adv-x="770" 
d="M756 883q0 -250 -55.5 -461t-155.5 -326.5t-232 -115.5q-109 0 -171 78t-62 225q0 156 58.5 326t149.5 257.5t199 87.5q60 0 97.5 -24t59 -66.5t34.5 -148.5q0 239 -35 379t-119 235l-227 -135l-33 59l215 125q-46 56 -155 135l53 60q97 -61 192 -154l222 129l30 -53
l-211 -125q79 -112 112.5 -228.5t33.5 -258.5zM317 66q85 0 154 71t113.5 212.5t44.5 287.5q0 110 -36 168.5t-104 58.5q-86 0 -155 -72.5t-112.5 -217.5t-43.5 -283q0 -116 34.5 -170.5t104.5 -54.5z" />
    <glyph glyph-name="ntilde" unicode="&#xf1;" horiz-adv-x="782" 
d="M502 0l172 815q10 40 10 84q0 113 -100 113q-105 0 -176 -101t-115 -315l-127 -596h-94l229 1085h80l-25 -151h4q93 172 242 172q84 0 130 -48.5t46 -139.5q0 -56 -14 -121l-168 -797h-94zM717 1251q-35 0 -64.5 20.5t-57 45t-53 45t-50.5 20.5q-40 0 -62.5 -35
t-39.5 -98h-70q31 120 75.5 175t104.5 55q36 0 65 -20.5t54.5 -45t49.5 -45t48 -20.5q30 0 47.5 22.5t40.5 112.5h70q-29 -134 -65.5 -183t-92.5 -49z" />
    <glyph glyph-name="ograve" unicode="&#xf2;" horiz-adv-x="780" 
d="M340 -20q-107 0 -164 80t-57 227q0 142 36 305t94 276.5t136 175.5t174 62q106 0 165.5 -82.5t59.5 -232.5q0 -139 -36.5 -298.5t-95.5 -274t-138 -176.5t-174 -62zM217 268q0 -202 135 -202q89 0 164 101.5t122.5 286.5t47.5 357q0 205 -139 205q-84 0 -157.5 -98
t-123 -286t-49.5 -364zM592 1241q-48 57 -101.5 151t-70.5 160v17h127q26 -156 84 -309v-19h-39z" />
    <glyph glyph-name="oacute" unicode="&#xf3;" horiz-adv-x="780" 
d="M340 -20q-107 0 -164 80t-57 227q0 142 36 305t94 276.5t136 175.5t174 62q106 0 165.5 -82.5t59.5 -232.5q0 -139 -36.5 -298.5t-95.5 -274t-138 -176.5t-174 -62zM217 268q0 -202 135 -202q89 0 164 101.5t122.5 286.5t47.5 357q0 205 -139 205q-84 0 -157.5 -98
t-123 -286t-49.5 -364zM489 1241v16q154 186 223 312h139v-17q-42 -63 -136 -156t-175 -155h-51z" />
    <glyph glyph-name="ocircumflex" unicode="&#xf4;" horiz-adv-x="780" 
d="M340 -20q-107 0 -164 80t-57 227q0 142 36 305t94 276.5t136 175.5t174 62q106 0 165.5 -82.5t59.5 -232.5q0 -139 -36.5 -298.5t-95.5 -274t-138 -176.5t-174 -62zM217 268q0 -202 135 -202q89 0 164 101.5t122.5 286.5t47.5 357q0 205 -139 205q-84 0 -157.5 -98
t-123 -286t-49.5 -364zM745 1241q-59 88 -125 203q-132 -132 -219 -203h-45l4 19q160 182 239 309h86q11 -51 47.5 -150.5t63.5 -158.5l-4 -19h-47z" />
    <glyph glyph-name="otilde" unicode="&#xf5;" horiz-adv-x="780" 
d="M340 -20q-107 0 -164 80t-57 227q0 142 36 305t94 276.5t136 175.5t174 62q106 0 165.5 -82.5t59.5 -232.5q0 -139 -36.5 -298.5t-95.5 -274t-138 -176.5t-174 -62zM217 268q0 -202 135 -202q89 0 164 101.5t122.5 286.5t47.5 357q0 205 -139 205q-84 0 -157.5 -98
t-123 -286t-49.5 -364zM703 1251q-35 0 -64.5 20.5t-57 45t-53 45t-50.5 20.5q-40 0 -62.5 -35t-39.5 -98h-70q31 120 75.5 175t104.5 55q36 0 65 -20.5t54.5 -45t49.5 -45t48 -20.5q30 0 47.5 22.5t40.5 112.5h70q-29 -134 -65.5 -183t-92.5 -49z" />
    <glyph glyph-name="odieresis" unicode="&#xf6;" horiz-adv-x="780" 
d="M340 -20q-107 0 -164 80t-57 227q0 142 36 305t94 276.5t136 175.5t174 62q106 0 165.5 -82.5t59.5 -232.5q0 -139 -36.5 -298.5t-95.5 -274t-138 -176.5t-174 -62zM217 268q0 -202 135 -202q89 0 164 101.5t122.5 286.5t47.5 357q0 205 -139 205q-84 0 -157.5 -98
t-123 -286t-49.5 -364zM409 1362q0 49 22.5 81t59.5 32q47 0 47 -58q0 -53 -21.5 -86t-58.5 -33q-49 0 -49 64zM681 1362q0 49 23 81t59 32q47 0 47 -58q0 -53 -21.5 -86t-58.5 -33q-49 0 -49 64z" />
    <glyph glyph-name="divide" unicode="&#xf7;" 
d="M764 760v-74h-633v74h633zM377 408q0 96 69 96q29 0 49.5 -22t20.5 -74q0 -51 -20.5 -74t-49.5 -23q-30 0 -49.5 23t-19.5 74zM377 1036q0 97 69 97q29 0 49.5 -22t20.5 -75q0 -51 -20.5 -73.5t-49.5 -22.5q-69 0 -69 96z" />
    <glyph glyph-name="oslash" unicode="&#xf8;" horiz-adv-x="780" 
d="M340 -20q-99 0 -156 69l-110 -166l-64 43l131 199q-22 64 -22 162q0 142 36 305t94 276.5t136 175.5t174 62q113 0 172 -92l105 157l67 -43l-135 -202q16 -58 16 -135q0 -139 -36.5 -298.5t-95.5 -274t-138 -176.5t-174 -62zM670 922q-32 94 -123 94q-86 0 -160.5 -102.5
t-123 -294.5t-48.5 -379zM352 66q88 0 162 97.5t122.5 275.5t51.5 364l-448 -670q33 -67 112 -67z" />
    <glyph glyph-name="ugrave" unicode="&#xf9;" horiz-adv-x="786" 
d="M395 1085l-162 -755q-18 -78 -18 -135q0 -123 94 -123q209 0 297 417l127 596h94l-231 -1085h-74l8 135h-4q-101 -155 -239 -155q-164 0 -164 198q0 79 20 166l158 741h94zM607 1241q-48 57 -101.5 151t-70.5 160v17h127q26 -156 84 -309v-19h-39z" />
    <glyph glyph-name="uacute" unicode="&#xfa;" horiz-adv-x="786" 
d="M395 1085l-162 -755q-18 -78 -18 -135q0 -123 94 -123q209 0 297 417l127 596h94l-231 -1085h-74l8 135h-4q-101 -155 -239 -155q-164 0 -164 198q0 79 20 166l158 741h94zM487 1241v16q154 186 223 312h139v-17q-42 -63 -136 -156t-175 -155h-51z" />
    <glyph glyph-name="ucircumflex" unicode="&#xfb;" horiz-adv-x="786" 
d="M395 1085l-162 -755q-18 -78 -18 -135q0 -123 94 -123q209 0 297 417l127 596h94l-231 -1085h-74l8 135h-4q-101 -155 -239 -155q-164 0 -164 198q0 79 20 166l158 741h94zM751 1241q-59 88 -125 203q-132 -132 -219 -203h-45l4 19q160 182 239 309h86
q11 -51 47.5 -150.5t63.5 -158.5l-4 -19h-47z" />
    <glyph glyph-name="udieresis" unicode="&#xfc;" horiz-adv-x="786" 
d="M395 1085l-162 -755q-18 -78 -18 -135q0 -123 94 -123q209 0 297 417l127 596h94l-231 -1085h-74l8 135h-4q-101 -155 -239 -155q-164 0 -164 198q0 79 20 166l158 741h94zM399 1362q0 49 22.5 81t59.5 32q47 0 47 -58q0 -53 -21.5 -86t-58.5 -33q-49 0 -49 64zM671 1362
q0 49 23 81t59 32q47 0 47 -58q0 -53 -21.5 -86t-58.5 -33q-49 0 -49 64z" />
    <glyph glyph-name="yacute" unicode="&#xfd;" horiz-adv-x="588" 
d="M-68 -492q-46 0 -90 19v86q37 -16 88 -16q54 0 92.5 43.5t94.5 173.5l71 170l-8 1101h94v-639q0 -161 -12 -323h6q53 157 97 264l288 698h99l-562 -1329q-58 -138 -116 -193t-142 -55zM403 1241v16q154 186 223 312h139v-17q-42 -63 -136 -156t-175 -155h-51z" />
    <glyph glyph-name="thorn" unicode="&#xfe;" horiz-adv-x="803" 
d="M614 1106q201 0 201 -283q0 -210 -63 -414.5t-162 -316.5t-217 -112q-68 0 -115 41t-59 110h-6l-125 -602h-95l430 2027h95l-138 -626h5q114 176 249 176zM596 1022q-94 0 -173 -104.5t-130 -294t-51 -371.5q0 -186 135 -186q88 0 163.5 103.5t126 299.5t50.5 369
q0 91 -26.5 137.5t-94.5 46.5z" />
    <glyph glyph-name="ydieresis" unicode="&#xff;" horiz-adv-x="588" 
d="M-68 -492q-46 0 -90 19v86q37 -16 88 -16q54 0 92.5 43.5t94.5 173.5l71 170l-8 1101h94v-639q0 -161 -12 -323h6q53 157 97 264l288 698h99l-562 -1329q-58 -138 -116 -193t-142 -55zM302 1362q0 49 22.5 81t59.5 32q47 0 47 -58q0 -53 -21.5 -86t-58.5 -33
q-49 0 -49 64zM574 1362q0 49 23 81t59 32q47 0 47 -58q0 -53 -21.5 -86t-58.5 -33q-49 0 -49 64z" />
    <glyph glyph-name="Amacron" unicode="&#x100;" horiz-adv-x="731" 
d="M555 0v530h-307l-221 -530h-105l606 1468h123v-1468h-96zM555 629v370l6 355q-15 -52 -52 -152t-226 -573h272zM378 1671h500l-16 -82h-500z" />
    <glyph glyph-name="amacron" unicode="&#x101;" horiz-adv-x="817" 
d="M319 -20q-200 0 -200 282q0 209 62.5 414t162 317.5t217.5 112.5q134 0 174 -150h6l39 129h80l-229 -1085h-76l18 156h-4q-114 -176 -250 -176zM338 63q90 0 168 104t132 304t54 377q0 83 -35.5 125.5t-99.5 42.5q-88 0 -163 -101.5t-126 -297.5t-51 -369
q0 -91 26.5 -138t94.5 -47zM376 1333h500l-16 -82h-500z" />
    <glyph glyph-name="Abreve" unicode="&#x102;" horiz-adv-x="731" 
d="M555 0v530h-307l-221 -530h-105l606 1468h123v-1468h-96zM555 629v370l6 355q-15 -52 -52 -152t-226 -573h272zM833 1817q-22 -113 -74.5 -175.5t-149.5 -62.5q-81 0 -126.5 47t-45.5 133q0 38 5 58h67l-2 -15v-16q0 -62 31 -89.5t78 -27.5q54 0 88 34.5t59 113.5h70z
" />
    <glyph glyph-name="abreve" unicode="&#x103;" horiz-adv-x="817" 
d="M319 -20q-200 0 -200 282q0 209 62.5 414t162 317.5t217.5 112.5q134 0 174 -150h6l39 129h80l-229 -1085h-76l18 156h-4q-114 -176 -250 -176zM338 63q90 0 168 104t132 304t54 377q0 83 -35.5 125.5t-99.5 42.5q-88 0 -163 -101.5t-126 -297.5t-51 -369
q0 -91 26.5 -138t94.5 -47zM829 1479q-22 -113 -74.5 -175.5t-149.5 -62.5q-81 0 -126.5 47t-45.5 133q0 38 5 58h67l-2 -15v-16q0 -62 31 -89.5t78 -27.5q54 0 88 34.5t59 113.5h70z" />
    <glyph glyph-name="Aogonek" unicode="&#x104;" horiz-adv-x="731" 
d="M555 0v530h-307l-221 -530h-105l606 1468h123v-1468h-96zM555 629v370l6 355q-15 -52 -52 -152t-226 -573h272zM465 -289q0 -80 71 -80q31 0 68 11l-16 -72q-37 -16 -93 -16q-63 0 -96 39.5t-33 101.5q0 77 43.5 149.5t153.5 155.5h74q-172 -151 -172 -289z" />
    <glyph glyph-name="aogonek" unicode="&#x105;" horiz-adv-x="817" 
d="M319 -20q-200 0 -200 282q0 209 62.5 414t162 317.5t217.5 112.5q134 0 174 -150h6l39 129h80l-229 -1085h-76l18 156h-4q-114 -176 -250 -176zM338 63q90 0 168 104t132 304t54 377q0 83 -35.5 125.5t-99.5 42.5q-88 0 -163 -101.5t-126 -297.5t-51 -369
q0 -91 26.5 -138t94.5 -47zM453 -289q0 -80 71 -80q31 0 68 11l-16 -72q-37 -16 -93 -16q-63 0 -96 39.5t-33 101.5q0 77 43.5 149.5t153.5 155.5h74q-172 -151 -172 -289z" />
    <glyph glyph-name="Cacute" unicode="&#x106;" horiz-adv-x="727" 
d="M739 1389q-130 0 -245.5 -129t-188 -355.5t-72.5 -437.5q0 -204 51.5 -299.5t172.5 -95.5q76 0 172 39v-95q-94 -36 -187 -36q-153 0 -230 115.5t-77 353.5q0 256 85.5 504.5t226 390t303.5 141.5q122 0 196 -62l-61 -86q-60 52 -146 52zM586 1579v16q154 186 223 312
h139v-17q-42 -63 -136 -156t-175 -155h-51z" />
    <glyph glyph-name="cacute" unicode="&#x107;" horiz-adv-x="588" 
d="M358 -20q-116 0 -177.5 80t-61.5 231q0 217 63 413.5t163 299t224 102.5q86 0 144 -33l-39 -86q-53 29 -113 29q-92 0 -168.5 -97t-126 -277t-49.5 -353q0 -223 160 -223q63 0 143 40v-86q-75 -40 -162 -40zM442 1241v16q154 186 223 312h139v-17q-42 -63 -136 -156
t-175 -155h-51z" />
    <glyph glyph-name="Ccircumflex" unicode="&#x108;" horiz-adv-x="727" 
d="M739 1389q-130 0 -245.5 -129t-188 -355.5t-72.5 -437.5q0 -204 51.5 -299.5t172.5 -95.5q76 0 172 39v-95q-94 -36 -187 -36q-153 0 -230 115.5t-77 353.5q0 256 85.5 504.5t226 390t303.5 141.5q122 0 196 -62l-61 -86q-60 52 -146 52zM893 1579q-59 88 -125 203
q-132 -132 -219 -203h-45l4 19q160 182 239 309h86q11 -51 47.5 -150.5t63.5 -158.5l-4 -19h-47z" />
    <glyph glyph-name="ccircumflex" unicode="&#x109;" horiz-adv-x="588" 
d="M358 -20q-116 0 -177.5 80t-61.5 231q0 217 63 413.5t163 299t224 102.5q86 0 144 -33l-39 -86q-53 29 -113 29q-92 0 -168.5 -97t-126 -277t-49.5 -353q0 -223 160 -223q63 0 143 40v-86q-75 -40 -162 -40zM708 1241q-59 88 -125 203q-132 -132 -219 -203h-45l4 19
q160 182 239 309h86q11 -51 47.5 -150.5t63.5 -158.5l-4 -19h-47z" />
    <glyph glyph-name="Cdot" unicode="&#x10a;" horiz-adv-x="727" 
d="M739 1389q-130 0 -245.5 -129t-188 -355.5t-72.5 -437.5q0 -204 51.5 -299.5t172.5 -95.5q76 0 172 39v-95q-94 -36 -187 -36q-153 0 -230 115.5t-77 353.5q0 256 85.5 504.5t226 390t303.5 141.5q122 0 196 -62l-61 -86q-60 52 -146 52zM727 1704q0 51 23 88t59 37
q47 0 47 -58q0 -57 -22 -94t-58 -37q-49 0 -49 64z" />
    <glyph glyph-name="cdot" unicode="&#x10b;" horiz-adv-x="588" 
d="M358 -20q-116 0 -177.5 80t-61.5 231q0 217 63 413.5t163 299t224 102.5q86 0 144 -33l-39 -86q-53 29 -113 29q-92 0 -168.5 -97t-126 -277t-49.5 -353q0 -223 160 -223q63 0 143 40v-86q-75 -40 -162 -40zM538 1356q0 51 23 88t59 37q47 0 47 -58q0 -57 -22 -94
t-58 -37q-49 0 -49 64z" />
    <glyph glyph-name="Ccaron" unicode="&#x10c;" horiz-adv-x="727" 
d="M739 1389q-130 0 -245.5 -129t-188 -355.5t-72.5 -437.5q0 -204 51.5 -299.5t172.5 -95.5q76 0 172 39v-95q-94 -36 -187 -36q-153 0 -230 115.5t-77 353.5q0 256 85.5 504.5t226 390t303.5 141.5q122 0 196 -62l-61 -86q-60 52 -146 52zM663 1907q32 -48 125 -203
q135 135 220 203h45l-4 -19q-55 -60 -130 -156t-110 -153h-86q-12 52 -46.5 148t-64.5 161l4 19h47z" />
    <glyph glyph-name="ccaron" unicode="&#x10d;" horiz-adv-x="588" 
d="M358 -20q-116 0 -177.5 80t-61.5 231q0 217 63 413.5t163 299t224 102.5q86 0 144 -33l-39 -86q-53 29 -113 29q-92 0 -168.5 -97t-126 -277t-49.5 -353q0 -223 160 -223q63 0 143 40v-86q-75 -40 -162 -40zM467 1569q32 -48 125 -203q135 135 220 203h45l-4 -19
q-55 -60 -130 -156t-110 -153h-86q-12 52 -46.5 148t-64.5 161l4 19h47z" />
    <glyph glyph-name="Dcaron" unicode="&#x10e;" horiz-adv-x="895" 
d="M913 1047q0 -300 -82.5 -544.5t-230 -373.5t-344.5 -129h-190l309 1462h217q154 0 237.5 -105t83.5 -310zM276 94q151 0 270.5 116t191 345t71.5 492q0 319 -231 319h-123l-271 -1272h92zM538 1907q32 -48 125 -203q135 135 220 203h45l-4 -19q-55 -60 -130 -156
t-110 -153h-86q-12 52 -46.5 148t-64.5 161l4 19h47z" />
    <glyph glyph-name="dcaron" unicode="&#x10f;" horiz-adv-x="817" 
d="M319 -20q-200 0 -200 282q0 209 62.5 414t162 317.5t217.5 112.5q69 0 115.5 -42t58.5 -110h6l125 602h95l-330 -1556h-76l18 156h-4q-114 -176 -250 -176zM338 63q90 0 168 102.5t132 300t54 378.5q0 85 -32 128.5t-103 43.5q-88 0 -163 -101.5t-126 -297.5t-51 -369
q0 -91 26.5 -138t94.5 -47zM1024 1245q82 204 114 311h107v-20q-23 -60 -82 -159.5t-99 -147.5h-40v16z" />
    <glyph glyph-name="Dcroat" unicode="&#x110;" horiz-adv-x="895" 
d="M913 1047q0 -300 -82.5 -544.5t-230 -373.5t-344.5 -129h-190l149 715h-88l18 92h88l142 655h217q154 0 237.5 -105t83.5 -310zM276 94q151 0 270.5 116t191 345t71.5 492q0 319 -231 319h-123l-121 -559h190l-18 -92h-193l-129 -621h92z" />
    <glyph glyph-name="dcroat" unicode="&#x111;" horiz-adv-x="817" 
d="M319 -20q-200 0 -200 282q0 209 62.5 414t162 317.5t217.5 112.5q69 0 115.5 -42t58.5 -110h6l66 324h-213l18 84h213l41 194h95l-43 -194h122l-18 -84h-121l-270 -1278h-76l18 156h-4q-114 -176 -250 -176zM338 63q90 0 168 102.5t132 300t54 378.5q0 85 -32 128.5
t-103 43.5q-88 0 -163 -101.5t-126 -297.5t-51 -369q0 -91 26.5 -138t94.5 -47z" />
    <glyph glyph-name="Emacron" unicode="&#x112;" horiz-adv-x="709" 
d="M543 0h-477l309 1462h477l-21 -96h-376l-117 -553h354l-20 -94h-355l-133 -625h377zM401 1671h500l-16 -82h-500z" />
    <glyph glyph-name="emacron" unicode="&#x113;" horiz-adv-x="723" 
d="M373 -20q-120 0 -187 83.5t-67 233.5q0 214 60.5 401.5t164 297.5t217.5 110q87 0 134.5 -50.5t47.5 -152.5q0 -123 -59.5 -215t-170 -137t-263.5 -45h-12q-21 -99 -21 -199q0 -241 184 -241q47 0 88.5 13t94.5 44v-96q-84 -47 -211 -47zM545 1018q-89 0 -169 -118
t-126 -312q399 0 399 317q0 53 -22.5 83t-81.5 30zM357 1333h500l-16 -82h-500z" />
    <glyph glyph-name="Ebreve" unicode="&#x114;" horiz-adv-x="709" 
d="M543 0h-477l309 1462h477l-21 -96h-376l-117 -553h354l-20 -94h-355l-133 -625h377zM861 1817q-22 -113 -74.5 -175.5t-149.5 -62.5q-81 0 -126.5 47t-45.5 133q0 38 5 58h67l-2 -15v-16q0 -62 31 -89.5t78 -27.5q54 0 88 34.5t59 113.5h70z" />
    <glyph glyph-name="ebreve" unicode="&#x115;" horiz-adv-x="723" 
d="M373 -20q-120 0 -187 83.5t-67 233.5q0 214 60.5 401.5t164 297.5t217.5 110q87 0 134.5 -50.5t47.5 -152.5q0 -123 -59.5 -215t-170 -137t-263.5 -45h-12q-21 -99 -21 -199q0 -241 184 -241q47 0 88.5 13t94.5 44v-96q-84 -47 -211 -47zM545 1018q-89 0 -169 -118
t-126 -312q399 0 399 317q0 53 -22.5 83t-81.5 30zM839 1479q-22 -113 -74.5 -175.5t-149.5 -62.5q-81 0 -126.5 47t-45.5 133q0 38 5 58h67l-2 -15v-16q0 -62 31 -89.5t78 -27.5q54 0 88 34.5t59 113.5h70z" />
    <glyph glyph-name="Edotaccent" unicode="&#x116;" horiz-adv-x="709" 
d="M543 0h-477l309 1462h477l-21 -96h-376l-117 -553h354l-20 -94h-355l-133 -625h377zM604 1665q0 51 23 88t59 37q47 0 47 -58q0 -57 -22 -94t-58 -37q-49 0 -49 64z" />
    <glyph glyph-name="edotaccent" unicode="&#x117;" horiz-adv-x="723" 
d="M373 -20q-120 0 -187 83.5t-67 233.5q0 214 60.5 401.5t164 297.5t217.5 110q87 0 134.5 -50.5t47.5 -152.5q0 -123 -59.5 -215t-170 -137t-263.5 -45h-12q-21 -99 -21 -199q0 -241 184 -241q47 0 88.5 13t94.5 44v-96q-84 -47 -211 -47zM545 1018q-89 0 -169 -118
t-126 -312q399 0 399 317q0 53 -22.5 83t-81.5 30zM577 1356q0 51 23 88t59 37q47 0 47 -58q0 -57 -22 -94t-58 -37q-49 0 -49 64z" />
    <glyph glyph-name="Eogonek" unicode="&#x118;" horiz-adv-x="709" 
d="M543 0h-477l309 1462h477l-21 -96h-376l-117 -553h354l-20 -94h-355l-133 -625h377zM299 -289q0 -80 71 -80q31 0 68 11l-16 -72q-37 -16 -93 -16q-63 0 -96 39.5t-33 101.5q0 77 43.5 149.5t153.5 155.5h74q-172 -151 -172 -289z" />
    <glyph glyph-name="eogonek" unicode="&#x119;" horiz-adv-x="723" 
d="M373 -20q-120 0 -187 83.5t-67 233.5q0 214 60.5 401.5t164 297.5t217.5 110q87 0 134.5 -50.5t47.5 -152.5q0 -123 -59.5 -215t-170 -137t-263.5 -45h-12q-21 -99 -21 -199q0 -241 184 -241q47 0 88.5 13t94.5 44v-96q-84 -47 -211 -47zM545 1018q-89 0 -169 -118
t-126 -312q399 0 399 317q0 53 -22.5 83t-81.5 30zM412 -254q0 -80 71 -80q31 0 68 11l-16 -72q-37 -16 -93 -16q-63 0 -96 39.5t-33 101.5q0 77 43.5 149.5t153.5 155.5h74q-172 -151 -172 -289z" />
    <glyph glyph-name="Ecaron" unicode="&#x11a;" horiz-adv-x="709" 
d="M543 0h-477l309 1462h477l-21 -96h-376l-117 -553h354l-20 -94h-355l-133 -625h377zM521 1907q32 -48 125 -203q135 135 220 203h45l-4 -19q-55 -60 -130 -156t-110 -153h-86q-12 52 -46.5 148t-64.5 161l4 19h47z" />
    <glyph glyph-name="ecaron" unicode="&#x11b;" horiz-adv-x="723" 
d="M373 -20q-120 0 -187 83.5t-67 233.5q0 214 60.5 401.5t164 297.5t217.5 110q87 0 134.5 -50.5t47.5 -152.5q0 -123 -59.5 -215t-170 -137t-263.5 -45h-12q-21 -99 -21 -199q0 -241 184 -241q47 0 88.5 13t94.5 44v-96q-84 -47 -211 -47zM545 1018q-89 0 -169 -118
t-126 -312q399 0 399 317q0 53 -22.5 83t-81.5 30zM480 1569q32 -48 125 -203q135 135 220 203h45l-4 -19q-55 -60 -130 -156t-110 -153h-86q-12 52 -46.5 148t-64.5 161l4 19h47z" />
    <glyph glyph-name="Gcircumflex" unicode="&#x11c;" horiz-adv-x="967" 
d="M645 741h295l-152 -708q-137 -53 -288 -53q-365 0 -365 458q0 184 51 389t138.5 357t199 226.5t240.5 74.5q170 0 301 -94l-64 -88q-68 50 -124.5 68t-118.5 18q-111 0 -204.5 -72t-165 -208.5t-113.5 -321t-42 -355.5q0 -191 68.5 -275.5t208.5 -84.5q100 0 192 28
l117 547h-194zM944 1579q-59 88 -125 203q-132 -132 -219 -203h-45l4 19q160 182 239 309h86q11 -51 47.5 -150.5t63.5 -158.5l-4 -19h-47z" />
    <glyph glyph-name="gcircumflex" unicode="&#x11d;" horiz-adv-x="668" 
d="M821 1085l-14 -67l-137 -17q30 -57 30 -143q0 -109 -44.5 -224.5t-118 -181t-162.5 -65.5h-25l-22 2q-125 -87 -125 -158q0 -23 8 -37.5t25 -24t118 -40.5q126 -39 177 -98.5t51 -159.5q0 -161 -106 -262t-273 -101q-132 0 -204.5 67t-72.5 189q0 105 65 191.5t185 140.5
q-63 42 -63 113q0 52 32 101t115 108q-86 72 -86 209q0 123 49.5 240.5t125 178t167.5 60.5q64 0 98 -21h207zM16 -229q0 -98 49.5 -141.5t145.5 -43.5q122 0 202.5 74t80.5 193q0 64 -40.5 111t-123.5 71l-90 24q-96 -32 -160 -113t-64 -175zM266 612q0 -74 28.5 -112.5
t82.5 -38.5q62 0 112.5 52.5t83.5 158t33 202.5q0 154 -108 154q-61 0 -112.5 -56t-85.5 -164.5t-34 -195.5zM714 1241q-59 88 -125 203q-132 -132 -219 -203h-45l4 19q160 182 239 309h86q11 -51 47.5 -150.5t63.5 -158.5l-4 -19h-47z" />
    <glyph glyph-name="Gbreve" unicode="&#x11e;" horiz-adv-x="967" 
d="M645 741h295l-152 -708q-137 -53 -288 -53q-365 0 -365 458q0 184 51 389t138.5 357t199 226.5t240.5 74.5q170 0 301 -94l-64 -88q-68 50 -124.5 68t-118.5 18q-111 0 -204.5 -72t-165 -208.5t-113.5 -321t-42 -355.5q0 -191 68.5 -275.5t208.5 -84.5q100 0 192 28
l117 547h-194zM1020 1817q-22 -113 -74.5 -175.5t-149.5 -62.5q-81 0 -126.5 47t-45.5 133q0 38 5 58h67l-2 -15v-16q0 -62 31 -89.5t78 -27.5q54 0 88 34.5t59 113.5h70z" />
    <glyph glyph-name="gbreve" unicode="&#x11f;" horiz-adv-x="668" 
d="M821 1085l-14 -67l-137 -17q30 -57 30 -143q0 -109 -44.5 -224.5t-118 -181t-162.5 -65.5h-25l-22 2q-125 -87 -125 -158q0 -23 8 -37.5t25 -24t118 -40.5q126 -39 177 -98.5t51 -159.5q0 -161 -106 -262t-273 -101q-132 0 -204.5 67t-72.5 189q0 105 65 191.5t185 140.5
q-63 42 -63 113q0 52 32 101t115 108q-86 72 -86 209q0 123 49.5 240.5t125 178t167.5 60.5q64 0 98 -21h207zM16 -229q0 -98 49.5 -141.5t145.5 -43.5q122 0 202.5 74t80.5 193q0 64 -40.5 111t-123.5 71l-90 24q-96 -32 -160 -113t-64 -175zM266 612q0 -74 28.5 -112.5
t82.5 -38.5q62 0 112.5 52.5t83.5 158t33 202.5q0 154 -108 154q-61 0 -112.5 -56t-85.5 -164.5t-34 -195.5zM782 1479q-22 -113 -74.5 -175.5t-149.5 -62.5q-81 0 -126.5 47t-45.5 133q0 38 5 58h67l-2 -15v-16q0 -62 31 -89.5t78 -27.5q54 0 88 34.5t59 113.5h70z" />
    <glyph glyph-name="Gdot" unicode="&#x120;" horiz-adv-x="967" 
d="M645 741h295l-152 -708q-137 -53 -288 -53q-365 0 -365 458q0 184 51 389t138.5 357t199 226.5t240.5 74.5q170 0 301 -94l-64 -88q-68 50 -124.5 68t-118.5 18q-111 0 -204.5 -72t-165 -208.5t-113.5 -321t-42 -355.5q0 -191 68.5 -275.5t208.5 -84.5q100 0 192 28
l117 547h-194zM770 1694q0 51 23 88t59 37q47 0 47 -58q0 -57 -22 -94t-58 -37q-49 0 -49 64z" />
    <glyph glyph-name="gdot" unicode="&#x121;" horiz-adv-x="668" 
d="M821 1085l-14 -67l-137 -17q30 -57 30 -143q0 -109 -44.5 -224.5t-118 -181t-162.5 -65.5h-25l-22 2q-125 -87 -125 -158q0 -23 8 -37.5t25 -24t118 -40.5q126 -39 177 -98.5t51 -159.5q0 -161 -106 -262t-273 -101q-132 0 -204.5 67t-72.5 189q0 105 65 191.5t185 140.5
q-63 42 -63 113q0 52 32 101t115 108q-86 72 -86 209q0 123 49.5 240.5t125 178t167.5 60.5q64 0 98 -21h207zM16 -229q0 -98 49.5 -141.5t145.5 -43.5q122 0 202.5 74t80.5 193q0 64 -40.5 111t-123.5 71l-90 24q-96 -32 -160 -113t-64 -175zM266 612q0 -74 28.5 -112.5
t82.5 -38.5q62 0 112.5 52.5t83.5 158t33 202.5q0 154 -108 154q-61 0 -112.5 -56t-85.5 -164.5t-34 -195.5zM522 1356q0 51 23 88t59 37q47 0 47 -58q0 -57 -22 -94t-58 -37q-49 0 -49 64z" />
    <glyph glyph-name="Gcommaaccent" unicode="&#x122;" horiz-adv-x="967" 
d="M645 741h295l-152 -708q-137 -53 -288 -53q-365 0 -365 458q0 184 51 389t138.5 357t199 226.5t240.5 74.5q170 0 301 -94l-64 -88q-68 50 -124.5 68t-118.5 18q-111 0 -204.5 -72t-165 -208.5t-113.5 -321t-42 -355.5q0 -191 68.5 -275.5t208.5 -84.5q100 0 192 28
l117 547h-194zM290 -422q36 48 84.5 138t71.5 159h105v-22q-10 -43 -81 -148.5t-137 -157.5h-43v31z" />
    <glyph glyph-name="gcommaaccent" unicode="&#x123;" horiz-adv-x="668" 
d="M821 1085l-14 -67l-137 -17q30 -57 30 -143q0 -109 -44.5 -224.5t-118 -181t-162.5 -65.5h-25l-22 2q-125 -87 -125 -158q0 -23 8 -37.5t25 -24t118 -40.5q126 -39 177 -98.5t51 -159.5q0 -161 -106 -262t-273 -101q-132 0 -204.5 67t-72.5 189q0 105 65 191.5t185 140.5
q-63 42 -63 113q0 52 32 101t115 108q-86 72 -86 209q0 123 49.5 240.5t125 178t167.5 60.5q64 0 98 -21h207zM16 -229q0 -98 49.5 -141.5t145.5 -43.5q122 0 202.5 74t80.5 193q0 64 -40.5 111t-123.5 71l-90 24q-96 -32 -160 -113t-64 -175zM266 612q0 -74 28.5 -112.5
t82.5 -38.5q62 0 112.5 52.5t83.5 158t33 202.5q0 154 -108 154q-61 0 -112.5 -56t-85.5 -164.5t-34 -195.5zM770 1550q-30 -35 -83.5 -139.5t-75.5 -169.5h-99v21q24 64 92 163t123 144h43v-19z" />
    <glyph glyph-name="Hcircumflex" unicode="&#x124;" horiz-adv-x="924" 
d="M702 0h-98l152 717h-441l-151 -717h-98l309 1462h98l-137 -647h440l137 647h99zM877 1579q-59 88 -125 203q-132 -132 -219 -203h-45l4 19q160 182 239 309h86q11 -51 47.5 -150.5t63.5 -158.5l-4 -19h-47z" />
    <glyph glyph-name="hcircumflex" unicode="&#x125;" horiz-adv-x="784" 
d="M504 0l172 815q10 40 10 84q0 113 -100 113q-105 0 -176 -101t-115 -315l-127 -596h-94l329 1556h95l-99 -454l-41 -168h4q93 172 242 172q84 0 130 -48.5t46 -139.5q0 -56 -14 -121l-168 -797h-94zM819 1634q-59 88 -125 203q-132 -132 -219 -203h-45l4 19
q160 182 239 309h86q11 -51 47.5 -150.5t63.5 -158.5l-4 -19h-47z" />
    <glyph glyph-name="Hbar" unicode="&#x126;" horiz-adv-x="924" 
d="M702 0h-100l152 717h-439l-151 -717h-98l229 1087h-143l20 97h143l60 278h98l-59 -278h438l59 278h101l-60 -278h144l-21 -97h-143zM774 815l57 272h-438l-57 -272h438z" />
    <glyph glyph-name="hbar" unicode="&#x127;" horiz-adv-x="782" 
d="M504 0l172 815q10 40 10 84q0 113 -100 113q-105 0 -176 -101t-115 -315l-127 -596h-94l270 1278h-131l16 84h131l43 194h95l-43 -194h200l-16 -84h-203l-37 -176l-41 -168h4q93 172 242 172q84 0 130 -48.5t46 -139.5q0 -56 -14 -121l-168 -797h-94z" />
    <glyph glyph-name="Itilde.alt" horiz-adv-x="424" 
d="M293 0h-316l15 76l110 14l273 1280l-107 16l17 76h317l-16 -76l-113 -16l-272 -1280l106 -14zM599 1589q-35 0 -64.5 20.5t-57 45t-53 45t-50.5 20.5q-40 0 -62.5 -35t-39.5 -98h-70q31 120 75.5 175t104.5 55q36 0 65 -20.5t54.5 -45t49.5 -45t48 -20.5q30 0 47.5 22.5
t40.5 112.5h70q-29 -134 -65.5 -183t-92.5 -49z" />
    <glyph glyph-name="itilde" unicode="&#x129;" horiz-adv-x="348" 
d="M162 0h-94l231 1085h94zM504 1251q-35 0 -64.5 20.5t-57 45t-53 45t-50.5 20.5q-40 0 -62.5 -35t-39.5 -98h-70q31 120 75.5 175t104.5 55q36 0 65 -20.5t54.5 -45t49.5 -45t48 -20.5q30 0 47.5 22.5t40.5 112.5h70q-29 -134 -65.5 -183t-92.5 -49z" />
    <glyph glyph-name="Imacron.alt" horiz-adv-x="424" 
d="M293 0h-316l15 76l110 14l273 1280l-107 16l17 76h317l-16 -76l-113 -16l-272 -1280l106 -14zM224 1671h500l-16 -82h-500z" />
    <glyph glyph-name="imacron" unicode="&#x12b;" horiz-adv-x="348" 
d="M162 0h-94l231 1085h94zM126 1333h500l-16 -82h-500z" />
    <glyph glyph-name="Ibreve.alt" horiz-adv-x="424" 
d="M293 0h-316l15 76l110 14l273 1280l-107 16l17 76h317l-16 -76l-113 -16l-272 -1280l106 -14zM696 1817q-22 -113 -74.5 -175.5t-149.5 -62.5q-81 0 -126.5 47t-45.5 133q0 38 5 58h67l-2 -15v-16q0 -62 31 -89.5t78 -27.5q54 0 88 34.5t59 113.5h70z" />
    <glyph glyph-name="ibreve" unicode="&#x12d;" horiz-adv-x="348" 
d="M162 0h-94l231 1085h94zM601 1479q-22 -113 -74.5 -175.5t-149.5 -62.5q-81 0 -126.5 47t-45.5 133q0 38 5 58h67l-2 -15v-16q0 -62 31 -89.5t78 -27.5q54 0 88 34.5t59 113.5h70z" />
    <glyph glyph-name="Iogonek.alt" horiz-adv-x="424" 
d="M293 0h-316l15 76l110 14l273 1280l-107 16l17 76h317l-16 -76l-113 -16l-272 -1280l106 -14zM32 -289q0 -80 71 -80q31 0 68 11l-16 -72q-37 -16 -93 -16q-63 0 -96 39.5t-33 101.5q0 77 43.5 149.5t153.5 155.5h74q-172 -151 -172 -289z" />
    <glyph glyph-name="iogonek" unicode="&#x12f;" horiz-adv-x="348" 
d="M162 0h-94l231 1085h94zM346 1356q0 51 23 88t59 37q47 0 47 -58q0 -57 -22 -94t-58 -37q-49 0 -49 64zM-19 -289q0 -80 71 -80q31 0 68 11l-16 -72q-37 -16 -93 -16q-63 0 -96 39.5t-33 101.5q0 77 43.5 149.5t153.5 155.5h74q-172 -151 -172 -289z" />
    <glyph glyph-name="Idotaccent.alt" horiz-adv-x="424" 
d="M293 0h-316l15 76l110 14l273 1280l-107 16l17 76h317l-16 -76l-113 -16l-272 -1280l106 -14zM432 1694q0 51 23 88t59 37q47 0 47 -58q0 -57 -22 -94t-58 -37q-49 0 -49 64z" />
    <glyph glyph-name="dotlessi" unicode="&#x131;" horiz-adv-x="348" 
d="M162 0h-94l231 1085h94z" />
    <glyph glyph-name="IJ.alt" horiz-adv-x="764" 
d="M293 0h-316l15 76l110 14l273 1280l-107 16l17 76h317l-16 -76l-113 -16l-272 -1280l106 -14zM290 -369q-70 0 -114 25l28 92q42 -20 90 -20q68 0 105 55t63 182l318 1497h98l-321 -1519q-34 -161 -98 -236.5t-169 -75.5z" />
    <glyph glyph-name="ij" unicode="&#x133;" horiz-adv-x="692" 
d="M162 0h-94l231 1085h94zM346 1356q0 51 23 88t59 37q47 0 47 -58q0 -57 -22 -94t-58 -37q-49 0 -49 64zM690 1356q0 51 23 88t59 37q47 0 47 -58q0 -57 -22 -94t-58 -37q-49 0 -49 64zM643 1085h94l-254 -1191q-34 -160 -65 -238t-73.5 -113t-117.5 -35q-51 0 -88 11v92
q37 -12 84 -12t73 26.5t47.5 88.5t47.5 186z" />
    <glyph glyph-name="Jcircumflex" unicode="&#x134;" horiz-adv-x="360" 
d="M-113 -369q-70 0 -114 25l28 92q42 -20 90 -20q68 0 105 55t63 182l318 1497h98l-321 -1519q-34 -161 -98 -236.5t-169 -75.5zM603 1579q-59 88 -125 203q-132 -132 -219 -203h-45l4 19q160 182 239 309h86q11 -51 47.5 -150.5t63.5 -158.5l-4 -19h-47z" />
    <glyph glyph-name="jcircumflex" unicode="&#x135;" horiz-adv-x="348" 
d="M299 1085h94l-254 -1191q-34 -160 -65 -238t-73.5 -113t-117.5 -35q-51 0 -88 11v92q37 -12 84 -12t73 26.5t47.5 88.5t47.5 186zM530 1241q-59 88 -125 203q-132 -132 -219 -203h-45l4 19q160 182 239 309h86q11 -51 47.5 -150.5t63.5 -158.5l-4 -19h-47z" />
    <glyph glyph-name="Kcommaaccent" unicode="&#x136;" horiz-adv-x="743" 
d="M666 0h-101l-149 709l-129 -129l-123 -580h-98l309 1462h98l-164 -774l123 180l416 594h100l-452 -667zM144 -422q36 48 84.5 138t71.5 159h105v-22q-10 -43 -81 -148.5t-137 -157.5h-43v31z" />
    <glyph glyph-name="kcommaaccent" unicode="&#x137;" horiz-adv-x="639" 
d="M276 549l48 59l82 105l270 372h102l-307 -430l96 -655h-98l-84 573l-127 -139l-92 -434h-94l331 1556h95l-179 -817q-8 -40 -45 -190h2zM99 -422q36 48 84.5 138t71.5 159h105v-22q-10 -43 -81 -148.5t-137 -157.5h-43v31z" />
    <glyph glyph-name="kgreenlandic" unicode="&#x138;" horiz-adv-x="649" 
d="M276 539q115 153 400 546h102l-307 -430l96 -655h-98l-80 575l-133 -151l-90 -424h-94l231 1085h92l-76 -346l-47 -200h4z" />
    <glyph glyph-name="Lacute" unicode="&#x139;" horiz-adv-x="639" 
d="M66 0l309 1462h98l-289 -1368h359l-19 -94h-458zM415 1579v16q154 186 223 312h139v-17q-42 -63 -136 -156t-175 -155h-51z" />
    <glyph glyph-name="lacute" unicode="&#x13a;" horiz-adv-x="346" 
d="M166 0h-94l331 1556h95zM403 1636v16q154 186 223 312h139v-17q-42 -63 -136 -156t-175 -155h-51z" />
    <glyph glyph-name="Lcommaaccent" unicode="&#x13b;" horiz-adv-x="639" 
d="M66 0l309 1462h98l-289 -1368h359l-19 -94h-458zM50 -422q36 48 84.5 138t71.5 159h105v-22q-10 -43 -81 -148.5t-137 -157.5h-43v31z" />
    <glyph glyph-name="lcommaaccent" unicode="&#x13c;" horiz-adv-x="346" 
d="M166 0h-94l331 1556h95zM-108 -422q36 48 84.5 138t71.5 159h105v-22q-10 -43 -81 -148.5t-137 -157.5h-43v31z" />
    <glyph glyph-name="Lcaron" unicode="&#x13d;" horiz-adv-x="639" 
d="M66 0l309 1462h98l-289 -1368h359l-19 -94h-458zM580 1152q82 204 114 311h107v-20q-23 -60 -82 -159.5t-99 -147.5h-40v16z" />
    <glyph glyph-name="lcaron" unicode="&#x13e;" horiz-adv-x="346" 
d="M166 0h-94l331 1556h95zM535 1245q82 204 114 311h107v-20q-23 -60 -82 -159.5t-99 -147.5h-40v16z" />
    <glyph glyph-name="Ldot" unicode="&#x13f;" horiz-adv-x="639" 
d="M66 0l309 1462h98l-289 -1368h359l-19 -94h-458zM483 718q0 51 23 88t59 37q47 0 47 -58q0 -57 -22 -94t-58 -37q-49 0 -49 64z" />
    <glyph glyph-name="ldot" unicode="&#x140;" horiz-adv-x="494" 
d="M166 0h-94l331 1556h95zM436 644q0 51 23 88t59 37q47 0 47 -58q0 -57 -22 -94t-58 -37q-49 0 -49 64z" />
    <glyph glyph-name="Lslash" unicode="&#x141;" horiz-adv-x="639" 
d="M66 0l116 551l-131 -76l-35 76l189 108l170 803h98l-156 -737l226 131l37 -76l-287 -166l-109 -520h359l-19 -94h-458z" />
    <glyph glyph-name="lslash" unicode="&#x142;" horiz-adv-x="391" 
d="M346 850l172 113l41 -70l-235 -156l-158 -737h-94l141 666l-123 -80l-37 69l185 121l165 780h95z" />
    <glyph glyph-name="Nacute" unicode="&#x143;" horiz-adv-x="981" 
d="M760 0h-121l-201 1311h-8q-14 -115 -45 -262l-221 -1049h-98l309 1462h131l192 -1296h7l14 86l35 188l217 1022h98zM662 1579v16q154 186 223 312h139v-17q-42 -63 -136 -156t-175 -155h-51z" />
    <glyph glyph-name="nacute" unicode="&#x144;" horiz-adv-x="782" 
d="M502 0l172 815q10 40 10 84q0 113 -100 113q-105 0 -176 -101t-115 -315l-127 -596h-94l229 1085h80l-25 -151h4q93 172 242 172q84 0 130 -48.5t46 -139.5q0 -56 -14 -121l-168 -797h-94zM502 1241v16q154 186 223 312h139v-17q-42 -63 -136 -156t-175 -155h-51z" />
    <glyph glyph-name="Ncommaaccent" unicode="&#x145;" horiz-adv-x="981" 
d="M760 0h-121l-201 1311h-8q-14 -115 -45 -262l-221 -1049h-98l309 1462h131l192 -1296h7l14 86l35 188l217 1022h98zM179 -422q36 48 84.5 138t71.5 159h105v-22q-10 -43 -81 -148.5t-137 -157.5h-43v31z" />
    <glyph glyph-name="ncommaaccent" unicode="&#x146;" horiz-adv-x="782" 
d="M502 0l172 815q10 40 10 84q0 113 -100 113q-105 0 -176 -101t-115 -315l-127 -596h-94l229 1085h80l-25 -151h4q93 172 242 172q84 0 130 -48.5t46 -139.5q0 -56 -14 -121l-168 -797h-94zM107 -422q36 48 84.5 138t71.5 159h105v-22q-10 -43 -81 -148.5t-137 -157.5h-43
v31z" />
    <glyph glyph-name="Ncaron" unicode="&#x147;" horiz-adv-x="981" 
d="M760 0h-121l-201 1311h-8q-14 -115 -45 -262l-221 -1049h-98l309 1462h131l192 -1296h7l14 86l35 188l217 1022h98zM620 1907q32 -48 125 -203q135 135 220 203h45l-4 -19q-55 -60 -130 -156t-110 -153h-86q-12 52 -46.5 148t-64.5 161l4 19h47z" />
    <glyph glyph-name="ncaron" unicode="&#x148;" horiz-adv-x="782" 
d="M502 0l172 815q10 40 10 84q0 113 -100 113q-105 0 -176 -101t-115 -315l-127 -596h-94l229 1085h80l-25 -151h4q93 172 242 172q84 0 130 -48.5t46 -139.5q0 -56 -14 -121l-168 -797h-94zM463 1569q32 -48 125 -203q135 135 220 203h45l-4 -19q-55 -60 -130 -156
t-110 -153h-86q-12 52 -46.5 148t-64.5 161l4 19h47z" />
    <glyph glyph-name="napostrophe" unicode="&#x149;" horiz-adv-x="870" 
d="M588 0l172 815q10 40 10 84q0 113 -100 113q-105 0 -176 -101t-115 -315l-127 -596h-94l229 1085h80l-25 -151h4q93 172 242 172q84 0 130 -48.5t46 -139.5q0 -56 -14 -121l-168 -797h-94zM417 1440q-95 -202 -244 -447h-65q119 255 190 469h111z" />
    <glyph glyph-name="Eng" unicode="&#x14a;" horiz-adv-x="981" 
d="M477 -365q-27 0 -64 9t-48 20l20 96q39 -22 102 -22q65 0 103.5 57t54.5 180l-207 1336h-8q-14 -115 -45 -262l-221 -1049h-98l309 1462h131l192 -1290h7q10 68 34 194t232 1096h98l-309 -1462q-37 -167 -70 -236.5t-81.5 -99t-131.5 -29.5z" />
    <glyph glyph-name="eng" unicode="&#x14b;" horiz-adv-x="782" 
d="M684 899q0 113 -100 113q-105 0 -176 -101t-115 -315l-127 -596h-94l229 1085h80l-25 -151h4q93 172 242 172q84 0 130 -48.5t46 -139.5q0 -56 -14 -121l-191 -903q-34 -160 -65 -239t-73 -113t-118 -34q-51 0 -88 11v92q37 -12 84 -12t73 26.5t47.5 88.5t47.5 186
l193 915q10 44 10 84z" />
    <glyph glyph-name="Omacron" unicode="&#x14c;" horiz-adv-x="958" 
d="M412 -20q-277 0 -277 399q0 196 46 414t124.5 376.5t178.5 236t218 77.5q275 0 275 -383q0 -284 -80 -557t-207 -418t-278 -145zM233 377q0 -303 187 -303q92 0 173.5 80.5t144.5 230t102 349.5t39 366q0 289 -187 289q-91 0 -171.5 -73.5t-144.5 -220.5t-103.5 -350
t-39.5 -368zM489 1671h500l-16 -82h-500z" />
    <glyph glyph-name="omacron" unicode="&#x14d;" horiz-adv-x="780" 
d="M340 -20q-107 0 -164 80t-57 227q0 142 36 305t94 276.5t136 175.5t174 62q106 0 165.5 -82.5t59.5 -232.5q0 -139 -36.5 -298.5t-95.5 -274t-138 -176.5t-174 -62zM217 268q0 -202 135 -202q89 0 164 101.5t122.5 286.5t47.5 357q0 205 -139 205q-84 0 -157.5 -98
t-123 -286t-49.5 -364zM343 1333h500l-16 -82h-500z" />
    <glyph glyph-name="Obreve" unicode="&#x14e;" horiz-adv-x="958" 
d="M412 -20q-277 0 -277 399q0 196 46 414t124.5 376.5t178.5 236t218 77.5q275 0 275 -383q0 -284 -80 -557t-207 -418t-278 -145zM233 377q0 -303 187 -303q92 0 173.5 80.5t144.5 230t102 349.5t39 366q0 289 -187 289q-91 0 -171.5 -73.5t-144.5 -220.5t-103.5 -350
t-39.5 -368zM957 1817q-22 -113 -74.5 -175.5t-149.5 -62.5q-81 0 -126.5 47t-45.5 133q0 38 5 58h67l-2 -15v-16q0 -62 31 -89.5t78 -27.5q54 0 88 34.5t59 113.5h70z" />
    <glyph glyph-name="obreve" unicode="&#x14f;" horiz-adv-x="780" 
d="M340 -20q-107 0 -164 80t-57 227q0 142 36 305t94 276.5t136 175.5t174 62q106 0 165.5 -82.5t59.5 -232.5q0 -139 -36.5 -298.5t-95.5 -274t-138 -176.5t-174 -62zM217 268q0 -202 135 -202q89 0 164 101.5t122.5 286.5t47.5 357q0 205 -139 205q-84 0 -157.5 -98
t-123 -286t-49.5 -364zM823 1479q-22 -113 -74.5 -175.5t-149.5 -62.5q-81 0 -126.5 47t-45.5 133q0 38 5 58h67l-2 -15v-16q0 -62 31 -89.5t78 -27.5q54 0 88 34.5t59 113.5h70z" />
    <glyph glyph-name="Ohungarumlaut" unicode="&#x150;" horiz-adv-x="958" 
d="M412 -20q-277 0 -277 399q0 196 46 414t124.5 376.5t178.5 236t218 77.5q275 0 275 -383q0 -284 -80 -557t-207 -418t-278 -145zM233 377q0 -303 187 -303q92 0 173.5 80.5t144.5 230t102 349.5t39 366q0 289 -187 289q-91 0 -171.5 -73.5t-144.5 -220.5t-103.5 -350
t-39.5 -368zM506 1579l4 19q147 178 219 309h140l-3 -17q-44 -67 -137 -158.5t-172 -152.5h-51zM780 1579l5 19q147 178 219 309h139l-2 -17q-47 -67 -137.5 -157.5t-171.5 -153.5h-52z" />
    <glyph glyph-name="ohungarumlaut" unicode="&#x151;" horiz-adv-x="780" 
d="M340 -20q-107 0 -164 80t-57 227q0 142 36 305t94 276.5t136 175.5t174 62q106 0 165.5 -82.5t59.5 -232.5q0 -139 -36.5 -298.5t-95.5 -274t-138 -176.5t-174 -62zM217 268q0 -202 135 -202q89 0 164 101.5t122.5 286.5t47.5 357q0 205 -139 205q-84 0 -157.5 -98
t-123 -286t-49.5 -364zM399 1241l4 19q147 178 219 309h140l-3 -17q-44 -67 -137 -158.5t-172 -152.5h-51zM673 1241l5 19q147 178 219 309h139l-2 -17q-47 -67 -137.5 -157.5t-171.5 -153.5h-52z" />
    <glyph glyph-name="OE" unicode="&#x152;" horiz-adv-x="1104" 
d="M938 0h-348l-152 -6q-144 0 -223.5 104t-79.5 297q0 257 76 523.5t204.5 408t291.5 141.5l188 -6h352l-20 -96h-377l-117 -553h354l-20 -94h-354l-133 -625h376zM750 1372l-30 2h-30q-96 0 -177 -76.5t-141.5 -213t-99.5 -329.5t-39 -362q0 -167 59 -237t187 -70z" />
    <glyph glyph-name="oe" unicode="&#x153;" horiz-adv-x="1227" 
d="M340 -20q-107 0 -164 80t-57 227q0 142 36 305t94 276.5t136 175.5t174 62q182 0 197 -264q59 124 139.5 194t173.5 70q87 0 134.5 -50.5t47.5 -152.5q0 -123 -59.5 -215t-170 -137t-263.5 -45h-13q-20 -104 -20 -199q0 -241 184 -241q49 0 92 12t97 43v-86
q-96 -55 -213 -55q-213 0 -240 251q-112 -251 -305 -251zM217 268q0 -202 135 -202q89 0 164 101.5t122.5 286.5t47.5 357q0 205 -139 205q-84 0 -157.5 -98t-123 -286t-49.5 -364zM1053 1018q-89 0 -169 -118t-126 -312q399 0 399 317q0 53 -23 83t-81 30z" />
    <glyph glyph-name="Racute" unicode="&#x154;" horiz-adv-x="795" 
d="M299 639l-135 -639h-98l309 1462h180q140 0 220.5 -82t80.5 -227q0 -120 -38.5 -228t-109.5 -179t-161 -89l121 -657h-107l-117 639h-145zM317 729h105q157 0 244.5 108.5t87.5 307.5q0 107 -58.5 164t-165.5 57h-77zM547 1579v16q154 186 223 312h139v-17
q-42 -63 -136 -156t-175 -155h-51z" />
    <glyph glyph-name="racute" unicode="&#x155;" horiz-adv-x="504" 
d="M582 1106q39 0 73 -12l-26 -97q-30 15 -66 15q-85 0 -158 -117t-116 -320l-123 -575h-94l229 1085h70l-29 -190h4q88 211 236 211zM417 1241v16q154 186 223 312h139v-17q-42 -63 -136 -156t-175 -155h-51z" />
    <glyph glyph-name="Rcommaaccent" unicode="&#x156;" horiz-adv-x="795" 
d="M299 639l-135 -639h-98l309 1462h180q140 0 220.5 -82t80.5 -227q0 -120 -38.5 -228t-109.5 -179t-161 -89l121 -657h-107l-117 639h-145zM317 729h105q157 0 244.5 108.5t87.5 307.5q0 107 -58.5 164t-165.5 57h-77zM156 -422q36 48 84.5 138t71.5 159h105v-22
q-10 -43 -81 -148.5t-137 -157.5h-43v31z" />
    <glyph glyph-name="rcommaaccent" unicode="&#x157;" horiz-adv-x="504" 
d="M582 1106q39 0 73 -12l-26 -97q-30 15 -66 15q-85 0 -158 -117t-116 -320l-123 -575h-94l229 1085h70l-29 -190h4q88 211 236 211zM-94 -422q36 48 84.5 138t71.5 159h105v-22q-10 -43 -81 -148.5t-137 -157.5h-43v31z" />
    <glyph glyph-name="Rcaron" unicode="&#x158;" horiz-adv-x="795" 
d="M299 639l-135 -639h-98l309 1462h180q140 0 220.5 -82t80.5 -227q0 -120 -38.5 -228t-109.5 -179t-161 -89l121 -657h-107l-117 639h-145zM317 729h105q157 0 244.5 108.5t87.5 307.5q0 107 -58.5 164t-165.5 57h-77zM523 1907q32 -48 125 -203q135 135 220 203h45
l-4 -19q-55 -60 -130 -156t-110 -153h-86q-12 52 -46.5 148t-64.5 161l4 19h47z" />
    <glyph glyph-name="rcaron" unicode="&#x159;" horiz-adv-x="504" 
d="M582 1106q39 0 73 -12l-26 -97q-30 15 -66 15q-85 0 -158 -117t-116 -320l-123 -575h-94l229 1085h70l-29 -190h4q88 211 236 211zM388 1569q32 -48 125 -203q135 135 220 203h45l-4 -19q-55 -60 -130 -156t-110 -153h-86q-12 52 -46.5 148t-64.5 161l4 19h47z" />
    <glyph glyph-name="Sacute" unicode="&#x15a;" horiz-adv-x="727" 
d="M655 399q0 -196 -104 -307.5t-287 -111.5q-79 0 -148 17t-106 40v108q121 -71 262 -71q133 0 207 86.5t74 236.5q0 64 -16 115t-44 95.5t-110 131.5q-78 83 -108 130t-46 99.5t-16 116.5q0 114 48.5 206.5t136 142t204.5 49.5q65 0 136 -18t106 -42l-53 -94
q-91 57 -199 57q-84 0 -146.5 -37t-96.5 -103t-34 -146q0 -75 30 -138t116 -149q92 -94 124 -147t51 -117.5t19 -149.5zM520 1579v16q154 186 223 312h139v-17q-42 -63 -136 -156t-175 -155h-51z" />
    <glyph glyph-name="sacute" unicode="&#x15b;" horiz-adv-x="594" 
d="M229 -20q-56 0 -117 14t-83 31v110q24 -24 80.5 -44.5t113.5 -20.5q97 0 151 56.5t54 160.5q0 44 -11 80.5t-28.5 67.5t-77.5 97q-65 71 -88 107.5t-36 78.5t-13 97q0 130 80 210.5t207 80.5q136 0 219 -62l-51 -86q-71 58 -172 58q-82 0 -135.5 -51.5t-53.5 -137.5
q0 -59 21.5 -107t81.5 -114q72 -78 97.5 -118t40.5 -87t15 -104q0 -152 -76.5 -234.5t-218.5 -82.5zM407 1241v16q154 186 223 312h139v-17q-42 -63 -136 -156t-175 -155h-51z" />
    <glyph glyph-name="Scircumflex" unicode="&#x15c;" horiz-adv-x="727" 
d="M655 399q0 -196 -104 -307.5t-287 -111.5q-79 0 -148 17t-106 40v108q121 -71 262 -71q133 0 207 86.5t74 236.5q0 64 -16 115t-44 95.5t-110 131.5q-78 83 -108 130t-46 99.5t-16 116.5q0 114 48.5 206.5t136 142t204.5 49.5q65 0 136 -18t106 -42l-53 -94
q-91 57 -199 57q-84 0 -146.5 -37t-96.5 -103t-34 -146q0 -75 30 -138t116 -149q92 -94 124 -147t51 -117.5t19 -149.5zM773 1579q-59 88 -125 203q-132 -132 -219 -203h-45l4 19q160 182 239 309h86q11 -51 47.5 -150.5t63.5 -158.5l-4 -19h-47z" />
    <glyph glyph-name="scircumflex" unicode="&#x15d;" horiz-adv-x="594" 
d="M229 -20q-56 0 -117 14t-83 31v110q24 -24 80.5 -44.5t113.5 -20.5q97 0 151 56.5t54 160.5q0 44 -11 80.5t-28.5 67.5t-77.5 97q-65 71 -88 107.5t-36 78.5t-13 97q0 130 80 210.5t207 80.5q136 0 219 -62l-51 -86q-71 58 -172 58q-82 0 -135.5 -51.5t-53.5 -137.5
q0 -59 21.5 -107t81.5 -114q72 -78 97.5 -118t40.5 -87t15 -104q0 -152 -76.5 -234.5t-218.5 -82.5zM652 1241q-59 88 -125 203q-132 -132 -219 -203h-45l4 19q160 182 239 309h86q11 -51 47.5 -150.5t63.5 -158.5l-4 -19h-47z" />
    <glyph glyph-name="Scedilla" unicode="&#x15e;" horiz-adv-x="727" 
d="M655 399q0 -196 -104 -307.5t-287 -111.5q-79 0 -148 17t-106 40v108q121 -71 262 -71q133 0 207 86.5t74 236.5q0 64 -16 115t-44 95.5t-110 131.5q-78 83 -108 130t-46 99.5t-16 116.5q0 114 48.5 206.5t136 142t204.5 49.5q65 0 136 -18t106 -42l-53 -94
q-91 57 -199 57q-84 0 -146.5 -37t-96.5 -103t-34 -146q0 -75 30 -138t116 -149q92 -94 124 -147t51 -117.5t19 -149.5zM408 -266q0 -100 -68.5 -163t-179.5 -63q-24 0 -60 3.5t-49 7.5v78q26 -11 103 -11q78 0 122 36.5t44 98.5q0 45 -35 74t-117 45l103 160h81l-79 -115
q65 -18 100 -58.5t35 -92.5z" />
    <glyph glyph-name="scedilla" unicode="&#x15f;" horiz-adv-x="594" 
d="M229 -20q-56 0 -117 14t-83 31v110q24 -24 80.5 -44.5t113.5 -20.5q97 0 151 56.5t54 160.5q0 44 -11 80.5t-28.5 67.5t-77.5 97q-65 71 -88 107.5t-36 78.5t-13 97q0 130 80 210.5t207 80.5q136 0 219 -62l-51 -86q-71 58 -172 58q-82 0 -135.5 -51.5t-53.5 -137.5
q0 -59 21.5 -107t81.5 -114q72 -78 97.5 -118t40.5 -87t15 -104q0 -152 -76.5 -234.5t-218.5 -82.5zM355 -266q0 -100 -68.5 -163t-179.5 -63q-24 0 -60 3.5t-49 7.5v78q26 -11 103 -11q78 0 122 36.5t44 98.5q0 45 -35 74t-117 45l103 160h81l-79 -115q65 -18 100 -58.5
t35 -92.5z" />
    <glyph glyph-name="Scaron" unicode="&#x160;" horiz-adv-x="727" 
d="M655 399q0 -196 -104 -307.5t-287 -111.5q-79 0 -148 17t-106 40v108q121 -71 262 -71q133 0 207 86.5t74 236.5q0 64 -16 115t-44 95.5t-110 131.5q-78 83 -108 130t-46 99.5t-16 116.5q0 114 48.5 206.5t136 142t204.5 49.5q65 0 136 -18t106 -42l-53 -94
q-91 57 -199 57q-84 0 -146.5 -37t-96.5 -103t-34 -146q0 -75 30 -138t116 -149q92 -94 124 -147t51 -117.5t19 -149.5zM521 1907q32 -48 125 -203q135 135 220 203h45l-4 -19q-55 -60 -130 -156t-110 -153h-86q-12 52 -46.5 148t-64.5 161l4 19h47z" />
    <glyph glyph-name="scaron" unicode="&#x161;" horiz-adv-x="594" 
d="M229 -20q-56 0 -117 14t-83 31v110q24 -24 80.5 -44.5t113.5 -20.5q97 0 151 56.5t54 160.5q0 44 -11 80.5t-28.5 67.5t-77.5 97q-65 71 -88 107.5t-36 78.5t-13 97q0 130 80 210.5t207 80.5q136 0 219 -62l-51 -86q-71 58 -172 58q-82 0 -135.5 -51.5t-53.5 -137.5
q0 -59 21.5 -107t81.5 -114q72 -78 97.5 -118t40.5 -87t15 -104q0 -152 -76.5 -234.5t-218.5 -82.5zM388 1569q32 -48 125 -203q135 135 220 203h45l-4 -19q-55 -60 -130 -156t-110 -153h-86q-12 52 -46.5 148t-64.5 161l4 19h47z" />
    <glyph glyph-name="Tcommaaccent" unicode="&#x21a;" horiz-adv-x="639" 
d="M291 0h-101l289 1366h-256l21 96h612l-20 -96h-256zM15 -422q36 48 84.5 138t71.5 159h105v-22q-10 -43 -81 -148.5t-137 -157.5h-43v31z" />
    <glyph glyph-name="tcommaaccent" unicode="&#x21b;" horiz-adv-x="403" 
d="M328 80v-80q-56 -20 -105 -20q-127 0 -127 151q0 38 13 100l163 770h-98l12 56l103 28l80 258h69l-55 -258h143l-18 -84h-143l-158 -743q-14 -64 -14 -106q0 -45 16.5 -64.5t52.5 -19.5q31 0 66 12zM-22 -422q36 48 84.5 138t71.5 159h105v-22q-10 -43 -81 -148.5
t-137 -157.5h-43v31z" />
    <glyph glyph-name="Tcaron" unicode="&#x164;" horiz-adv-x="639" 
d="M291 0h-101l289 1366h-256l21 96h612l-20 -96h-256zM457 1907q32 -48 125 -203q135 135 220 203h45l-4 -19q-55 -60 -130 -156t-110 -153h-86q-12 52 -46.5 148t-64.5 161l4 19h47z" />
    <glyph glyph-name="tcaron" unicode="&#x165;" horiz-adv-x="403" 
d="M328 80v-80q-56 -20 -105 -20q-127 0 -127 151q0 38 13 100l163 770h-98l12 56l103 28l80 258h69l-55 -258h143l-18 -84h-143l-158 -743q-14 -64 -14 -106q0 -45 16.5 -64.5t52.5 -19.5q31 0 66 12zM515 1245q82 204 114 311h107v-20q-23 -60 -82 -159.5t-99 -147.5h-40
v16z" />
    <glyph glyph-name="Tbar" unicode="&#x166;" horiz-adv-x="639" 
d="M459 801h209l-17 -76h-209l-151 -725h-101l154 725h-190l16 76h190l119 565h-256l21 96h612l-20 -96h-256z" />
    <glyph glyph-name="tbar" unicode="&#x167;" horiz-adv-x="403" 
d="M328 0q-56 -20 -105 -20q-127 0 -127 151q0 38 13 100l88 412h-115l18 88h115l57 270h-98l12 56l103 28l80 258h69l-55 -258h143l-18 -84h-143l-58 -270h154l-19 -88h-153l-82 -385q-14 -64 -14 -106q0 -45 16.5 -64.5t52.5 -19.5q31 0 66 12v-80z" />
    <glyph glyph-name="Utilde" unicode="&#x168;" horiz-adv-x="911" 
d="M1012 1462l-215 -1003q-55 -253 -151.5 -366t-260.5 -113q-125 0 -190.5 78t-65.5 218q0 75 18 164l220 1022h98l-221 -1034q-19 -80 -19 -152q0 -202 172 -202q114 0 186.5 90t114.5 293l215 1005h99zM843 1589q-35 0 -64.5 20.5t-57 45t-53 45t-50.5 20.5
q-40 0 -62.5 -35t-39.5 -98h-70q31 120 75.5 175t104.5 55q36 0 65 -20.5t54.5 -45t49.5 -45t48 -20.5q30 0 47.5 22.5t40.5 112.5h70q-29 -134 -65.5 -183t-92.5 -49z" />
    <glyph glyph-name="utilde" unicode="&#x169;" horiz-adv-x="786" 
d="M395 1085l-162 -755q-18 -78 -18 -135q0 -123 94 -123q209 0 297 417l127 596h94l-231 -1085h-74l8 135h-4q-101 -155 -239 -155q-164 0 -164 198q0 79 20 166l158 741h94zM734 1251q-35 0 -64.5 20.5t-57 45t-53 45t-50.5 20.5q-40 0 -62.5 -35t-39.5 -98h-70
q31 120 75.5 175t104.5 55q36 0 65 -20.5t54.5 -45t49.5 -45t48 -20.5q30 0 47.5 22.5t40.5 112.5h70q-29 -134 -65.5 -183t-92.5 -49z" />
    <glyph glyph-name="Umacron" unicode="&#x16a;" horiz-adv-x="911" 
d="M1012 1462l-215 -1003q-55 -253 -151.5 -366t-260.5 -113q-125 0 -190.5 78t-65.5 218q0 75 18 164l220 1022h98l-221 -1034q-19 -80 -19 -152q0 -202 172 -202q114 0 186.5 90t114.5 293l215 1005h99zM473 1671h500l-16 -82h-500z" />
    <glyph glyph-name="umacron" unicode="&#x16b;" horiz-adv-x="786" 
d="M395 1085l-162 -755q-18 -78 -18 -135q0 -123 94 -123q209 0 297 417l127 596h94l-231 -1085h-74l8 135h-4q-101 -155 -239 -155q-164 0 -164 198q0 79 20 166l158 741h94zM353 1333h500l-16 -82h-500z" />
    <glyph glyph-name="Ubreve" unicode="&#x16c;" horiz-adv-x="911" 
d="M1012 1462l-215 -1003q-55 -253 -151.5 -366t-260.5 -113q-125 0 -190.5 78t-65.5 218q0 75 18 164l220 1022h98l-221 -1034q-19 -80 -19 -152q0 -202 172 -202q114 0 186.5 90t114.5 293l215 1005h99zM926 1817q-22 -113 -74.5 -175.5t-149.5 -62.5q-81 0 -126.5 47
t-45.5 133q0 38 5 58h67l-2 -15v-16q0 -62 31 -89.5t78 -27.5q54 0 88 34.5t59 113.5h70z" />
    <glyph glyph-name="ubreve" unicode="&#x16d;" horiz-adv-x="786" 
d="M395 1085l-162 -755q-18 -78 -18 -135q0 -123 94 -123q209 0 297 417l127 596h94l-231 -1085h-74l8 135h-4q-101 -155 -239 -155q-164 0 -164 198q0 79 20 166l158 741h94zM812 1479q-22 -113 -74.5 -175.5t-149.5 -62.5q-81 0 -126.5 47t-45.5 133q0 38 5 58h67l-2 -15
v-16q0 -62 31 -89.5t78 -27.5q54 0 88 34.5t59 113.5h70z" />
    <glyph glyph-name="Uring" unicode="&#x16e;" horiz-adv-x="911" 
d="M1012 1462l-215 -1003q-55 -253 -151.5 -366t-260.5 -113q-125 0 -190.5 78t-65.5 218q0 75 18 164l220 1022h98l-221 -1034q-19 -80 -19 -152q0 -202 172 -202q114 0 186.5 90t114.5 293l215 1005h99zM923 1780q0 -88 -51 -139.5t-139 -51.5q-90 0 -140.5 51t-50.5 136
t50.5 135.5t140.5 50.5q84 0 137 -51t53 -131zM852 1776q0 52 -31.5 86.5t-87.5 34.5t-87.5 -34.5t-31.5 -86.5q0 -54 28.5 -86.5t90.5 -32.5q53 0 86 32.5t33 86.5z" />
    <glyph glyph-name="uring" unicode="&#x16f;" horiz-adv-x="786" 
d="M395 1085l-162 -755q-18 -78 -18 -135q0 -123 94 -123q209 0 297 417l127 596h94l-231 -1085h-74l8 135h-4q-101 -155 -239 -155q-164 0 -164 198q0 79 20 166l158 741h94zM799 1442q0 -88 -51 -139.5t-139 -51.5q-90 0 -140.5 51t-50.5 136t50.5 135.5t140.5 50.5
q84 0 137 -51t53 -131zM728 1438q0 52 -31.5 86.5t-87.5 34.5t-87.5 -34.5t-31.5 -86.5q0 -54 28.5 -86.5t90.5 -32.5q53 0 86 32.5t33 86.5z" />
    <glyph glyph-name="Uhungarumlaut" unicode="&#x170;" horiz-adv-x="911" 
d="M1012 1462l-215 -1003q-55 -253 -151.5 -366t-260.5 -113q-125 0 -190.5 78t-65.5 218q0 75 18 164l220 1022h98l-221 -1034q-19 -80 -19 -152q0 -202 172 -202q114 0 186.5 90t114.5 293l215 1005h99zM508 1579l4 19q147 178 219 309h140l-3 -17q-44 -67 -137 -158.5
t-172 -152.5h-51zM782 1579l5 19q147 178 219 309h139l-2 -17q-47 -67 -137.5 -157.5t-171.5 -153.5h-52z" />
    <glyph glyph-name="uhungarumlaut" unicode="&#x171;" horiz-adv-x="786" 
d="M395 1085l-162 -755q-18 -78 -18 -135q0 -123 94 -123q209 0 297 417l127 596h94l-231 -1085h-74l8 135h-4q-101 -155 -239 -155q-164 0 -164 198q0 79 20 166l158 741h94zM387 1241l4 19q147 178 219 309h140l-3 -17q-44 -67 -137 -158.5t-172 -152.5h-51zM661 1241
l5 19q147 178 219 309h139l-2 -17q-47 -67 -137.5 -157.5t-171.5 -153.5h-52z" />
    <glyph glyph-name="Uogonek" unicode="&#x172;" horiz-adv-x="911" 
d="M1012 1462l-215 -1003q-55 -253 -151.5 -366t-260.5 -113q-125 0 -190.5 78t-65.5 218q0 75 18 164l220 1022h98l-221 -1034q-19 -80 -19 -152q0 -202 172 -202q114 0 186.5 90t114.5 293l215 1005h99zM322 -289q0 -80 71 -80q31 0 68 11l-16 -72q-37 -16 -93 -16
q-63 0 -96 39.5t-33 101.5q0 77 43.5 149.5t153.5 155.5h74q-172 -151 -172 -289z" />
    <glyph glyph-name="uogonek" unicode="&#x173;" horiz-adv-x="782" 
d="M395 1085l-162 -755q-18 -78 -18 -135q0 -123 94 -123q209 0 297 417l127 596h94l-231 -1085h-74l8 135h-4q-101 -155 -239 -155q-164 0 -164 198q0 79 20 166l158 741h94zM424 -289q0 -80 71 -80q31 0 68 11l-16 -72q-37 -16 -93 -16q-63 0 -96 39.5t-33 101.5
q0 77 43.5 149.5t153.5 155.5h74q-172 -151 -172 -289z" />
    <glyph glyph-name="Wcircumflex" unicode="&#x174;" horiz-adv-x="1270" 
d="M1376 1462h101l-588 -1462h-121l47 1094l16 239l-79 -237l-426 -1096h-121l26 1462h101l-27 -1007q-7 -211 -18 -344l26 74l99 266l389 1011h108l-32 -970q-11 -253 -25 -381q85 241 127 344zM1022 1579q-59 88 -125 203q-132 -132 -219 -203h-45l4 19q160 182 239 309
h86q11 -51 47.5 -150.5t63.5 -158.5l-4 -19h-47z" />
    <glyph glyph-name="wcircumflex" unicode="&#x175;" horiz-adv-x="1012" 
d="M608 0l29 735l12 228q-40 -118 -54 -158t-308 -805h-117l20 1085h95l-13 -632q-4 -176 -22 -330h4q8 28 39.5 115t324.5 847h109l-16 -632q-3 -90 -15 -262l-4 -68h4l60 157l313 805h96l-436 -1085h-121zM858 1241q-59 88 -125 203q-132 -132 -219 -203h-45l4 19
q160 182 239 309h86q11 -51 47.5 -150.5t63.5 -158.5l-4 -19h-47z" />
    <glyph glyph-name="Ycircumflex" unicode="&#x176;" horiz-adv-x="616" 
d="M379 707l366 755h103l-447 -891l-120 -571h-101l121 571l-74 891h101zM718 1579q-59 88 -125 203q-132 -132 -219 -203h-45l4 19q160 182 239 309h86q11 -51 47.5 -150.5t63.5 -158.5l-4 -19h-47z" />
    <glyph glyph-name="ycircumflex" unicode="&#x177;" horiz-adv-x="588" 
d="M-68 -492q-46 0 -90 19v86q37 -16 88 -16q54 0 92.5 43.5t94.5 173.5l71 170l-8 1101h94v-639q0 -161 -12 -323h6q53 157 97 264l288 698h99l-562 -1329q-58 -138 -116 -193t-142 -55zM640 1241q-59 88 -125 203q-132 -132 -219 -203h-45l4 19q160 182 239 309h86
q11 -51 47.5 -150.5t63.5 -158.5l-4 -19h-47z" />
    <glyph glyph-name="Ydieresis" unicode="&#x178;" horiz-adv-x="616" 
d="M379 707l366 755h103l-447 -891l-120 -571h-101l121 571l-74 891h101zM372 1700q0 49 22.5 81t59.5 32q47 0 47 -58q0 -53 -21.5 -86t-58.5 -33q-49 0 -49 64zM644 1700q0 49 23 81t59 32q47 0 47 -58q0 -53 -21.5 -86t-58.5 -33q-49 0 -49 64z" />
    <glyph glyph-name="Zacute" unicode="&#x179;" horiz-adv-x="580" 
d="M465 0h-490l19 88l641 1278h-367l21 96h473l-19 -90l-651 -1278h391zM460 1579v16q154 186 223 312h139v-17q-42 -63 -136 -156t-175 -155h-51z" />
    <glyph glyph-name="zacute" unicode="&#x17a;" horiz-adv-x="487" 
d="M389 0h-393l14 76l475 925h-264l19 84h364l-16 -77l-477 -924h297zM366 1241v16q154 186 223 312h139v-17q-42 -63 -136 -156t-175 -155h-51z" />
    <glyph glyph-name="Zdotaccent" unicode="&#x17b;" horiz-adv-x="580" 
d="M465 0h-490l19 88l641 1278h-367l21 96h473l-19 -90l-651 -1278h391zM502 1694q0 51 23 88t59 37q47 0 47 -58q0 -57 -22 -94t-58 -37q-49 0 -49 64z" />
    <glyph glyph-name="zdotaccent" unicode="&#x17c;" horiz-adv-x="487" 
d="M389 0h-393l14 76l475 925h-264l19 84h364l-16 -77l-477 -924h297zM403 1356q0 51 23 88t59 37q47 0 47 -58q0 -57 -22 -94t-58 -37q-49 0 -49 64z" />
    <glyph glyph-name="Zcaron" unicode="&#x17d;" horiz-adv-x="580" 
d="M465 0h-490l19 88l641 1278h-367l21 96h473l-19 -90l-651 -1278h391zM447 1907q32 -48 125 -203q135 135 220 203h45l-4 -19q-55 -60 -130 -156t-110 -153h-86q-12 52 -46.5 148t-64.5 161l4 19h47z" />
    <glyph glyph-name="zcaron" unicode="&#x17e;" horiz-adv-x="487" 
d="M389 0h-393l14 76l475 925h-264l19 84h364l-16 -77l-477 -924h297zM332 1569q32 -48 125 -203q135 135 220 203h45l-4 -19q-55 -60 -130 -156t-110 -153h-86q-12 52 -46.5 148t-64.5 161l4 19h47z" />
    <glyph glyph-name="longs" unicode="&#x17f;" horiz-adv-x="342" 
d="M-139 -492q-51 0 -88 11v92q36 -12 84 -12q46 0 71 24t47 85t50 192l276 1294q31 147 64.5 225.5t79.5 113t126 34.5q66 0 111 -25l-41 -88q-39 21 -82 21q-46 0 -71.5 -26t-46.5 -87t-48 -186l-276 -1282q-36 -164 -67 -241.5t-73 -111t-116 -33.5z" />
    <glyph glyph-name="florin" unicode="&#x192;" 
d="M47 -492q-54 0 -108 19v92q66 -22 116 -22t78 26.5t51.5 90.5t48.5 186l201 946h-141l10 53l152 41l37 170q29 140 65 221t84.5 116.5t130.5 35.5q64 0 113 -27l22 -12l-51 -86l-17 10q-38 23 -89 23q-32 0 -54 -12t-40.5 -45t-35.5 -92t-71 -312h172l-19 -84h-172
l-206 -963q-31 -142 -67 -223t-83.5 -116.5t-126.5 -35.5z" />
    <glyph glyph-name="Aringacute" unicode="&#x1fa;" horiz-adv-x="731" 
d="M745 1395q0 -72 -34.5 -119t-94.5 -64l48 -1212h-97l-20 530h-287l-221 -530h-107l523 1225q-90 47 -90 166q0 85 50 135.5t140 50.5q84 0 137 -51t53 -131zM547 629l-12 569l-238 -569h250zM670 1391q0 51 -30.5 83.5t-84.5 32.5t-84.5 -32.5t-30.5 -83.5q0 -53 28 -84
t87 -31q51 0 83 31t32 84zM518 1640v17q48 59 102 128t101 152h139v-16q-53 -69 -134.5 -147t-156.5 -134h-51z" />
    <glyph glyph-name="aringacute" unicode="&#x1fb;" horiz-adv-x="817" 
d="M610 1640v17q48 59 102.5 128t100.5 152h139v-16q-43 -59 -122 -136t-168 -145h-52zM319 -20q-200 0 -200 282q0 209 62.5 414t162 317.5t217.5 112.5q134 0 174 -150h6l39 129h80l-229 -1085h-76l18 156h-4q-114 -176 -250 -176zM338 63q90 0 168 104t132 304t54 377
q0 83 -35.5 125.5t-99.5 42.5q-88 0 -163 -101.5t-126 -297.5t-51 -369q0 -91 26.5 -138t94.5 -47zM803 1380q0 -87 -51.5 -138.5t-139.5 -51.5q-86 0 -138 49.5t-52 136.5q0 85 50.5 136t139.5 51q85 0 138 -51t53 -132zM731 1376q0 53 -31.5 87t-87.5 34q-55 0 -86.5 -34
t-31.5 -87q0 -119 118 -119q53 0 86 32.5t33 86.5z" />
    <glyph glyph-name="AEacute" unicode="&#x1fc;" horiz-adv-x="1036" 
d="M870 0h-477l113 530h-236l-245 -530h-101l684 1462h572l-21 -96h-377l-116 -553h356l-21 -94h-356l-133 -625h377zM313 629h213l156 735h-29zM787 1579v16q154 186 223 312h139v-17q-42 -63 -136 -156t-175 -155h-51z" />
    <glyph glyph-name="aeacute" unicode="&#x1fd;" horiz-adv-x="1192" 
d="M319 -20q-200 0 -200 282q0 209 62.5 414t162 317.5t217.5 112.5q59 0 96.5 -34.5t57.5 -119.5l39 133h80l-33 -141q110 162 229 162q87 0 134.5 -50.5t47.5 -152.5q0 -123 -59.5 -215t-170 -137t-263.5 -45h-12q-21 -99 -21 -199q0 -124 47 -182.5t141 -58.5
q89 0 185 55v-86q-51 -29 -96 -42t-105 -13q-88 0 -146 48t-75 136l-33 -164h-76l23 156q-88 -176 -232 -176zM338 63q88 0 159.5 101t116.5 297t45 387q0 81 -26.5 124.5t-75.5 43.5q-88 0 -163 -101.5t-126 -297.5t-51 -369q0 -91 26.5 -138t94.5 -47zM1014 1018
q-84 0 -160 -108.5t-133 -321.5q195 0 296 79.5t101 237.5q0 53 -22.5 83t-81.5 30zM664 1241v16q154 186 223 312h139v-17q-42 -63 -136 -156t-175 -155h-51z" />
    <glyph glyph-name="Oslashacute" unicode="&#x1fe;" horiz-adv-x="958" 
d="M412 -20q-139 0 -209 102l-111 -176l-69 41l139 223q-27 83 -27 209q0 196 46 414t124.5 376.5t178.5 236t218 77.5q145 0 213 -109l109 172l72 -45l-140 -221q21 -80 21 -180q0 -284 -80 -557t-207 -418t-278 -145zM233 377q0 -61 5 -86l614 981q-45 117 -160 117
q-91 0 -171.5 -73.5t-144.5 -220.5t-103.5 -350t-39.5 -368zM420 74q92 0 173.5 80.5t144.5 230t102 349.5t39 366l-2 53l-613 -973q45 -106 156 -106zM678 1579v16q154 186 223 312h139v-17q-42 -63 -136 -156t-175 -155h-51z" />
    <glyph glyph-name="oslashacute" unicode="&#x1ff;" horiz-adv-x="780" 
d="M340 -20q-99 0 -156 69l-110 -166l-64 43l131 199q-22 64 -22 162q0 142 36 305t94 276.5t136 175.5t174 62q113 0 172 -92l105 157l67 -43l-135 -202q16 -58 16 -135q0 -139 -36.5 -298.5t-95.5 -274t-138 -176.5t-174 -62zM670 922q-32 94 -123 94q-86 0 -160.5 -102.5
t-123 -294.5t-48.5 -379zM352 66q88 0 162 97.5t122.5 275.5t51.5 364l-448 -670q33 -67 112 -67zM545 1241v16q154 186 223 312h139v-17q-42 -63 -136 -156t-175 -155h-51z" />
    <glyph glyph-name="Scommaaccent" unicode="&#x218;" horiz-adv-x="727" 
d="M655 399q0 -196 -104 -307.5t-287 -111.5q-79 0 -148 17t-106 40v108q121 -71 262 -71q133 0 207 86.5t74 236.5q0 64 -16 115t-44 95.5t-110 131.5q-78 83 -108 130t-46 99.5t-16 116.5q0 114 48.5 206.5t136 142t204.5 49.5q65 0 136 -18t106 -42l-53 -94
q-91 57 -199 57q-84 0 -146.5 -37t-96.5 -103t-34 -146q0 -75 30 -138t116 -149q92 -94 124 -147t51 -117.5t19 -149.5zM76 -422q36 48 84.5 138t71.5 159h105v-22q-10 -43 -81 -148.5t-137 -157.5h-43v31z" />
    <glyph glyph-name="scommaaccent" unicode="&#x219;" horiz-adv-x="594" 
d="M229 -20q-56 0 -117 14t-83 31v110q24 -24 80.5 -44.5t113.5 -20.5q97 0 151 56.5t54 160.5q0 44 -11 80.5t-28.5 67.5t-77.5 97q-65 71 -88 107.5t-36 78.5t-13 97q0 130 80 210.5t207 80.5q136 0 219 -62l-51 -86q-71 58 -172 58q-82 0 -135.5 -51.5t-53.5 -137.5
q0 -59 21.5 -107t81.5 -114q72 -78 97.5 -118t40.5 -87t15 -104q0 -152 -76.5 -234.5t-218.5 -82.5zM17 -422q36 48 84.5 138t71.5 159h105v-22q-10 -43 -81 -148.5t-137 -157.5h-43v31z" />
    <glyph glyph-name="circumflex" unicode="&#x2c6;" horiz-adv-x="1040" 
d="M803 1241q-59 88 -125 203q-132 -132 -219 -203h-45l4 19q160 182 239 309h86q11 -51 47.5 -150.5t63.5 -158.5l-4 -19h-47z" />
    <glyph glyph-name="caron" unicode="&#x2c7;" horiz-adv-x="1040" 
d="M532 1569q32 -48 125 -203q135 135 220 203h45l-4 -19q-55 -60 -130 -156t-110 -153h-86q-12 52 -46.5 148t-64.5 161l4 19h47z" />
    <glyph glyph-name="macron" unicode="&#x2c9;" horiz-adv-x="1001" 
d="M395 1333h500l-16 -82h-500z" />
    <glyph glyph-name="breve" unicode="&#x2d8;" horiz-adv-x="1040" 
d="M883 1479q-22 -113 -74.5 -175.5t-149.5 -62.5q-81 0 -126.5 47t-45.5 133q0 38 5 58h67l-2 -15v-16q0 -62 31 -89.5t78 -27.5q54 0 88 34.5t59 113.5h70z" />
    <glyph glyph-name="dotaccent" unicode="&#x2d9;" horiz-adv-x="346" 
d="M305 1356q0 51 23 88t59 37q47 0 47 -58q0 -57 -22 -94t-58 -37q-49 0 -49 64z" />
    <glyph glyph-name="ring" unicode="&#x2da;" horiz-adv-x="1063" 
d="M868 1442q0 -88 -51 -139.5t-139 -51.5q-90 0 -140.5 51t-50.5 136t50.5 135.5t140.5 50.5q84 0 137 -51t53 -131zM797 1438q0 52 -31.5 86.5t-87.5 34.5t-87.5 -34.5t-31.5 -86.5q0 -54 28.5 -86.5t90.5 -32.5q53 0 86 32.5t33 86.5z" />
    <glyph glyph-name="ogonek" unicode="&#x2db;" horiz-adv-x="344" 
d="M113 -289q0 -80 71 -80q31 0 68 11l-16 -72q-37 -16 -93 -16q-63 0 -96 39.5t-33 101.5q0 77 43.5 149.5t153.5 155.5h74q-172 -151 -172 -289z" />
    <glyph glyph-name="tilde" unicode="&#x2dc;" horiz-adv-x="1040" 
d="M784 1251q-35 0 -64.5 20.5t-57 45t-53 45t-50.5 20.5q-40 0 -62.5 -35t-39.5 -98h-70q31 120 75.5 175t104.5 55q36 0 65 -20.5t54.5 -45t49.5 -45t48 -20.5q30 0 47.5 22.5t40.5 112.5h70q-29 -134 -65.5 -183t-92.5 -49z" />
    <glyph glyph-name="hungarumlaut" unicode="&#x2dd;" horiz-adv-x="1044" 
d="M342 1241l4 19q147 178 219 309h140l-3 -17q-44 -67 -137 -158.5t-172 -152.5h-51zM616 1241l5 19q147 178 219 309h139l-2 -17q-47 -67 -137.5 -157.5t-171.5 -153.5h-52z" />
    <glyph glyph-name="tonos" unicode="&#x384;" horiz-adv-x="1063" 
d="M754 1610h110l-4 -21q-31 -57 -106 -171.5t-121 -176.5h-55l4 21q37 63 91.5 172.5t80.5 175.5z" />
    <glyph glyph-name="dieresistonos" unicode="&#x385;" horiz-adv-x="1063" 
d="M432 1362q0 49 23 81t59 32q47 0 47 -58q0 -53 -21.5 -86t-58.5 -33q-49 0 -49 64zM764 1362q0 49 22.5 81t59.5 32q47 0 47 -58q0 -53 -21.5 -86t-58.5 -33q-49 0 -49 64zM612 1409q42 71 82 159t60 148h106v-20q-24 -55 -89 -157t-107 -150h-48z" />
    <glyph glyph-name="Alphatonos" unicode="&#x386;" horiz-adv-x="731" 
d="M555 0v530h-307l-221 -530h-105l606 1468h123v-1468h-96zM555 629v370l6 355q-15 -52 -52 -152t-226 -573h272zM313 1578h110l-4 -21q-31 -57 -106 -171.5t-121 -176.5h-55l4 21q37 63 91.5 172.5t80.5 175.5z" />
    <glyph glyph-name="anoteleia" unicode="&#x387;" horiz-adv-x="379" 
d="M211 684q0 61 28 102.5t75 41.5q27 0 42 -21t15 -55q0 -61 -27.5 -99t-70.5 -38q-25 0 -43.5 17.5t-18.5 51.5z" />
    <glyph glyph-name="Epsilontonos" unicode="&#x388;" horiz-adv-x="829" 
d="M662 0h-477l309 1462h477l-21 -96h-376l-117 -553h354l-20 -94h-355l-133 -625h377zM315 1578h110l-4 -21q-31 -57 -106 -171.5t-121 -176.5h-55l4 21q37 63 91.5 172.5t80.5 175.5z" />
    <glyph glyph-name="Etatonos" unicode="&#x389;" horiz-adv-x="1047" 
d="M825 0h-98l152 717h-441l-151 -717h-98l309 1462h98l-137 -647h440l137 647h99zM309 1578h110l-4 -21q-31 -57 -106 -171.5t-121 -176.5h-55l4 21q37 63 91.5 172.5t80.5 175.5z" />
    <glyph glyph-name="Iotatonos.alt" horiz-adv-x="616" 
d="M494 0h-316l15 76l110 14l273 1280l-107 16l17 76h317l-16 -76l-113 -16l-272 -1280l106 -14zM315 1578h110l-4 -21q-31 -57 -106 -171.5t-121 -176.5h-55l4 21q37 63 91.5 172.5t80.5 175.5z" />
    <glyph glyph-name="Omicrontonos" unicode="&#x38c;" horiz-adv-x="1051" 
d="M504 -20q-277 0 -277 399q0 196 46 414t124.5 376.5t178.5 236t218 77.5q275 0 275 -383q0 -284 -80 -557t-207 -418t-278 -145zM325 377q0 -303 187 -303q92 0 173.5 80.5t144.5 230t102 349.5t39 366q0 289 -187 289q-91 0 -171.5 -73.5t-144.5 -220.5t-103.5 -350
t-39.5 -368zM356 1578h110l-4 -21q-31 -57 -106 -171.5t-121 -176.5h-55l4 21q37 63 91.5 172.5t80.5 175.5z" />
    <glyph glyph-name="Upsilontonos" unicode="&#x38e;" horiz-adv-x="831" 
d="M592 707l366 755h103l-447 -891l-120 -571h-101l121 571l-74 891h101zM290 1578h110l-4 -21q-31 -57 -106 -171.5t-121 -176.5h-55l4 21q37 63 91.5 172.5t80.5 175.5z" />
    <glyph glyph-name="Omegatonos" unicode="&#x38f;" horiz-adv-x="1065" 
d="M788 1389q-90 0 -170.5 -73.5t-143.5 -208.5t-101.5 -310.5t-38.5 -325.5q0 -233 102 -420l-10 -51h-346l18 94h223q-34 66 -59 172t-25 209q0 256 78.5 501.5t205 376t278.5 130.5q136 0 211 -101t75 -278q0 -266 -95 -536.5t-263 -473.5h225l-20 -94h-359l11 51
q185 189 291 464.5t106 571.5q0 302 -193 302zM315 1578h110l-4 -21q-31 -57 -106 -171.5t-121 -176.5h-55l4 21q37 63 91.5 172.5t80.5 175.5z" />
    <glyph glyph-name="iotadieresistonos" unicode="&#x390;" horiz-adv-x="401" 
d="M395 1085l-184 -864q-12 -52 -12 -90q0 -61 55 -61q31 0 76 16v-86q-51 -20 -101 -20q-127 0 -127 133q0 22 6 59.5t193 912.5h94zM179 1362q0 49 23 81t59 32q47 0 47 -58q0 -53 -21.5 -86t-58.5 -33q-49 0 -49 64zM511 1362q0 49 22.5 81t59.5 32q47 0 47 -58
q0 -53 -21.5 -86t-58.5 -33q-49 0 -49 64zM359 1409q42 71 82 159t60 148h106v-20q-24 -55 -89 -157t-107 -150h-48z" />
    <glyph glyph-name="Alpha" unicode="&#x391;" horiz-adv-x="731" 
d="M555 0v530h-307l-221 -530h-105l606 1468h123v-1468h-96zM555 629v370l6 355q-15 -52 -52 -152t-226 -573h272z" />
    <glyph glyph-name="Beta" unicode="&#x392;" horiz-adv-x="817" 
d="M375 1462h225q130 0 208.5 -75t78.5 -199q0 -167 -74.5 -279t-204.5 -137l-2 -6q73 -19 118.5 -89.5t45.5 -166.5q0 -151 -51 -267t-148 -179.5t-233 -63.5h-272zM336 813h147q90 0 158 46t105.5 129.5t37.5 187.5q0 97 -51 143.5t-155 46.5h-123zM317 719l-133 -625h158
q154 0 240 107.5t86 292.5q0 104 -51 164.5t-142 60.5h-158z" />
    <glyph glyph-name="Gamma" unicode="&#x393;" horiz-adv-x="598" 
d="M784 1462l-22 -100h-311l-287 -1362h-98l309 1462h409z" />
    <glyph glyph-name="uni0394" unicode="&#x394;" horiz-adv-x="725" 
d="M651 92l-16 -92h-660l-12 98l565 1370h123v-1376zM66 98h491v901l4 355q-21 -75 -127 -353z" />
    <glyph glyph-name="Epsilon" unicode="&#x395;" horiz-adv-x="709" 
d="M543 0h-477l309 1462h477l-21 -96h-376l-117 -553h354l-20 -94h-355l-133 -625h377z" />
    <glyph glyph-name="Zeta" unicode="&#x396;" horiz-adv-x="580" 
d="M465 0h-490l19 88l641 1278h-367l21 96h473l-19 -90l-651 -1278h391z" />
    <glyph glyph-name="Eta" unicode="&#x397;" horiz-adv-x="924" 
d="M702 0h-98l152 717h-441l-151 -717h-98l309 1462h98l-137 -647h440l137 647h99z" />
    <glyph glyph-name="Theta" unicode="&#x398;" horiz-adv-x="989" 
d="M463 803h237l-22 -105h-238zM422 -20q-287 0 -287 399q0 201 49 420t130 375t184.5 232.5t224.5 76.5q285 0 285 -383q0 -284 -82 -555.5t-214 -418t-290 -146.5zM233 377q0 -303 195 -303q97 0 182 81.5t152 232.5t107 349t40 363q0 289 -194 289q-97 0 -182 -75
t-153.5 -228t-107.5 -351t-39 -358z" />
    <glyph glyph-name="Iota.alt" horiz-adv-x="424" 
d="M293 0h-316l15 76l110 14l273 1280l-107 16l17 76h317l-16 -76l-113 -16l-272 -1280l106 -14z" />
    <glyph glyph-name="Kappa" unicode="&#x39a;" horiz-adv-x="743" 
d="M666 0h-101l-149 709l-129 -129l-123 -580h-98l309 1462h98l-164 -774l123 180l416 594h100l-452 -667z" />
    <glyph glyph-name="Lambda" unicode="&#x39b;" horiz-adv-x="731" 
d="M555 999l6 355q-36 -129 -127 -353l-405 -1001h-107l606 1468h123v-1468h-96v999z" />
    <glyph glyph-name="Mu" unicode="&#x39c;" horiz-adv-x="1255" 
d="M494 0l-52 1331h-6l-44 -240l-230 -1091h-96l309 1462h160l34 -1108l4 -164l-2 -88h2q17 50 107 250l494 1110h169l-309 -1462h-100l238 1122l49 207h-4l-596 -1329h-127z" />
    <glyph glyph-name="Nu" unicode="&#x39d;" horiz-adv-x="981" 
d="M760 0h-121l-201 1311h-8q-14 -115 -45 -262l-221 -1049h-98l309 1462h131l192 -1296h7l14 86l35 188l217 1022h98z" />
    <glyph glyph-name="Xi" unicode="&#x39e;" horiz-adv-x="682" 
d="M338 1462h469l-19 -94h-469zM535 94l-19 -94h-506l19 94h506zM233 813h404l-21 -94h-403z" />
    <glyph glyph-name="Omicron" unicode="&#x39f;" horiz-adv-x="958" 
d="M412 -20q-277 0 -277 399q0 196 46 414t124.5 376.5t178.5 236t218 77.5q275 0 275 -383q0 -284 -80 -557t-207 -418t-278 -145zM233 377q0 -303 187 -303q92 0 173.5 80.5t144.5 230t102 349.5t39 366q0 289 -187 289q-91 0 -171.5 -73.5t-144.5 -220.5t-103.5 -350
t-39.5 -368z" />
    <glyph glyph-name="Pi" unicode="&#x3a0;" horiz-adv-x="924" 
d="M702 0h-98l291 1368h-442l-289 -1368h-98l309 1462h637z" />
    <glyph glyph-name="Rho" unicode="&#x3a1;" horiz-adv-x="772" 
d="M858 1155q0 -157 -57 -283t-164 -197t-250 -71h-96l-127 -604h-98l309 1462h170q145 0 229 -83.5t84 -223.5zM311 698h70q178 0 275.5 115.5t97.5 325.5q0 107 -58.5 167t-165.5 60h-77z" />
    <glyph glyph-name="Sigma" unicode="&#x3a3;" horiz-adv-x="678" 
d="M-20 0l16 84l453 680l-170 608l18 90h545l-19 -94h-442l172 -610l-442 -664h467l-19 -94h-579z" />
    <glyph glyph-name="Tau" unicode="&#x3a4;" horiz-adv-x="639" 
d="M291 0h-101l289 1366h-256l21 96h612l-20 -96h-256z" />
    <glyph glyph-name="Upsilon" unicode="&#x3a5;" horiz-adv-x="616" 
d="M379 707l366 755h103l-447 -891l-120 -571h-101l121 571l-74 891h101z" />
    <glyph glyph-name="Phi" unicode="&#x3a6;" horiz-adv-x="1083" 
d="M721 1483h96l-37 -180q303 -21 303 -385q0 -190 -73 -359.5t-193.5 -260t-269.5 -93.5l-49 -225h-97l50 225q-301 21 -301 387q0 193 70 358.5t190 255.5t274 97zM565 295q117 2 209.5 82t149.5 234t57 321q0 135 -56 207.5t-165 72.5zM664 1212q-121 -3 -213.5 -81.5
t-146.5 -226.5t-54 -322q0 -276 219 -287z" />
    <glyph glyph-name="Chi" unicode="&#x3a7;" horiz-adv-x="651" 
d="M547 0h-101l-53 666l-348 -666h-102l419 791l-81 671h100l68 -606l307 606h100l-377 -719z" />
    <glyph glyph-name="Psi" unicode="&#x3a8;" horiz-adv-x="1047" 
d="M489 0h-98l94 451q-146 11 -208 84.5t-62 220.5q0 105 31 248l96 458h98l-96 -456q-31 -151 -31 -242q0 -116 46.5 -167.5t146.5 -51.5l194 917h99l-195 -917q102 0 164 42.5t106.5 139.5t83.5 279l97 456h98l-102 -489q-39 -189 -99.5 -303t-146 -166.5t-221.5 -52.5z
" />
    <glyph glyph-name="uni03A9" unicode="&#x3a9;" horiz-adv-x="973" 
d="M696 1389q-90 0 -170.5 -73.5t-143.5 -208.5t-101.5 -310.5t-38.5 -325.5q0 -233 102 -420l-10 -51h-346l18 94h223q-34 66 -59 172t-25 209q0 256 78.5 501.5t205 376t278.5 130.5q136 0 211 -101t75 -278q0 -266 -95 -536.5t-263 -473.5h225l-20 -94h-359l11 51
q185 189 291 464.5t106 571.5q0 302 -193 302z" />
    <glyph glyph-name="Iotadieresis.alt" horiz-adv-x="406" 
d="M284 0h-316l15 76l110 14l273 1280l-107 16l17 76h317l-16 -76l-113 -16l-272 -1280l106 -14zM284 1700q0 49 22.5 81t59.5 32q47 0 47 -58q0 -53 -21.5 -86t-58.5 -33q-49 0 -49 64zM556 1700q0 49 23 81t59 32q47 0 47 -58q0 -53 -21.5 -86t-58.5 -33q-49 0 -49 64z
" />
    <glyph glyph-name="Upsilondieresis" unicode="&#x3ab;" horiz-adv-x="616" 
d="M379 707l366 755h103l-447 -891l-120 -571h-101l121 571l-74 891h101zM372 1700q0 49 22.5 81t59.5 32q47 0 47 -58q0 -53 -21.5 -86t-58.5 -33q-49 0 -49 64zM644 1700q0 49 23 81t59 32q47 0 47 -58q0 -53 -21.5 -86t-58.5 -33q-49 0 -49 64z" />
    <glyph glyph-name="alphatonos" unicode="&#x3ac;" horiz-adv-x="834" 
d="M670 129q0 -72 47 -72q27 0 51 11v-70q-27 -18 -74 -18q-110 0 -110 124l6 60h-8q-64 -102 -127.5 -143t-135.5 -41q-200 0 -200 280q0 219 59.5 415.5t160.5 313.5t220 117q81 0 128.5 -49.5t64.5 -130.5h6q14 43 36.5 87.5t41.5 71.5h63q-61 -111 -108 -348l-113 -524
q-8 -33 -8 -84zM340 66q87 0 167 106.5t132.5 297t52.5 351.5q0 105 -34.5 150t-110.5 45q-83 0 -157 -104.5t-123.5 -292t-49.5 -355.5q0 -99 25.5 -148.5t97.5 -49.5zM722 1610h110l-4 -21q-31 -57 -106 -171.5t-121 -176.5h-55l4 21q37 63 91.5 172.5t80.5 175.5z" />
    <glyph glyph-name="epsilontonos" unicode="&#x3ad;" horiz-adv-x="580" 
d="M477 618l-18 -86h-49q-111 0 -179.5 -79t-68.5 -201q0 -86 39.5 -135t111.5 -49q50 0 90.5 13t88.5 44v-96q-83 -49 -193 -49q-106 0 -168.5 72t-62.5 194q0 128 62 216.5t181 119.5l2 8q-46 31 -71 80.5t-25 109.5q0 147 79 236.5t212 89.5q110 0 178 -57l-49 -78
q-53 45 -129 45q-89 0 -143 -60.5t-54 -162.5q0 -175 127 -175h39zM624 1610h110l-4 -21q-31 -57 -106 -171.5t-121 -176.5h-55l4 21q37 63 91.5 172.5t80.5 175.5z" />
    <glyph glyph-name="etatonos" unicode="&#x3ae;" horiz-adv-x="782" 
d="M397 -489l277 1304q10 40 10 84q0 113 -100 113q-105 0 -176 -101t-115 -315l-127 -596h-94l229 1085h80l-25 -151h4q93 172 242 172q84 0 130 -48.5t46 -139.5q0 -56 -14 -121l-272 -1286h-95zM708 1610h110l-4 -21q-31 -57 -106 -171.5t-121 -176.5h-55l4 21
q37 63 91.5 172.5t80.5 175.5z" />
    <glyph glyph-name="iotatonos" unicode="&#x3af;" horiz-adv-x="401" 
d="M395 1085l-184 -864q-12 -52 -12 -90q0 -61 55 -61q31 0 76 16v-86q-51 -20 -101 -20q-127 0 -127 133q0 22 6 59.5t193 912.5h94zM511 1610h110l-4 -21q-31 -57 -106 -171.5t-121 -176.5h-55l4 21q37 63 91.5 172.5t80.5 175.5z" />
    <glyph glyph-name="upsilondieresistonos" unicode="&#x3b0;" horiz-adv-x="778" 
d="M215 223q0 -155 115 -155q102 0 183.5 135t123.5 365.5t49 516.5h94q-10 -472 -124 -788.5t-334 -316.5q-102 0 -152.5 54t-50.5 167q0 86 37 250l135 634h94l-137 -641q-33 -132 -33 -221zM361 1362q0 49 23 81t59 32q47 0 47 -58q0 -53 -21.5 -86t-58.5 -33
q-49 0 -49 64zM693 1362q0 49 22.5 81t59.5 32q47 0 47 -58q0 -53 -21.5 -86t-58.5 -33q-49 0 -49 64zM541 1409q42 71 82 159t60 148h106v-20q-24 -55 -89 -157t-107 -150h-48z" />
    <glyph glyph-name="alpha" unicode="&#x3b1;" horiz-adv-x="834" 
d="M670 129q0 -72 47 -72q27 0 51 11v-70q-27 -18 -74 -18q-110 0 -110 124l6 60h-8q-64 -102 -127.5 -143t-135.5 -41q-200 0 -200 280q0 219 59.5 415.5t160.5 313.5t220 117q81 0 128.5 -49.5t64.5 -130.5h6q14 43 36.5 87.5t41.5 71.5h63q-61 -111 -108 -348l-113 -524
q-8 -33 -8 -84zM340 66q87 0 167 106.5t132.5 297t52.5 351.5q0 105 -34.5 150t-110.5 45q-83 0 -157 -104.5t-123.5 -292t-49.5 -355.5q0 -99 25.5 -148.5t97.5 -49.5z" />
    <glyph glyph-name="beta" unicode="&#x3b2;" horiz-adv-x="801" 
d="M653 1567q102 0 163 -67.5t61 -186.5q0 -198 -79.5 -333.5t-211.5 -158.5l-2 -8q83 -13 131.5 -94.5t48.5 -200.5q0 -147 -49.5 -275.5t-135 -195.5t-198.5 -67q-127 0 -207 75l-121 -547h-86l357 1686q46 213 120.5 293t208.5 80zM635 1477q-84 0 -135.5 -65.5
t-83.5 -217.5l-221 -1047q34 -38 82 -57.5t98 -19.5q86 0 151.5 52t103.5 157t38 235q0 120 -46.5 191t-129.5 71h-39l20 90h27q83 0 145.5 53t99.5 159.5t37 232.5q0 77 -36 121.5t-111 44.5z" />
    <glyph glyph-name="gamma" unicode="&#x3b3;" horiz-adv-x="598" 
d="M133 -492h-92q20 89 61 226t84 252v1099h93v-518q0 -288 -19 -448h8q94 265 162 428l225 538h97l-424 -1003q-64 -151 -117.5 -310.5t-77.5 -263.5z" />
    <glyph glyph-name="delta" unicode="&#x3b4;" horiz-adv-x="815" 
d="M537 952q-56 85 -89.5 160t-33.5 148q0 127 82.5 210.5t220.5 83.5q81 0 137 -20t82 -43l-53 -84q-34 26 -72.5 41.5t-97.5 15.5q-89 0 -145 -55t-56 -139q0 -50 18 -102t57 -115t54 -86q69 -106 99 -212.5t30 -234.5q0 -233 -101.5 -386.5t-283.5 -153.5
q-119 0 -192.5 84t-73.5 229q0 223 111 398t307 261zM393 66q83 0 147 58.5t99 165.5t35 228q0 79 -11 141t-29 110t-63 116q-163 -74 -259.5 -233t-96.5 -355q0 -104 48 -167.5t130 -63.5z" />
    <glyph glyph-name="epsilon" unicode="&#x3b5;" horiz-adv-x="580" 
d="M477 618l-18 -86h-49q-111 0 -179.5 -79t-68.5 -201q0 -86 39.5 -135t111.5 -49q50 0 90.5 13t88.5 44v-96q-83 -49 -193 -49q-106 0 -168.5 72t-62.5 194q0 128 62 216.5t181 119.5l2 8q-46 31 -71 80.5t-25 109.5q0 147 79 236.5t212 89.5q110 0 178 -57l-49 -78
q-53 45 -129 45q-89 0 -143 -60.5t-54 -162.5q0 -175 127 -175h39z" />
    <glyph glyph-name="zeta" unicode="&#x3b6;" horiz-adv-x="557" 
d="M369 1470l18 86h424l-18 -79q-278 -318 -440.5 -624.5t-162.5 -522.5q0 -72 30.5 -127.5t121.5 -126.5q51 -41 75.5 -84.5t24.5 -97.5q0 -143 -159 -316h-109l55 61q117 129 117 242q0 30 -15.5 57t-76.5 78q-69 54 -98.5 93.5t-46.5 89.5t-17 116q0 228 140 507.5
t450 654.5q-67 -7 -186 -7h-127z" />
    <glyph glyph-name="eta" unicode="&#x3b7;" horiz-adv-x="782" 
d="M397 -489l277 1304q10 40 10 84q0 113 -100 113q-105 0 -176 -101t-115 -315l-127 -596h-94l229 1085h80l-25 -151h4q93 172 242 172q84 0 130 -48.5t46 -139.5q0 -56 -14 -121l-272 -1286h-95z" />
    <glyph glyph-name="theta" unicode="&#x3b8;" horiz-adv-x="797" 
d="M877 1237q0 -195 -50 -442.5t-129.5 -436t-173 -283.5t-192.5 -95q-105 0 -159 89t-54 257q0 246 80.5 566.5t201 503.5t256.5 183q220 0 220 -342zM344 70q109 0 202 172t175 518h-449q-55 -283 -55 -432q0 -130 30.5 -194t96.5 -64zM649 1489q-108 0 -196.5 -162.5
t-163.5 -480.5h446q43 229 43 385q0 128 -30 193t-99 65z" />
    <glyph glyph-name="iota" unicode="&#x3b9;" horiz-adv-x="401" 
d="M395 1085l-184 -864q-12 -52 -12 -90q0 -61 55 -61q31 0 76 16v-86q-51 -20 -101 -20q-127 0 -127 133q0 22 6 59.5t193 912.5h94z" />
    <glyph glyph-name="kappa" unicode="&#x3ba;" horiz-adv-x="649" 
d="M276 539q115 153 400 546h102l-307 -430l96 -655h-98l-80 575l-133 -151l-90 -424h-94l231 1085h92l-76 -346l-47 -200h4z" />
    <glyph glyph-name="lambda" unicode="&#x3bb;" horiz-adv-x="643" 
d="M451 920h-9q-24 -69 -52.5 -140t-336.5 -780h-94l481 1100l9 274q0 58 -15.5 83.5t-56.5 25.5q-32 0 -55 -10v83q28 13 79 13q75 0 107.5 -52t32.5 -149q0 -138 -18 -800l-9 -375q0 -67 11.5 -97t45.5 -30q28 0 50 10v-84q-26 -12 -78 -12q-62 0 -90.5 47.5t-28.5 152.5
l14 488z" />
    <glyph glyph-name="uni03BC" unicode="&#x3bc;" horiz-adv-x="782" 
d="M395 1085l-162 -755q-18 -78 -18 -135q0 -123 94 -123q209 0 297 417l127 596h94l-231 -1085h-74l8 135h-4q-101 -155 -231 -155q-89 0 -125 81q-11 -69 -21 -124.5t-92 -428.5h-90l334 1577h94z" />
    <glyph glyph-name="nu" unicode="&#x3bd;" horiz-adv-x="651" 
d="M199 1085h94q-16 -782 -25 -966h8q131 181 241.5 441.5t166.5 524.5h94q-132 -605 -481 -1085h-117z" />
    <glyph glyph-name="xi" unicode="&#x3be;" horiz-adv-x="580" 
d="M565 1477q-67 -7 -121 -7h-94l19 86h426l-19 -79h-31q-101 0 -183 -57.5t-129.5 -156t-47.5 -202.5q0 -103 43.5 -148t138.5 -45h54l-19 -92h-67q-111 0 -188 -53t-117 -145t-40 -211q0 -92 24.5 -143.5t90.5 -106.5l48 -38q91 -71 91 -179q0 -78 -38.5 -155t-122.5 -167
h-109q73 82 104 127t50.5 89.5t19.5 88.5q0 73 -60 125l-36 31q-71 58 -99 100t-44.5 97.5t-16.5 132.5q0 104 47 209t118.5 168t162.5 81l2 9q-75 37 -105 90t-30 135q0 138 74.5 251.5t203.5 164.5z" />
    <glyph glyph-name="omicron" unicode="&#x3bf;" horiz-adv-x="780" 
d="M340 -20q-107 0 -164 80t-57 227q0 142 36 305t94 276.5t136 175.5t174 62q106 0 165.5 -82.5t59.5 -232.5q0 -139 -36.5 -298.5t-95.5 -274t-138 -176.5t-174 -62zM217 268q0 -202 135 -202q89 0 164 101.5t122.5 286.5t47.5 357q0 205 -139 205q-84 0 -157.5 -98
t-123 -286t-49.5 -364z" />
    <glyph glyph-name="pi" unicode="&#x3c0;" horiz-adv-x="782" 
d="M586 150q0 -41 16 -56.5t47 -15.5h16l17 2v-84q-27 -8 -66 -8q-56 0 -92.5 31.5t-36.5 105.5q0 44 15 115l164 761h-275l-213 -1001h-94l213 1001h-137l6 33l80 51h659l-16 -84h-129l-164 -768q-10 -43 -10 -83z" />
    <glyph glyph-name="rho" unicode="&#x3c1;" horiz-adv-x="797" 
d="M807 823q0 -222 -58 -423t-155.5 -310.5t-220.5 -109.5q-128 0 -191 92h-8q-8 -54 -24.5 -142t-86.5 -422h-92l234 1125q50 243 142.5 358t238.5 115q106 0 163.5 -75.5t57.5 -207.5zM571 1016q-102 0 -170 -107.5t-116 -341.5l-82 -399q47 -102 168 -102q96 0 172 93.5
t122 277.5t46 382q0 91 -34 144t-106 53z" />
    <glyph glyph-name="sigma1" unicode="&#x3c2;" horiz-adv-x="575" 
d="M115 365q0 190 64 370.5t164.5 275.5t221.5 95q86 0 144 -33l-39 -86q-53 29 -113 29q-87 0 -161.5 -85.5t-124.5 -247.5t-50 -302q0 -67 10 -111t29.5 -75t71.5 -74q66 -55 88.5 -85t34.5 -66.5t12 -84.5q0 -127 -148 -307h-112q90 105 127 176.5t37 124.5q0 85 -74 145
q-94 76 -118 108t-38 68.5t-20 76t-6 88.5z" />
    <glyph glyph-name="sigma" unicode="&#x3c3;" horiz-adv-x="788" 
d="M766 799q0 -231 -55.5 -423t-150.5 -294t-218 -102q-105 0 -164 79.5t-59 219.5q0 213 68 410t177.5 296.5t251.5 99.5h310l-19 -86h-164q23 -90 23 -200zM348 66q93 0 165 92t113.5 275t41.5 394q0 106 -11 172h-49q-111 0 -198 -87.5t-140 -264.5t-53 -366
q0 -103 30 -159t101 -56z" />
    <glyph glyph-name="tau" unicode="&#x3c4;" horiz-adv-x="492" 
d="M414 999l-152 -712q-18 -79 -18 -130q0 -94 84 -94q44 0 88 17v-84q-52 -21 -109 -21q-157 0 -162 168q0 59 19 142l153 714h-161l6 35l80 51h397l-18 -86h-207z" />
    <glyph glyph-name="upsilon" unicode="&#x3c5;" horiz-adv-x="778" 
d="M215 223q0 -155 115 -155q102 0 183.5 135t123.5 365.5t49 516.5h94q-10 -472 -124 -788.5t-334 -316.5q-102 0 -152.5 54t-50.5 167q0 86 37 250l135 634h94l-137 -641q-33 -132 -33 -221z" />
    <glyph glyph-name="phi" unicode="&#x3c6;" horiz-adv-x="987" 
d="M281 -492l100 472q-128 14 -195 105t-67 249q0 211 81.5 404t237.5 352l66 -56q-135 -146 -209 -312.5t-74 -365.5q0 -135 47 -208t131 -85l156 744q33 160 92 231.5t166 71.5q87 0 136.5 -71.5t49.5 -202.5q0 -219 -72.5 -426t-190 -317.5t-263.5 -117.5l-98 -467h-94z
M494 63q113 11 203.5 108.5t146 275t55.5 372.5q0 203 -96 203q-59 0 -96 -62t-64 -190z" />
    <glyph glyph-name="chi" unicode="&#x3c7;" horiz-adv-x="623" 
d="M362 498l295 587h101l-396 -753v-582q0 -80 10 -118t48 -38q27 0 49 11v-80q-40 -17 -76 -17q-65 0 -93 50.5t-28 162.5v459l-344 -672h-102l446 846l2 490q0 109 -11.5 138.5t-41.5 29.5q-29 0 -51 -11v84q28 13 80 13q62 0 87 -41t25 -154v-405z" />
    <glyph glyph-name="psi" unicode="&#x3c8;" horiz-adv-x="897" 
d="M219 272q0 -97 31 -147t96 -57l316 1488h94l-316 -1488q98 0 179 122.5t133.5 360.5t52.5 481v53h94v-67q0 -280 -64 -534t-170 -380.5t-243 -126.5l-100 -469h-95l101 472q-106 15 -156.5 82.5t-50.5 197.5q0 97 33 252l122 573h95l-121 -565q-31 -140 -31 -248z" />
    <glyph glyph-name="omega" unicode="&#x3c9;" horiz-adv-x="838" 
d="M389 156q-29 -84 -69 -130t-103 -46q-60 0 -91.5 58.5t-31.5 164.5q0 185 66.5 420t181.5 462h96q-109 -207 -180.5 -454t-71.5 -436q0 -125 56 -125q52 0 89 87.5t79 286.5l49 232h92l-49 -232q-41 -186 -41 -282q0 -51 13.5 -71.5t39.5 -20.5q53 0 107.5 124.5
t93.5 337t39 392.5q0 78 -6 161h92q8 -64 8 -163q0 -218 -50 -446.5t-127 -362t-159 -133.5q-59 0 -87 40t-28 124v12h-8z" />
    <glyph glyph-name="iotadieresis" unicode="&#x3ca;" horiz-adv-x="401" 
d="M395 1085l-184 -864q-12 -52 -12 -90q0 -61 55 -61q31 0 76 16v-86q-51 -20 -101 -20q-127 0 -127 133q0 22 6 59.5t193 912.5h94zM202 1362q0 49 22.5 81t59.5 32q47 0 47 -58q0 -53 -21.5 -86t-58.5 -33q-49 0 -49 64zM474 1362q0 49 23 81t59 32q47 0 47 -58
q0 -53 -21.5 -86t-58.5 -33q-49 0 -49 64z" />
    <glyph glyph-name="upsilondieresis" unicode="&#x3cb;" horiz-adv-x="778" 
d="M215 223q0 -155 115 -155q102 0 183.5 135t123.5 365.5t49 516.5h94q-10 -472 -124 -788.5t-334 -316.5q-102 0 -152.5 54t-50.5 167q0 86 37 250l135 634h94l-137 -641q-33 -132 -33 -221zM374 1362q0 49 22.5 81t59.5 32q47 0 47 -58q0 -53 -21.5 -86t-58.5 -33
q-49 0 -49 64zM646 1362q0 49 23 81t59 32q47 0 47 -58q0 -53 -21.5 -86t-58.5 -33q-49 0 -49 64z" />
    <glyph glyph-name="omicrontonos" unicode="&#x3cc;" horiz-adv-x="780" 
d="M340 -20q-107 0 -164 80t-57 227q0 142 36 305t94 276.5t136 175.5t174 62q106 0 165.5 -82.5t59.5 -232.5q0 -139 -36.5 -298.5t-95.5 -274t-138 -176.5t-174 -62zM217 268q0 -202 135 -202q89 0 164 101.5t122.5 286.5t47.5 357q0 205 -139 205q-84 0 -157.5 -98
t-123 -286t-49.5 -364zM724 1610h110l-4 -21q-31 -57 -106 -171.5t-121 -176.5h-55l4 21q37 63 91.5 172.5t80.5 175.5z" />
    <glyph glyph-name="upsilontonos" unicode="&#x3cd;" horiz-adv-x="778" 
d="M215 223q0 -155 115 -155q102 0 183.5 135t123.5 365.5t49 516.5h94q-10 -472 -124 -788.5t-334 -316.5q-102 0 -152.5 54t-50.5 167q0 86 37 250l135 634h94l-137 -641q-33 -132 -33 -221zM661 1610h110l-4 -21q-31 -57 -106 -171.5t-121 -176.5h-55l4 21
q37 63 91.5 172.5t80.5 175.5z" />
    <glyph glyph-name="omegatonos" unicode="&#x3ce;" horiz-adv-x="838" 
d="M389 156q-29 -84 -69 -130t-103 -46q-60 0 -91.5 58.5t-31.5 164.5q0 185 66.5 420t181.5 462h96q-109 -207 -180.5 -454t-71.5 -436q0 -125 56 -125q52 0 89 87.5t79 286.5l49 232h92l-49 -232q-41 -186 -41 -282q0 -51 13.5 -71.5t39.5 -20.5q53 0 107.5 124.5
t93.5 337t39 392.5q0 78 -6 161h92q8 -64 8 -163q0 -218 -50 -446.5t-127 -362t-159 -133.5q-59 0 -87 40t-28 124v12h-8zM724 1610h110l-4 -21q-31 -57 -106 -171.5t-121 -176.5h-55l4 21q37 63 91.5 172.5t80.5 175.5z" />
    <glyph glyph-name="afii10023" unicode="&#x401;" horiz-adv-x="709" 
d="M543 0h-477l309 1462h477l-21 -96h-376l-117 -553h354l-20 -94h-355l-133 -625h377zM459 1700q0 49 22.5 81t59.5 32q47 0 47 -58q0 -53 -21.5 -86t-58.5 -33q-49 0 -49 64zM731 1700q0 49 23 81t59 32q47 0 47 -58q0 -53 -21.5 -86t-58.5 -33q-49 0 -49 64z" />
    <glyph glyph-name="afii10051" unicode="&#x402;" horiz-adv-x="838" 
d="M446 -20q-52 0 -122 22l20 92q42 -20 98 -20q74 0 115 57t70 193l47 219q12 55 12 98q0 68 -38 104.5t-132 36.5h-121l-166 -782h-98l291 1368h-217l20 94h555l-20 -94h-240l-104 -491h82q149 0 217.5 -53t68.5 -167q0 -39 -14 -114l-53 -250q-38 -176 -101.5 -244.5
t-169.5 -68.5z" />
    <glyph glyph-name="afii10052" unicode="&#x403;" horiz-adv-x="598" 
d="M784 1462l-22 -100h-311l-287 -1362h-98l309 1462h409zM520 1579v16q154 186 223 312h139v-17q-42 -63 -136 -156t-175 -155h-51z" />
    <glyph glyph-name="afii10053" unicode="&#x404;" horiz-adv-x="774" 
d="M745 1389q-149 0 -271 -154.5t-189 -421.5h413l-20 -94h-414q-24 -132 -24 -252q0 -212 53.5 -303.5t171.5 -91.5q100 0 182 41v-93q-38 -18 -90.5 -29t-101.5 -11q-162 0 -238 115.5t-76 353.5q0 264 83 511t221.5 386t302.5 139q130 0 204 -62l-61 -86q-60 52 -146 52z
" />
    <glyph glyph-name="afii10054" unicode="&#x405;" horiz-adv-x="727" 
d="M655 399q0 -196 -104 -307.5t-287 -111.5q-79 0 -148 17t-106 40v108q121 -71 262 -71q133 0 207 86.5t74 236.5q0 64 -16 115t-44 95.5t-110 131.5q-78 83 -108 130t-46 99.5t-16 116.5q0 114 48.5 206.5t136 142t204.5 49.5q65 0 136 -18t106 -42l-53 -94
q-91 57 -199 57q-84 0 -146.5 -37t-96.5 -103t-34 -146q0 -75 30 -138t116 -149q92 -94 124 -147t51 -117.5t19 -149.5z" />
    <glyph glyph-name="afii10055.alt" horiz-adv-x="424" 
d="M293 0h-316l15 76l110 14l273 1280l-107 16l17 76h317l-16 -76l-113 -16l-272 -1280l106 -14z" />
    <glyph glyph-name="afii10056.alt" horiz-adv-x="424" 
d="M293 0h-316l15 76l110 14l273 1280l-107 16l17 76h317l-16 -76l-113 -16l-272 -1280l106 -14zM282 1700q0 49 22.5 81t59.5 32q47 0 47 -58q0 -53 -21.5 -86t-58.5 -33q-49 0 -49 64zM554 1700q0 49 23 81t59 32q47 0 47 -58q0 -53 -21.5 -86t-58.5 -33q-49 0 -49 64z
" />
    <glyph glyph-name="afii10057" unicode="&#x408;" horiz-adv-x="360" 
d="M-113 -369q-70 0 -114 25l28 92q42 -20 90 -20q68 0 105 55t63 182l318 1497h98l-321 -1519q-34 -161 -98 -236.5t-169 -75.5z" />
    <glyph glyph-name="afii10058" unicode="&#x409;" horiz-adv-x="1155" 
d="M877 1462l-136 -649h43q160 0 244 -80t84 -233q0 -230 -119.5 -365t-326.5 -135h-195l287 1368h-193q-92 -328 -194 -673.5t-149.5 -471.5t-98 -179.5t-125.5 -53.5q-36 0 -82 12v94q31 -12 66 -12q103 0 177 235l38 119q36 112 120 400l181 624h379zM588 90h98
q154 0 239 108.5t85 299.5q0 115 -61.5 170t-188.5 55h-37z" />
    <glyph glyph-name="afii10059" unicode="&#x40a;" horiz-adv-x="1206" 
d="M932 1462l-135 -649h43q160 0 243.5 -80.5t83.5 -232.5q0 -232 -119 -366t-327 -134h-195l152 723h-361l-153 -723h-98l309 1462h98l-137 -649h360l138 649h98zM643 90h98q154 0 239 108.5t85 299.5q0 115 -61.5 170t-188.5 55h-37z" />
    <glyph glyph-name="afii10060" unicode="&#x40b;" horiz-adv-x="856" 
d="M436 877h84q138 0 201 -52t63 -161q0 -60 -14 -121l-115 -543h-98l115 543q12 61 12 104q0 76 -38.5 105.5t-119.5 29.5h-110l-166 -782h-98l290 1368h-217l19 94h555l-19 -94h-239z" />
    <glyph glyph-name="afii10061" unicode="&#x40c;" horiz-adv-x="729" 
d="M324 756l499 706h109l-506 -714l229 -748h-108l-225 748l-158 -748h-98l309 1462h98zM586 1579v16q154 186 223 312h139v-17q-42 -63 -136 -156t-175 -155h-51z" />
    <glyph glyph-name="afii10062" unicode="&#x40e;" horiz-adv-x="616" 
d="M285 428l-58 1034h99l30 -680l2 -111v-102h9q17 51 77 201l308 692h98l-555 -1237q-61 -134 -115.5 -187.5t-132.5 -53.5q-54 0 -86 16v92q34 -18 80 -18q52 0 88 42t82 144zM550 1579q-99 0 -151 56.5t-52 152.5q0 34 6 72h82q-4 -25 -4 -68q0 -66 28.5 -101.5
t96.5 -35.5q71 0 113 50.5t67 154.5h86q-35 -146 -99.5 -213.5t-172.5 -67.5z" />
    <glyph glyph-name="afii10145" unicode="&#x40f;" horiz-adv-x="924" 
d="M379 1462h98l-291 -1368h441l291 1368h98l-311 -1462h-271l-78 -369h-96l78 369h-270z" />
    <glyph glyph-name="afii10017" unicode="&#x410;" horiz-adv-x="731" 
d="M555 0v530h-307l-221 -530h-105l606 1468h123v-1468h-96zM555 629v370l6 355q-15 -52 -52 -152t-226 -573h272z" />
    <glyph glyph-name="afii10018" unicode="&#x411;" horiz-adv-x="778" 
d="M455 1368l-119 -555h84q158 0 240.5 -79t82.5 -234q0 -232 -119 -366t-327 -134h-231l309 1462h514l-19 -94h-415zM182 90h135q154 0 239 108.5t85 299.5q0 115 -61.5 170t-188.5 55h-74z" />
    <glyph glyph-name="afii10019" unicode="&#x412;" horiz-adv-x="817" 
d="M375 1462h225q130 0 208.5 -75t78.5 -199q0 -167 -74.5 -279t-204.5 -137l-2 -6q73 -19 118.5 -89.5t45.5 -166.5q0 -151 -51 -267t-148 -179.5t-233 -63.5h-272zM336 813h147q90 0 158 46t105.5 129.5t37.5 187.5q0 97 -51 143.5t-155 46.5h-123zM317 719l-133 -625h158
q154 0 240 107.5t86 292.5q0 104 -51 164.5t-142 60.5h-158z" />
    <glyph glyph-name="afii10020" unicode="&#x413;" horiz-adv-x="598" 
d="M784 1462l-22 -100h-311l-287 -1362h-98l309 1462h409z" />
    <glyph glyph-name="afii10021" unicode="&#x414;" horiz-adv-x="844" 
d="M670 -369h-99l80 369h-602l-78 -369h-98l98 463h78q150 273 278.5 630t209.5 738h409l-291 -1368h113zM557 94l270 1274h-213q-59 -248 -141 -497.5t-166 -448t-157 -328.5h407z" />
    <glyph glyph-name="afii10022" unicode="&#x415;" horiz-adv-x="709" 
d="M543 0h-477l309 1462h477l-21 -96h-376l-117 -553h354l-20 -94h-355l-133 -625h377z" />
    <glyph glyph-name="afii10024" unicode="&#x416;" horiz-adv-x="1010" 
d="M688 1462h98l-149 -704l491 704h103l-498 -712l199 -750h-105l-192 750l-158 -750h-98l158 748l-500 -748h-113l516 760l-200 702h100l199 -706z" />
    <glyph glyph-name="afii10025" unicode="&#x417;" horiz-adv-x="731" 
d="M782 1206q0 -172 -83.5 -290.5t-223.5 -151.5l-2 -6q170 -63 170 -295q0 -214 -113.5 -348.5t-298.5 -134.5q-152 0 -237 49v114q90 -69 225 -69q151 0 237.5 103.5t86.5 271.5q0 131 -56.5 196.5t-162.5 65.5h-105l19 94h100q147 0 246.5 111t99.5 278q0 195 -176 195
q-55 0 -98.5 -15t-114.5 -69l-47 81q116 97 260 97q128 0 201 -74.5t73 -202.5z" />
    <glyph glyph-name="afii10026" unicode="&#x418;" horiz-adv-x="981" 
d="M375 1462h96l-209 -989q-32 -150 -65 -274h8l745 1263h119l-309 -1462h-96l215 1018q36 169 69 262h-8l-758 -1280h-116z" />
    <glyph glyph-name="afii10027" unicode="&#x419;" horiz-adv-x="981" 
d="M375 1462h96l-209 -989q-32 -150 -65 -274h8l745 1263h119l-309 -1462h-96l215 1018q36 169 69 262h-8l-758 -1280h-116zM748 1579q-99 0 -151 56.5t-52 152.5q0 34 6 72h82q-4 -25 -4 -68q0 -66 28.5 -101.5t96.5 -35.5q71 0 113 50.5t67 154.5h86
q-35 -146 -99.5 -213.5t-172.5 -67.5z" />
    <glyph glyph-name="afii10028" unicode="&#x41a;" horiz-adv-x="729" 
d="M324 756l499 706h109l-506 -714l229 -748h-108l-225 748l-158 -748h-98l309 1462h98z" />
    <glyph glyph-name="afii10029" unicode="&#x41b;" horiz-adv-x="838" 
d="M635 0h-98l290 1368h-241q-133 -470 -229.5 -789.5t-137.5 -412t-88 -134.5t-113 -42q-36 0 -81 12v94q30 -12 65 -12q53 0 97 59.5t81 175.5q106 340 242 811l96 332h428z" />
    <glyph glyph-name="afii10030" unicode="&#x41c;" horiz-adv-x="1255" 
d="M494 0l-52 1331h-6l-44 -240l-230 -1091h-96l309 1462h160l34 -1108l4 -164l-2 -88h2q17 50 107 250l494 1110h169l-309 -1462h-100l238 1122l49 207h-4l-596 -1329h-127z" />
    <glyph glyph-name="afii10031" unicode="&#x41d;" horiz-adv-x="924" 
d="M702 0h-98l152 717h-441l-151 -717h-98l309 1462h98l-137 -647h440l137 647h99z" />
    <glyph glyph-name="afii10032" unicode="&#x41e;" horiz-adv-x="958" 
d="M412 -20q-277 0 -277 399q0 196 46 414t124.5 376.5t178.5 236t218 77.5q275 0 275 -383q0 -284 -80 -557t-207 -418t-278 -145zM233 377q0 -303 187 -303q92 0 173.5 80.5t144.5 230t102 349.5t39 366q0 289 -187 289q-91 0 -171.5 -73.5t-144.5 -220.5t-103.5 -350
t-39.5 -368z" />
    <glyph glyph-name="afii10033" unicode="&#x41f;" horiz-adv-x="924" 
d="M702 0h-98l291 1368h-442l-289 -1368h-98l309 1462h637z" />
    <glyph glyph-name="afii10034" unicode="&#x420;" horiz-adv-x="772" 
d="M858 1155q0 -157 -57 -283t-164 -197t-250 -71h-96l-127 -604h-98l309 1462h170q145 0 229 -83.5t84 -223.5zM311 698h70q178 0 275.5 115.5t97.5 325.5q0 107 -58.5 167t-165.5 60h-77z" />
    <glyph glyph-name="afii10035" unicode="&#x421;" horiz-adv-x="727" 
d="M739 1389q-130 0 -245.5 -129t-188 -355.5t-72.5 -437.5q0 -204 51.5 -299.5t172.5 -95.5q76 0 172 39v-95q-94 -36 -187 -36q-153 0 -230 115.5t-77 353.5q0 256 85.5 504.5t226 390t303.5 141.5q122 0 196 -62l-61 -86q-60 52 -146 52z" />
    <glyph glyph-name="afii10036" unicode="&#x422;" horiz-adv-x="639" 
d="M291 0h-101l289 1366h-256l21 96h612l-20 -96h-256z" />
    <glyph glyph-name="afii10037" unicode="&#x423;" horiz-adv-x="616" 
d="M285 428l-58 1034h99l30 -680l2 -111v-102h9q17 51 77 201l308 692h98l-555 -1237q-61 -134 -115.5 -187.5t-132.5 -53.5q-54 0 -86 16v92q34 -18 80 -18q52 0 88 42t82 144z" />
    <glyph glyph-name="afii10038" unicode="&#x424;" horiz-adv-x="1083" 
d="M721 1483h96l-37 -180q303 -21 303 -385q0 -190 -73 -359.5t-193.5 -260t-269.5 -93.5l-49 -225h-97l50 225q-301 21 -301 387q0 193 70 358.5t190 255.5t274 97zM565 295q117 2 209.5 82t149.5 234t57 321q0 135 -56 207.5t-165 72.5zM664 1212q-121 -3 -213.5 -81.5
t-146.5 -226.5t-54 -322q0 -276 219 -287z" />
    <glyph glyph-name="afii10039" unicode="&#x425;" horiz-adv-x="651" 
d="M547 0h-101l-53 666l-348 -666h-102l419 791l-81 671h100l68 -606l307 606h100l-377 -719z" />
    <glyph glyph-name="afii10040" unicode="&#x426;" horiz-adv-x="942" 
d="M733 94h98l-98 -463h-98l80 369h-639l311 1462h98l-290 -1368h440l291 1368h98z" />
    <glyph glyph-name="afii10041" unicode="&#x427;" horiz-adv-x="901" 
d="M670 0h-99l134 627q-87 -55 -146 -75t-113 -20q-109 0 -173 60.5t-64 183.5q0 64 14 123l119 563h100l-123 -575q-12 -56 -12 -99q0 -78 40.5 -119.5t119.5 -41.5q58 0 114.5 17.5t141.5 68.5l158 749h98z" />
    <glyph glyph-name="afii10042" unicode="&#x428;" horiz-adv-x="1266" 
d="M1044 0h-978l309 1462h98l-291 -1368h342l291 1368h98l-290 -1368h342l290 1368h99z" />
    <glyph glyph-name="afii10043" unicode="&#x429;" horiz-adv-x="1274" 
d="M1165 94l-98 -463h-94l78 369h-985l309 1462h98l-291 -1368h342l291 1368h98l-290 -1368h344l290 1368h99l-291 -1368h100z" />
    <glyph glyph-name="afii10044" unicode="&#x42a;" horiz-adv-x="928" 
d="M467 1366h-262l20 96h361l-137 -649h83q158 0 241 -78.5t83 -234.5q0 -230 -119.5 -365t-326.5 -135h-232zM295 90h135q154 0 239 108.5t85 299.5q0 115 -61.5 170t-188.5 55h-74z" />
    <glyph glyph-name="afii10045" unicode="&#x42b;" horiz-adv-x="1155" 
d="M934 0h-98l309 1462h98zM473 1462l-137 -649h84q158 0 240.5 -79t82.5 -234q0 -232 -119 -366t-327 -134h-231l309 1462h98zM182 90h135q154 0 239 108.5t85 299.5q0 115 -61.5 170t-188.5 55h-74z" />
    <glyph glyph-name="afii10046" unicode="&#x42c;" horiz-adv-x="786" 
d="M471 1462l-135 -649h80q160 0 243.5 -80.5t83.5 -232.5q0 -232 -119 -366t-327 -134h-231l307 1462h98zM182 90h135q154 0 239 108.5t85 299.5q0 115 -61.5 170t-188.5 55h-74z" />
    <glyph glyph-name="afii10047" unicode="&#x42d;" horiz-adv-x="774" 
d="M492 1485q140 0 218 -110t78 -320q0 -318 -73.5 -566.5t-206 -378.5t-309.5 -130q-112 0 -199 34v99q105 -39 199 -39q169 0 287 159.5t171 485.5h-415l20 94h408q20 118 20 231q0 169 -57 258t-162 89q-90 0 -180 -56l-35 90q99 60 236 60z" />
    <glyph glyph-name="afii10048" unicode="&#x42e;" horiz-adv-x="1245" 
d="M1272 1116q0 -256 -75 -532.5t-200 -440t-272 -163.5q-248 0 -248 364q0 152 47 375h-209l-151 -719h-98l309 1462h98l-137 -649h207q83 348 201.5 509t281.5 161q119 0 182.5 -95t63.5 -272zM1010 1389q-109 0 -208.5 -159.5t-163 -424t-63.5 -465.5q0 -266 158 -266
q107 0 206 147t167 412t68 491q0 126 -38 195.5t-126 69.5z" />
    <glyph glyph-name="afii10049" unicode="&#x42f;" horiz-adv-x="788" 
d="M477 637l-401 -637h-113l426 662q-83 36 -127.5 120.5t-44.5 206.5q0 141 54 248.5t156.5 166t244.5 58.5h205l-310 -1462h-98l135 637h-127zM760 1372h-96q-160 0 -252.5 -99.5t-92.5 -277.5q0 -270 226 -270h78z" />
    <glyph glyph-name="afii10065" unicode="&#x430;" horiz-adv-x="817" 
d="M319 -20q-200 0 -200 282q0 209 62.5 414t162 317.5t217.5 112.5q134 0 174 -150h6l39 129h80l-229 -1085h-76l18 156h-4q-114 -176 -250 -176zM338 63q90 0 168 104t132 304t54 377q0 83 -35.5 125.5t-99.5 42.5q-88 0 -163 -101.5t-126 -297.5t-51 -369
q0 -91 26.5 -138t94.5 -47z" />
    <glyph glyph-name="afii10066" unicode="&#x431;" horiz-adv-x="766" 
d="M213 291q0 -225 127 -225q87 0 156 85t113 254t44 314q0 103 -35 149.5t-104 46.5q-66 0 -133.5 -54.5t-114.5 -153.5q-53 -267 -53 -416zM928 1563v-86q-210 -20 -319 -74t-177.5 -171t-134.5 -374h8q97 148 242 148q100 0 152.5 -74t52.5 -213q0 -127 -34.5 -275
t-89.5 -250t-129 -158t-165 -56q-97 0 -156 77.5t-59 235.5q0 190 71 499.5t152.5 458.5t207.5 218t378 94z" />
    <glyph glyph-name="afii10067" unicode="&#x432;" horiz-adv-x="803" 
d="M721 319q0 -148 -94 -243.5t-244 -95.5q-264 0 -264 307q0 230 64.5 423t172.5 294.5t242 101.5q101 0 163 -59.5t62 -155.5q0 -136 -71 -228t-193 -116v-4q78 -17 120 -76t42 -148zM238 506q-21 -141 -21 -213q0 -119 45 -174.5t133 -55.5q102 0 167 72.5t65 181.5
q0 92 -54 140.5t-155 48.5h-180zM584 1018q-116 0 -197 -104t-135 -326h182q81 0 148.5 33.5t107 96.5t39.5 156q0 69 -37.5 106.5t-107.5 37.5z" />
    <glyph glyph-name="afii10068" unicode="&#x433;" horiz-adv-x="584" 
d="M55 225q0 90 27 154.5t74 114t176 127.5q97 58 134.5 94t58 79.5t20.5 102.5q0 57 -31.5 88t-91.5 31q-51 0 -93.5 -16t-84.5 -39l-27 81q105 64 213 64q97 0 153 -53t56 -152q0 -74 -25 -131t-69.5 -102t-155.5 -113q-46 -29 -89 -57t-76.5 -65t-53.5 -86.5t-20 -121.5
q0 -77 40 -117t115 -40q59 0 103 21t79 46v-102q-90 -53 -196 -53q-108 0 -172 65t-64 180z" />
    <glyph glyph-name="afii10069" unicode="&#x434;" horiz-adv-x="793" 
d="M817 1065q0 -306 -61 -564.5t-164 -389.5t-236 -131q-110 0 -173.5 83t-63.5 226q0 188 55.5 380t145.5 287t208 95q63 0 119 -33t80 -86l2 184q0 367 -231 367q-66 0 -144 -39l-30 84q90 45 184 45q159 0 234 -118t75 -390zM356 66q90 0 163.5 89.5t126 272t65.5 395.5
q-23 64 -73.5 101t-115.5 37q-86 0 -154 -84.5t-109.5 -251t-41.5 -334.5q0 -116 34.5 -170.5t104.5 -54.5z" />
    <glyph glyph-name="afii10070" unicode="&#x435;" horiz-adv-x="723" 
d="M373 -20q-120 0 -187 83.5t-67 233.5q0 214 60.5 401.5t164 297.5t217.5 110q87 0 134.5 -50.5t47.5 -152.5q0 -123 -59.5 -215t-170 -137t-263.5 -45h-12q-21 -99 -21 -199q0 -241 184 -241q47 0 88.5 13t94.5 44v-96q-84 -47 -211 -47zM545 1018q-89 0 -169 -118
t-126 -312q399 0 399 317q0 53 -22.5 83t-81.5 30z" />
    <glyph glyph-name="afii10072" unicode="&#x436;" horiz-adv-x="1092" 
d="M659 588h136q53 245 156.5 377.5t242.5 132.5h22l21 -2l-18 -86l-16 2h-17q-93 0 -168 -95t-121.5 -274t-46.5 -362q0 -109 37 -160t114 -51h18l15 2v-80q-22 -4 -49 -4q-223 0 -223 291q0 112 18 229h-139l-106 -508h-91l109 508h-135q-54 -253 -157 -386.5t-243 -133.5
h-21l-22 2l19 86l16 -2h17q92 0 167.5 95.5t121.5 274.5t46 361q0 115 -39.5 163t-111.5 48h-17l-16 -2v80q22 4 49 4q224 0 224 -291q0 -101 -19 -219h137l107 497h90z" />
    <glyph glyph-name="afii10073" unicode="&#x437;" horiz-adv-x="580" 
d="M291 618q87 0 148 76t61 183q0 139 -125 139q-74 0 -131 -37l-33 82q82 45 178 45q100 0 152.5 -57t52.5 -160q0 -110 -51 -190.5t-144 -114.5l-2 -9q64 -26 91.5 -82.5t27.5 -148.5q0 -102 -37.5 -185.5t-106 -131t-161.5 -47.5q-136 0 -203 51v106q90 -67 189 -67
q112 0 168.5 71.5t56.5 202.5q0 88 -37 138t-100 50h-84l18 86h72z" />
    <glyph glyph-name="afii10074" unicode="&#x438;" horiz-adv-x="786" 
d="M395 1085l-162 -755q-18 -78 -18 -135q0 -123 94 -123q209 0 297 417l127 596h94l-231 -1085h-74l8 135h-4q-101 -155 -239 -155q-164 0 -164 198q0 79 20 166l158 741h94z" />
    <glyph glyph-name="afii10075" unicode="&#x439;" horiz-adv-x="786" 
d="M395 1085l-162 -755q-18 -78 -18 -135q0 -123 94 -123q209 0 297 417l127 596h94l-231 -1085h-74l8 135h-4q-101 -155 -239 -155q-164 0 -164 198q0 79 20 166l158 741h94zM583 1241q-99 0 -151 56.5t-52 152.5q0 34 6 72h82q-4 -25 -4 -68q0 -66 28.5 -101.5t96.5 -35.5
q71 0 113 50.5t67 154.5h86q-35 -146 -99.5 -213.5t-172.5 -67.5z" />
    <glyph glyph-name="afii10076" unicode="&#x43a;" horiz-adv-x="623" 
d="M664 1085h106l-385 -518l178 -567h-104l-172 567l-121 -567h-94l231 1085h94l-108 -510z" />
    <glyph glyph-name="afii10077" unicode="&#x43b;" horiz-adv-x="698" 
d="M655 993q-24 6 -55 6q-70 0 -117.5 -47t-83 -136.5t-82.5 -311.5q-41 -187 -83 -298.5t-93 -163.5t-127 -52q-32 0 -53 8v88q18 -6 45 -6q50 0 83 42.5t65.5 136t70.5 257.5q51 225 86 315t78 145t99 84.5t128 29.5q60 0 150 -15l-227 -1075h-95z" />
    <glyph glyph-name="afii10078" unicode="&#x43c;" horiz-adv-x="948" 
d="M365 0l-5 924h-8l-47 -267l-141 -657h-92l231 1085h135l3 -794l-7 -176h6q10 26 44 112t370 858h137l-231 -1085h-92l139 651q15 73 67 273h-8l-401 -924h-100z" />
    <glyph glyph-name="afii10079" unicode="&#x43d;" horiz-adv-x="795" 
d="M397 1085l-100 -475h344l100 475h95l-232 -1085h-94l113 524h-344l-113 -524h-94l231 1085h94z" />
    <glyph glyph-name="afii10080" unicode="&#x43e;" horiz-adv-x="780" 
d="M340 -20q-107 0 -164 80t-57 227q0 142 36 305t94 276.5t136 175.5t174 62q106 0 165.5 -82.5t59.5 -232.5q0 -139 -36.5 -298.5t-95.5 -274t-138 -176.5t-174 -62zM217 268q0 -202 135 -202q89 0 164 101.5t122.5 286.5t47.5 357q0 205 -139 205q-84 0 -157.5 -98
t-123 -286t-49.5 -364z" />
    <glyph glyph-name="afii10081" unicode="&#x43f;" horiz-adv-x="795" 
d="M836 1085l-232 -1085h-94l213 999h-344l-213 -999h-94l231 1085h533z" />
    <glyph glyph-name="afii10082" unicode="&#x440;" horiz-adv-x="803" 
d="M614 1106q201 0 201 -283q0 -210 -63 -414.5t-162 -316.5t-217 -112q-68 0 -115 41t-59 110h-6l-125 -602h-95l330 1556h82l-25 -155h5q114 176 249 176zM596 1022q-94 0 -173 -104.5t-130 -294t-51 -371.5q0 -186 135 -186q88 0 163.5 103.5t126 299.5t50.5 369
q0 91 -26.5 137.5t-94.5 46.5z" />
    <glyph glyph-name="afii10083" unicode="&#x441;" horiz-adv-x="588" 
d="M358 -20q-116 0 -177.5 80t-61.5 231q0 217 63 413.5t163 299t224 102.5q86 0 144 -33l-39 -86q-53 29 -113 29q-92 0 -168.5 -97t-126 -277t-49.5 -353q0 -223 160 -223q63 0 143 40v-86q-75 -40 -162 -40z" />
    <glyph glyph-name="afii10084" unicode="&#x442;" horiz-adv-x="1171" 
d="M891 0l172 813q10 47 10 84q0 115 -94 115q-82 0 -146 -71.5t-88 -188.5l-157 -752h-94l168 799q12 58 12 98q0 115 -99 115q-101 0 -168 -96t-114 -320l-127 -596h-94l229 1085h80l-25 -151h4q91 172 240 172q73 0 114.5 -36t51.5 -114q51 75 107 112.5t131 37.5
q77 0 119 -50t42 -149q0 -57 -14 -121l-166 -786h-94z" />
    <glyph glyph-name="afii10085" unicode="&#x443;" horiz-adv-x="588" 
d="M-68 -492q-46 0 -90 19v86q37 -16 88 -16q54 0 92.5 43.5t94.5 173.5l71 170l-8 1101h94v-639q0 -161 -12 -323h6q53 157 97 264l288 698h99l-562 -1329q-58 -138 -116 -193t-142 -55z" />
    <glyph glyph-name="afii10086" unicode="&#x444;" horiz-adv-x="899" 
d="M899 754q0 -189 -66.5 -379.5t-170.5 -292t-228 -107.5l-98 -467h-86l100 472q-110 12 -170.5 106t-60.5 252q0 193 64 375.5t168 281t237 111.5l90 450h92l-94 -452q223 -28 223 -350zM565 1020q-98 -17 -175 -107t-126 -250.5t-49 -324.5q0 -120 38 -190.5t109 -81.5z
M455 66q91 6 168.5 99t128.5 262t51 327q0 124 -35 189t-111 77z" />
    <glyph glyph-name="afii10087" unicode="&#x445;" horiz-adv-x="608" 
d="M313 571l-92 514h96l70 -434l250 434h100l-327 -538l108 -547h-96l-80 461l-268 -461h-101z" />
    <glyph glyph-name="afii10088" unicode="&#x446;" horiz-adv-x="807" 
d="M395 1085l-162 -755q-18 -78 -18 -135q0 -123 94 -123q209 0 297 417l127 596h94l-194 -909l-4 -31q0 -55 63 -55l41 4l-98 -463h-96l75 365q-43 10 -63.5 41t-20.5 98h-4q-101 -155 -239 -155q-164 0 -164 198q0 79 20 166l158 741h94z" />
    <glyph glyph-name="afii10089" unicode="&#x447;" horiz-adv-x="776" 
d="M377 1085l-96 -448q-7 -32 -7 -59q0 -117 105 -117q213 0 289 362l55 262h94l-231 -1085h-94l110 510q-43 -61 -111 -99t-143 -38t-121.5 47t-46.5 141q0 46 13 98l90 426h94z" />
    <glyph glyph-name="afii10090" unicode="&#x448;" horiz-adv-x="1182" 
d="M799 1085l-162 -755q-19 -82 -19 -135q0 -123 95 -123q98 0 160 98t108 319l127 596h94l-233 -1085h-74l8 117h-4q-49 -74 -96 -105.5t-113 -31.5q-138 0 -162 145q-54 -74 -109.5 -109.5t-131.5 -35.5q-164 0 -164 198q0 79 20 166l158 741h94l-162 -755
q-18 -78 -18 -135q0 -123 94 -123q89 0 149.5 83.5t108.5 290.5l138 639h94z" />
    <glyph glyph-name="afii10091" unicode="&#x449;" horiz-adv-x="1182" 
d="M799 1085l-162 -755q-19 -82 -19 -135q0 -123 95 -123q98 0 160 98t108 319l127 596h94l-194 -909l-4 -31q0 -55 63 -55l41 4l-98 -463h-97l76 365q-31 7 -48.5 20t-25.5 33t-10 68h-4q-45 -71 -94 -104t-117 -33q-138 0 -162 145q-54 -74 -109.5 -109.5t-131.5 -35.5
q-164 0 -164 198q0 79 20 166l158 741h94l-162 -755q-18 -78 -18 -135q0 -123 94 -123q89 0 149.5 83.5t108.5 290.5l138 639h94z" />
    <glyph glyph-name="afii10092" unicode="&#x44a;" horiz-adv-x="801" 
d="M381 592q50 6 115 6q241 -5 241 -272q0 -151 -84.5 -248.5t-216.5 -97.5q-221 0 -221 227q0 71 16 141l140 651h-211l18 86h303zM643 319q0 193 -160 193q-41 0 -118 -8l-39 -166q-17 -66 -17 -125q0 -152 131 -152q91 0 147 70.5t56 187.5z" />
    <glyph glyph-name="afii10093" unicode="&#x44b;" horiz-adv-x="1004" 
d="M813 0h-96l231 1085h96zM397 1085l-104 -493q50 6 117 6q241 -5 241 -272q0 -146 -86 -246t-215 -100q-221 0 -221 227q0 71 16 141l158 737h94zM557 319q0 193 -160 193q-44 0 -121 -8l-36 -166q-17 -66 -17 -125q0 -152 131 -152q88 0 145.5 72.5t57.5 185.5z" />
    <glyph glyph-name="afii10094" unicode="&#x44c;" horiz-adv-x="707" 
d="M397 1085l-104 -493q49 6 123 6q241 -5 241 -272q0 -150 -87.5 -248t-219.5 -98q-221 0 -221 227q0 71 16 141l158 737h94zM563 319q0 193 -160 193q-47 0 -124 -8l-39 -166q-17 -66 -17 -125q0 -152 131 -152q92 0 150.5 70.5t58.5 187.5z" />
    <glyph glyph-name="afii10095" unicode="&#x44d;" horiz-adv-x="614" 
d="M227 524l19 86h258q18 108 18 189q0 217 -168 217q-69 0 -131 -35l-20 84q85 41 178 41q112 0 173.5 -76t61.5 -219q0 -232 -59 -428t-162 -299.5t-239 -103.5q-81 0 -154 26v94q67 -30 139 -30q130 0 216 106t135 348h-265z" />
    <glyph glyph-name="afii10096" unicode="&#x44e;" horiz-adv-x="1057" 
d="M1061 811q0 -200 -58 -401.5t-154 -315.5t-206 -114q-215 0 -215 286q0 122 29 258h-181l-112 -524h-92l231 1085h92l-100 -475h180q56 239 152.5 367.5t226.5 128.5q207 0 207 -295zM846 1016q-85 0 -157.5 -102.5t-120.5 -292t-48 -357.5q0 -99 29 -148.5t94 -49.5
q85 0 157.5 102t120.5 289.5t48 353.5q0 109 -30.5 157t-92.5 48z" />
    <glyph glyph-name="afii10097" unicode="&#x44f;" horiz-adv-x="717" 
d="M436 479q-37 0 -65 -21t-51.5 -58.5t-69.5 -153.5l-38 -96q-31 -78 -74 -116t-107 -40q-32 0 -60 6v82q13 -6 45 -6q74 2 122 127q54 143 77 188.5t47.5 77t48.5 41.5q-131 47 -131 225q0 158 98.5 254t268.5 96h211l-232 -1085h-94l103 479h-99zM553 565l92 434h-115
q-117 0 -184 -72t-67 -200q0 -82 43 -122t139 -40h92z" />
    <glyph glyph-name="afii10071" unicode="&#x451;" horiz-adv-x="723" 
d="M373 -20q-120 0 -187 83.5t-67 233.5q0 214 60.5 401.5t164 297.5t217.5 110q87 0 134.5 -50.5t47.5 -152.5q0 -123 -59.5 -215t-170 -137t-263.5 -45h-12q-21 -99 -21 -199q0 -241 184 -241q47 0 88.5 13t94.5 44v-96q-84 -47 -211 -47zM545 1018q-89 0 -169 -118
t-126 -312q399 0 399 317q0 53 -22.5 83t-81.5 30zM407 1362q0 49 22.5 81t59.5 32q47 0 47 -58q0 -53 -21.5 -86t-58.5 -33q-49 0 -49 64zM679 1362q0 49 23 81t59 32q47 0 47 -58q0 -53 -21.5 -86t-58.5 -33q-49 0 -49 64z" />
    <glyph glyph-name="afii10099" unicode="&#x452;" horiz-adv-x="782" 
d="M254 1354h106l43 202h95l-45 -202h227l-16 -84h-230l-35 -168l-41 -168h4q93 172 242 172q84 0 130 -48.5t46 -139.5q0 -56 -14 -121l-188 -885q-36 -165 -67.5 -242.5t-73.5 -110t-115 -32.5q-55 0 -89 10v92q37 -12 84 -12t73 26.5t47.5 88.5t47.5 186l191 897
q10 40 10 84q0 113 -100 113q-105 0 -176 -101t-115 -315l-127 -596h-94l268 1270h-104z" />
    <glyph glyph-name="afii10100" unicode="&#x453;" horiz-adv-x="584" 
d="M55 225q0 90 27 154.5t74 114t176 127.5q97 58 134.5 94t58 79.5t20.5 102.5q0 57 -31.5 88t-91.5 31q-51 0 -93.5 -16t-84.5 -39l-27 81q105 64 213 64q97 0 153 -53t56 -152q0 -74 -25 -131t-69.5 -102t-155.5 -113q-46 -29 -89 -57t-76.5 -65t-53.5 -86.5t-20 -121.5
q0 -77 40 -117t115 -40q59 0 103 21t79 46v-102q-90 -53 -196 -53q-108 0 -172 65t-64 180zM421 1241v16q154 186 223 312h139v-17q-42 -63 -136 -156t-175 -155h-51z" />
    <glyph glyph-name="afii10101" unicode="&#x454;" horiz-adv-x="618" 
d="M348 -20q-106 0 -167.5 72.5t-61.5 226.5q0 217 63 416.5t163 305t224 105.5q86 0 144 -33l-39 -86q-53 29 -113 29q-98 0 -177.5 -107t-125.5 -299h258l-18 -86h-258q-23 -115 -23 -243q0 -116 37.5 -165.5t110.5 -49.5q75 0 155 40v-86q-30 -17 -81 -28.5t-91 -11.5z
" />
    <glyph glyph-name="afii10102" unicode="&#x455;" horiz-adv-x="594" 
d="M229 -20q-56 0 -117 14t-83 31v110q24 -24 80.5 -44.5t113.5 -20.5q97 0 151 56.5t54 160.5q0 44 -11 80.5t-28.5 67.5t-77.5 97q-65 71 -88 107.5t-36 78.5t-13 97q0 130 80 210.5t207 80.5q136 0 219 -62l-51 -86q-71 58 -172 58q-82 0 -135.5 -51.5t-53.5 -137.5
q0 -59 21.5 -107t81.5 -114q72 -78 97.5 -118t40.5 -87t15 -104q0 -152 -76.5 -234.5t-218.5 -82.5z" />
    <glyph glyph-name="afii10103" unicode="&#x456;" horiz-adv-x="348" 
d="M162 0h-94l231 1085h94zM346 1356q0 51 23 88t59 37q47 0 47 -58q0 -57 -22 -94t-58 -37q-49 0 -49 64z" />
    <glyph glyph-name="afii10104" unicode="&#x457;" horiz-adv-x="348" 
d="M162 0h-94l231 1085h94zM192 1362q0 49 22.5 81t59.5 32q47 0 47 -58q0 -53 -21.5 -86t-58.5 -33q-49 0 -49 64zM464 1362q0 49 23 81t59 32q47 0 47 -58q0 -53 -21.5 -86t-58.5 -33q-49 0 -49 64z" />
    <glyph glyph-name="afii10105" unicode="&#x458;" horiz-adv-x="348" 
d="M346 1356q0 51 23 88t59 37q47 0 47 -58q0 -57 -22 -94t-58 -37q-49 0 -49 64zM299 1085h94l-254 -1191q-34 -160 -65 -238t-73.5 -113t-117.5 -35q-51 0 -88 11v92q37 -12 84 -12t73 26.5t47.5 88.5t47.5 186z" />
    <glyph glyph-name="afii10106" unicode="&#x459;" horiz-adv-x="1028" 
d="M635 995q-10 4 -35 4q-70 0 -117.5 -47t-83 -136.5t-82.5 -311.5q-41 -187 -83 -298.5t-93 -163.5t-127 -52q-32 0 -53 8v88q18 -6 45 -6q50 0 83 42.5t65.5 136t70.5 257.5q51 225 86 315t78 145t99 84.5t128 29.5q26 0 68 -5t61 -10l-102 -483q50 6 109 6
q241 -5 241 -272q0 -150 -87.5 -248t-219.5 -98q-104 0 -155.5 52.5t-51.5 174.5q0 68 17 141zM899 319q0 193 -160 193q-33 0 -110 -8l-39 -166q-17 -68 -17 -125q0 -82 28 -117t89 -35q92 0 150.5 70.5t58.5 187.5z" />
    <glyph glyph-name="afii10107" unicode="&#x45a;" horiz-adv-x="1133" 
d="M397 1085l-100 -475h330l102 475h94l-102 -487q50 6 108 6q121 -3 180.5 -75.5t59.5 -202.5q0 -149 -83.5 -247.5t-215.5 -98.5q-215 0 -215 227q0 71 16 141l37 176h-329l-113 -524h-94l231 1085h94zM975 319q0 95 -39 147t-119 52q-33 0 -110 -8l-41 -172
q-17 -66 -17 -125q0 -152 127 -152q91 0 145 70t54 188z" />
    <glyph glyph-name="afii10108" unicode="&#x45b;" horiz-adv-x="782" 
d="M504 0l172 815q10 40 10 84q0 113 -100 113q-105 0 -176 -101t-115 -315l-127 -596h-94l270 1278h-131l16 84h131l43 194h95l-43 -194h200l-16 -84h-203l-37 -176l-41 -168h4q93 172 242 172q84 0 130 -48.5t46 -139.5q0 -56 -14 -121l-168 -797h-94z" />
    <glyph glyph-name="afii10109" unicode="&#x45c;" horiz-adv-x="623" 
d="M664 1085h106l-385 -518l178 -567h-104l-172 567l-121 -567h-94l231 1085h94l-108 -510zM464 1241v16q154 186 223 312h139v-17q-42 -63 -136 -156t-175 -155h-51z" />
    <glyph glyph-name="afii10110" unicode="&#x45e;" horiz-adv-x="588" 
d="M-68 -492q-46 0 -90 19v86q37 -16 88 -16q54 0 92.5 43.5t94.5 173.5l71 170l-8 1101h94v-639q0 -161 -12 -323h6q53 157 97 264l288 698h99l-562 -1329q-58 -138 -116 -193t-142 -55zM497 1241q-99 0 -151 56.5t-52 152.5q0 34 6 72h82q-4 -25 -4 -68q0 -66 28.5 -101.5
t96.5 -35.5q71 0 113 50.5t67 154.5h86q-35 -146 -99.5 -213.5t-172.5 -67.5z" />
    <glyph glyph-name="afii10193" unicode="&#x45f;" horiz-adv-x="782" 
d="M395 1085l-162 -755q-18 -78 -18 -135q0 -123 94 -123q209 0 297 417l127 596h94l-231 -1085h-74l8 135h-4q-101 -155 -239 -155q-164 0 -164 198q0 79 20 166l158 741h94zM371 -72h14l-106 -401h-95l109 364z" />
    <glyph glyph-name="afii10050" unicode="&#x490;" horiz-adv-x="616" 
d="M453 1368l-291 -1368h-99l312 1462h344l63 301h97l-84 -395h-342z" />
    <glyph glyph-name="afii10098" unicode="&#x491;" horiz-adv-x="532" 
d="M553 1085l68 326h90l-88 -416h-263l-210 -995h-95l232 1085h266z" />
    <glyph glyph-name="Wgrave" unicode="&#x1e80;" horiz-adv-x="1270" 
d="M1376 1462h101l-588 -1462h-121l47 1094l16 239l-79 -237l-426 -1096h-121l26 1462h101l-27 -1007q-7 -211 -18 -344l26 74l99 266l389 1011h108l-32 -970q-11 -253 -25 -381q85 241 127 344zM901 1579q-48 57 -101.5 151t-70.5 160v17h127q26 -156 84 -309v-19h-39z" />
    <glyph glyph-name="wgrave" unicode="&#x1e81;" horiz-adv-x="1012" 
d="M608 0l29 735l12 228q-40 -118 -54 -158t-308 -805h-117l20 1085h95l-13 -632q-4 -176 -22 -330h4q8 28 39.5 115t324.5 847h109l-16 -632q-3 -90 -15 -262l-4 -68h4l60 157l313 805h96l-436 -1085h-121zM732 1241q-48 57 -101.5 151t-70.5 160v17h127q26 -156 84 -309
v-19h-39z" />
    <glyph glyph-name="Wacute" unicode="&#x1e82;" horiz-adv-x="1270" 
d="M1376 1462h101l-588 -1462h-121l47 1094l16 239l-79 -237l-426 -1096h-121l26 1462h101l-27 -1007q-7 -211 -18 -344l26 74l99 266l389 1011h108l-32 -970q-11 -253 -25 -381q85 241 127 344zM801 1579v16q154 186 223 312h139v-17q-42 -63 -136 -156t-175 -155h-51z" />
    <glyph glyph-name="wacute" unicode="&#x1e83;" horiz-adv-x="1012" 
d="M608 0l29 735l12 228q-40 -118 -54 -158t-308 -805h-117l20 1085h95l-13 -632q-4 -176 -22 -330h4q8 28 39.5 115t324.5 847h109l-16 -632q-3 -90 -15 -262l-4 -68h4l60 157l313 805h96l-436 -1085h-121zM596 1241v16q154 186 223 312h139v-17q-42 -63 -136 -156
t-175 -155h-51z" />
    <glyph glyph-name="Wdieresis" unicode="&#x1e84;" horiz-adv-x="1270" 
d="M1376 1462h101l-588 -1462h-121l47 1094l16 239l-79 -237l-426 -1096h-121l26 1462h101l-27 -1007q-7 -211 -18 -344l26 74l99 266l389 1011h108l-32 -970q-11 -253 -25 -381q85 241 127 344zM680 1700q0 49 22.5 81t59.5 32q47 0 47 -58q0 -53 -21.5 -86t-58.5 -33
q-49 0 -49 64zM952 1700q0 49 23 81t59 32q47 0 47 -58q0 -53 -21.5 -86t-58.5 -33q-49 0 -49 64z" />
    <glyph glyph-name="wdieresis" unicode="&#x1e85;" horiz-adv-x="1012" 
d="M608 0l29 735l12 228q-40 -118 -54 -158t-308 -805h-117l20 1085h95l-13 -632q-4 -176 -22 -330h4q8 28 39.5 115t324.5 847h109l-16 -632q-3 -90 -15 -262l-4 -68h4l60 157l313 805h96l-436 -1085h-121zM508 1362q0 49 22.5 81t59.5 32q47 0 47 -58q0 -53 -21.5 -86
t-58.5 -33q-49 0 -49 64zM780 1362q0 49 23 81t59 32q47 0 47 -58q0 -53 -21.5 -86t-58.5 -33q-49 0 -49 64z" />
    <glyph glyph-name="Ygrave" unicode="&#x1ef2;" horiz-adv-x="616" 
d="M379 707l366 755h103l-447 -891l-120 -571h-101l121 571l-74 891h101zM554 1579q-48 57 -101.5 151t-70.5 160v17h127q26 -156 84 -309v-19h-39z" />
    <glyph glyph-name="ygrave" unicode="&#x1ef3;" horiz-adv-x="588" 
d="M-68 -492q-46 0 -90 19v86q37 -16 88 -16q54 0 92.5 43.5t94.5 173.5l71 170l-8 1101h94v-639q0 -161 -12 -323h6q53 157 97 264l288 698h99l-562 -1329q-58 -138 -116 -193t-142 -55zM465 1241q-48 57 -101.5 151t-70.5 160v17h127q26 -156 84 -309v-19h-39z" />
    <glyph glyph-name="endash" unicode="&#x2013;" horiz-adv-x="922" 
d="M123 512l16 82h774l-16 -82h-774z" />
    <glyph glyph-name="emdash" unicode="&#x2014;" horiz-adv-x="1843" 
d="M123 512l16 82h1696l-16 -82h-1696z" />
    <glyph glyph-name="afii00208" unicode="&#x2015;" horiz-adv-x="1843" 
d="M123 512l16 82h1696l-16 -82h-1696z" />
    <glyph glyph-name="underscoredbl" unicode="&#x2017;" horiz-adv-x="758" 
d="M729 -266h-764l17 82h763zM683 -490h-764l17 82h763z" />
    <glyph glyph-name="quoteleft" unicode="&#x2018;" horiz-adv-x="285" 
d="M147 1016q112 230 246 446h66q-43 -86 -98.5 -218.5t-92.5 -250.5h-112z" />
    <glyph glyph-name="quoteright" unicode="&#x2019;" horiz-adv-x="285" 
d="M459 1440q-95 -202 -244 -447h-65q119 255 190 469h111z" />
    <glyph glyph-name="quotesinglbase" unicode="&#x201a;" horiz-adv-x="379" 
d="M289 182q-102 -214 -244 -446h-65q41 88 96.5 224t89.5 245h115z" />
    <glyph glyph-name="quotereversed" unicode="&#x201b;" horiz-adv-x="285" 
d="M229 1462h115q-14 -123 -14 -288q0 -94 4 -181h-66q-43 227 -55 447z" />
    <glyph glyph-name="quotedblleft" unicode="&#x201c;" horiz-adv-x="539" 
d="M414 1016q115 237 245 446h64q-43 -86 -98.5 -218.5t-92.5 -250.5h-110zM160 1016q118 243 246 446h63q-49 -97 -103 -229.5t-87 -239.5h-111z" />
    <glyph glyph-name="quotedblright" unicode="&#x201d;" horiz-adv-x="539" 
d="M451 1440q-95 -202 -244 -447h-64q112 232 191 469h108zM705 1440q-95 -202 -244 -447h-64q112 232 191 469h110z" />
    <glyph glyph-name="quotedblbase" unicode="&#x201e;" horiz-adv-x="539" 
d="M227 182q-97 -207 -243 -446h-64q112 232 191 469h108zM481 182q-97 -207 -243 -446h-64q39 82 95.5 217t95.5 252h110z" />
    <glyph glyph-name="dagger" unicode="&#x2020;" horiz-adv-x="795" 
d="M825 1055l-258 10l-205 -1065h-112l250 1065l-248 -10l18 92l242 -19l70 428h112l-114 -428l264 19z" />
    <glyph glyph-name="daggerdbl" unicode="&#x2021;" horiz-adv-x="795" 
d="M432 446l266 11l-20 -92l-258 16l-60 -381h-112l104 381l-248 -16l21 92l240 -11l61 340l80 324l-246 -10l21 92l239 -18l60 382h112l-104 -382l266 18l-20 -92l-261 10l-57 -324z" />
    <glyph glyph-name="bullet" unicode="&#x2022;" horiz-adv-x="692" 
d="M211 748q0 120 56.5 180.5t160.5 60.5t160.5 -60.5t56.5 -180.5q0 -118 -56.5 -180t-160.5 -62q-103 0 -160 62t-57 180z" />
    <glyph glyph-name="ellipsis" unicode="&#x2026;" horiz-adv-x="1139" 
d="M117 53q0 60 27 102t75 42q27 0 42 -21t15 -55q0 -61 -27.5 -99t-70.5 -38q-25 0 -43 17.5t-18 51.5zM498 53q0 60 27 102t75 42q27 0 42 -21t15 -55q0 -61 -27.5 -99t-70.5 -38q-25 0 -43 17.5t-18 51.5zM879 53q0 60 27 102t75 42q27 0 42 -21t15 -55q0 -61 -27.5 -99
t-70.5 -38q-25 0 -43 17.5t-18 51.5z" />
    <glyph glyph-name="perthousand" unicode="&#x2030;" horiz-adv-x="1546" 
d="M451 1405q-50 0 -99 -94t-85 -265.5t-36 -279.5q0 -117 62 -117q50 0 98.5 90.5t84.5 258.5t36 282q0 69 -15 97t-46 28zM594 1280q0 -154 -44.5 -329.5t-114.5 -280.5t-146 -105q-135 0 -135 203q0 156 42.5 332t111.5 279.5t149 103.5q62 0 99.5 -53.5t37.5 -149.5z
M1018 1462l-735 -1462h-84l739 1462h80zM926 819q-50 0 -97.5 -92t-84.5 -262t-37 -285q0 -117 61 -117q50 0 98.5 90.5t84.5 258.5t36 282q0 69 -15 97t-46 28zM1069 694q0 -153 -44.5 -328.5t-115 -280.5t-145.5 -105q-135 0 -135 202q0 158 43 334.5t111.5 278.5
t148.5 102q62 0 99.5 -53.5t37.5 -149.5zM1399 819q-50 0 -97.5 -92t-84.5 -262t-37 -285q0 -117 61 -117q50 0 98.5 90.5t84.5 258.5t36 282q0 69 -15 97t-46 28zM1542 694q0 -153 -44.5 -328.5t-115 -280.5t-145.5 -105q-135 0 -135 202q0 162 45.5 341.5t113.5 276.5
t144 97q62 0 99.5 -53.5t37.5 -149.5z" />
    <glyph glyph-name="minute" unicode="&#x2032;" horiz-adv-x="350" 
d="M412 1462l-138 -528h-61l82 528h117z" />
    <glyph glyph-name="second" unicode="&#x2033;" horiz-adv-x="616" 
d="M412 1462l-138 -528h-61l82 528h117zM680 1462l-139 -528h-62l84 528h117z" />
    <glyph glyph-name="guilsinglleft" unicode="&#x2039;" horiz-adv-x="461" 
d="M465 907l57 -41l-276 -340l125 -350l-64 -29l-180 367l4 27z" />
    <glyph glyph-name="guilsinglright" unicode="&#x203a;" horiz-adv-x="461" 
d="M106 147l-57 41l277 340l-125 351l63 28l180 -366l-4 -27z" />
    <glyph glyph-name="exclamdbl" unicode="&#x203c;" horiz-adv-x="756" 
d="M266 367h-61l203 1095h122zM96 53q0 61 28 102.5t75 41.5q27 0 42 -21t15 -55q0 -61 -27.5 -99t-70.5 -38q-25 0 -43.5 17.5t-18.5 51.5zM616 367h-61l203 1095h122zM446 53q0 61 28 102.5t75 41.5q27 0 42 -21t15 -55q0 -61 -27.5 -99t-70.5 -38q-25 0 -43.5 17.5
t-18.5 51.5z" />
    <glyph glyph-name="fraction" unicode="&#x2044;" horiz-adv-x="240" 
d="M805 1462l-1122 -1462h-97l1123 1462h96z" />
    <glyph glyph-name="nsuperior" unicode="&#x207f;" horiz-adv-x="598" 
d="M479 817l78 371q16 76 16 123q0 94 -69 94t-110.5 -58.5t-67.5 -181.5l-74 -348h-84l137 651h64l-13 -92h6q34 51 72.5 77t97.5 26q63 0 95 -40.5t32 -115.5q0 -48 -12 -109l-84 -397h-84z" />
    <glyph glyph-name="franc" unicode="&#x20a3;" 
d="M82 379h127l229 1083h461l-18 -94h-361l-133 -620h338l-20 -95h-338l-58 -274h211l-18 -82h-211l-62 -297h-100l61 297h-127z" />
    <glyph glyph-name="afii08941" unicode="&#x20a4;" 
d="M111 563h141l43 193h-141l18 86h141l64 311q34 158 106 244t197 86q60 0 106.5 -17.5t100.5 -64.5l-64 -78q-63 70 -151 70q-79 0 -126.5 -62.5t-78.5 -210.5l-55 -278h221l-19 -86h-221l-43 -193h225l-18 -86h-225l-19 -82q-47 -223 -159 -301h456l-20 -94h-582l19 82
q63 28 112.5 107.5t75.5 203.5l18 84h-141z" />
    <glyph glyph-name="peseta" unicode="&#x20a7;" horiz-adv-x="1030" 
d="M784 1155q0 -158 -56 -283t-162.5 -196.5t-250.5 -71.5h-36l-127 -604h-97l310 1462h108q143 0 227 -82.5t84 -224.5zM299 698h23q170 0 265 115.5t95 325.5q0 107 -58.5 167t-164.5 60h-19zM950 80v-78q-61 -22 -106 -22q-119 0 -119 147q0 46 12 104l109 512h-90l12 56
l94 28l80 258h70l-56 -258h144l-19 -84h-143l-102 -485q-15 -60 -15 -113q0 -77 70 -77q29 0 59 12z" />
    <glyph glyph-name="Euro" unicode="&#x20ac;" 
d="M729 1389q-122 0 -227.5 -131t-169.5 -359h323l-18 -82h-326q-17 -72 -35 -201h291l-18 -81h-279v-68q0 -213 46 -304t151 -91q91 0 158 39l16 -91q-78 -40 -195 -40q-137 0 -205.5 120t-68.5 349l2 86h-131l18 81h119q11 112 31 201h-109l19 82h110q73 271 208.5 428.5
t295.5 157.5q116 0 180 -62l-55 -86q-52 52 -131 52z" />
    <glyph glyph-name="afii61248" unicode="&#x2105;" horiz-adv-x="1010" 
d="M979 1462l-741 -1462h-84l741 1462h84zM954 475q0 -118 -37.5 -238.5t-97 -182.5t-133.5 -62q-66 0 -108.5 50.5t-42.5 150.5q0 115 38 236.5t98 184t136 62.5q66 0 106.5 -51t40.5 -150zM801 594q-45 0 -84 -54t-65.5 -161.5t-26.5 -192.5q0 -112 67 -112q44 0 82 54
t66 165t28 190q0 111 -67 111zM369 788q-73 0 -119.5 54t-46.5 164q0 111 44 229.5t112.5 178t148.5 59.5q63 0 123 -29l-43 -82q-39 29 -80 29q-58 0 -104 -49t-76.5 -147.5t-30.5 -188.5q0 -136 100 -136q54 0 111 35l-19 -86q-54 -31 -120 -31z" />
    <glyph glyph-name="afii61289" unicode="&#x2113;" 
d="M475 68q74 0 106.5 52t34.5 181h91q-6 -163 -63 -241t-169 -78q-120 0 -176.5 82.5t-56.5 246.5v285q-32 -19 -67.5 -29.5t-70.5 -21.5v86q38 14 72 23t66 28v506q0 145 50.5 220t145.5 75q99 0 153 -77t54 -216q0 -185 -78 -328t-231 -231v-301q0 -130 33 -196t106 -66z
M551 1188q0 105 -30 157t-81 52q-54 0 -79 -47t-25 -162v-471q215 148 215 471z" />
    <glyph glyph-name="afii61352" unicode="&#x2116;" horiz-adv-x="1354" 
d="M1352 739q0 -114 -41 -229.5t-106.5 -175.5t-145.5 -60q-168 0 -168 205q0 117 38.5 233t102.5 176t144 60q85 0 130.5 -53.5t45.5 -155.5zM1167 862q-51 0 -92 -49.5t-66.5 -148t-25.5 -185.5q0 -62 20.5 -90.5t65.5 -28.5q53 0 95 47.5t69 141.5t27 190q0 59 -24 91
t-69 32zM1182 0h-365l17 86h364zM672 0h-121l-119 1284h-8q-3 -38 -16.5 -117.5t-243.5 -1166.5h-98l309 1462h131l112 -1272h7q15 127 41 250l217 1022h98z" />
    <glyph glyph-name="trademark" unicode="&#x2122;" horiz-adv-x="1378" 
d="M504 815h-78v578h-195v69h469v-69h-196v-578zM1042 815l-198 547h-4l2 -180v-367h-74v647h113l198 -544l203 544h111v-647h-76v356l2 187h-4l-205 -543h-68z" />
    <glyph glyph-name="Omega" unicode="&#x2126;" horiz-adv-x="973" 
d="M696 1389q-90 0 -170.5 -73.5t-143.5 -208.5t-101.5 -310.5t-38.5 -325.5q0 -233 102 -420l-10 -51h-346l18 94h223q-34 66 -59 172t-25 209q0 256 78.5 501.5t205 376t278.5 130.5q136 0 211 -101t75 -278q0 -266 -95 -536.5t-263 -473.5h225l-20 -94h-359l11 51
q185 189 291 464.5t106 571.5q0 302 -193 302z" />
    <glyph glyph-name="estimated" unicode="&#x212e;" horiz-adv-x="1141" 
d="M610 -35q-141 0 -249.5 73t-168 204t-59.5 288q0 172 62 299.5t172.5 197t242.5 69.5q137 0 246 -70.5t170 -200t61 -295.5h-743v-356q46 -55 120.5 -89t145.5 -34q118 0 200.5 52t156.5 182l63 -41q-87 -155 -185 -217t-235 -62zM879 616v277q-45 53 -118 86t-153 33
q-157 0 -264 -117v-279h535z" />
    <glyph glyph-name="oneeighth" unicode="&#x215b;" horiz-adv-x="1286" 
d="M1055 894q84 0 130 -50t46 -135q0 -79 -51 -144t-139 -101q60 -35 87 -85.5t27 -127.5q0 -121 -72.5 -196t-185.5 -75q-100 0 -152.5 51.5t-52.5 141.5q0 193 211 282q-52 47 -71 90.5t-19 100.5q0 108 67.5 178t174.5 70zM959 421q-77 -33 -126.5 -95t-49.5 -139
q0 -54 29.5 -89.5t90.5 -35.5q76 0 120 53.5t44 139.5q0 57 -27 95.5t-81 70.5zM1041 812q-60 0 -101 -42.5t-41 -109.5q0 -52 20 -89t70 -73q71 30 113.5 83.5t42.5 117.5q0 113 -104 113zM1254 1462l-1122 -1462h-97l1123 1462h96zM332 586h-86l151 692l21 86
q-45 -38 -68.5 -55.5t-129.5 -89.5l-35 69l244 174h90z" />
    <glyph glyph-name="threeeighths" unicode="&#x215c;" horiz-adv-x="1286" 
d="M1085 894q84 0 130 -50t46 -135q0 -79 -51 -144t-139 -101q60 -35 87 -85.5t27 -127.5q0 -121 -72.5 -196t-185.5 -75q-100 0 -152.5 51.5t-52.5 141.5q0 193 211 282q-52 47 -71 90.5t-19 100.5q0 108 67.5 178t174.5 70zM989 421q-77 -33 -126.5 -95t-49.5 -139
q0 -54 29.5 -89.5t90.5 -35.5q76 0 120 53.5t44 139.5q0 57 -27 95.5t-81 70.5zM1071 812q-60 0 -101 -42.5t-41 -109.5q0 -52 20 -89t70 -73q71 30 113.5 83.5t42.5 117.5q0 113 -104 113zM600 1292q0 -89 -46 -152.5t-120 -92.5l-2 -9q96 -53 96 -176q0 -128 -81 -210.5
t-209 -82.5q-115 0 -181 33v88q40 -24 79.5 -34.5t101.5 -10.5q88 0 145 60t57 149q0 74 -40 114t-105 40h-55l14 73h57q86 0 143.5 58.5t57.5 146.5q0 57 -27.5 88t-76.5 31q-50 0 -88 -16.5t-78 -45.5l-35 70q41 29 89.5 50.5t117.5 21.5q85 0 135.5 -53t50.5 -140z
M1294 1462l-1122 -1462h-97l1123 1462h96z" />
    <glyph glyph-name="fiveeighths" unicode="&#x215d;" horiz-adv-x="1286" 
d="M1092 894q84 0 130 -50t46 -135q0 -79 -51 -144t-139 -101q60 -35 87 -85.5t27 -127.5q0 -121 -72.5 -196t-185.5 -75q-100 0 -152.5 51.5t-52.5 141.5q0 193 211 282q-52 47 -71 90.5t-19 100.5q0 108 67.5 178t174.5 70zM996 421q-77 -33 -126.5 -95t-49.5 -139
q0 -54 29.5 -89.5t90.5 -35.5q76 0 120 53.5t44 139.5q0 57 -27 95.5t-81 70.5zM1078 812q-60 0 -101 -42.5t-41 -109.5q0 -52 20 -89t70 -73q71 30 113.5 83.5t42.5 117.5q0 113 -104 113zM205 1083l119 379h309l-19 -86h-237l-82 -260q36 10 72 10q88 0 139 -61t51 -156
q0 -93 -36 -171t-102.5 -123.5t-152.5 -45.5q-88 0 -160 37v92q66 -45 154 -45q98 0 153.5 68.5t55.5 177.5q0 74 -35 112t-98 38q-33 0 -94 -19zM1303 1462l-1122 -1462h-97l1123 1462h96z" />
    <glyph glyph-name="seveneighths" unicode="&#x215e;" horiz-adv-x="1286" 
d="M1079 894q84 0 130 -50t46 -135q0 -79 -51 -144t-139 -101q60 -35 87 -85.5t27 -127.5q0 -121 -72.5 -196t-185.5 -75q-100 0 -152.5 51.5t-52.5 141.5q0 193 211 282q-52 47 -71 90.5t-19 100.5q0 108 67.5 178t174.5 70zM983 421q-77 -33 -126.5 -95t-49.5 -139
q0 -54 29.5 -89.5t90.5 -35.5q76 0 120 53.5t44 139.5q0 57 -27 95.5t-81 70.5zM1065 812q-60 0 -101 -42.5t-41 -109.5q0 -52 20 -89t70 -73q71 30 113.5 83.5t42.5 117.5q0 113 -104 113zM1274 1462l-1122 -1462h-97l1123 1462h96zM203 586l391 790h-317l18 86h412
l-15 -69l-399 -807h-90z" />
    <glyph glyph-name="partialdiff" unicode="&#x2202;" horiz-adv-x="1071" 
d="M463 -20q-165 0 -254.5 102.5t-89.5 284.5q0 175 68.5 330t181.5 234t258 79q102 0 178.5 -57.5t124.5 -168.5q8 75 8 144q0 244 -71.5 355.5t-231.5 111.5q-61 0 -129 -18.5t-113 -41.5v99q128 51 256 51q198 0 293.5 -138t95.5 -411q0 -260 -76.5 -487.5t-206 -348
t-292.5 -120.5zM465 70q99 0 187.5 70t156.5 208t98 318q-81 254 -291 254q-112 0 -201 -71.5t-142.5 -206.5t-53.5 -275q0 -142 65 -219.5t181 -77.5z" />
    <glyph glyph-name="Delta" unicode="&#x2206;" horiz-adv-x="725" 
d="M651 92l-16 -92h-660l-12 98l565 1370h123v-1376zM66 98h491v901l4 355q-21 -75 -127 -353z" />
    <glyph glyph-name="product" unicode="&#x220f;" horiz-adv-x="1403" 
d="M1118 -492v1858h-710v-1858h-99v1954h908v-1954h-99z" />
    <glyph glyph-name="summation" unicode="&#x2211;" horiz-adv-x="1169" 
d="M195 -492v64l632 973l-618 848v69h887v-96h-746l596 -819l-614 -942h835v-97h-972z" />
    <glyph glyph-name="minus" unicode="&#x2212;" 
d="M125 786h659v-81h-659v81z" />
    <glyph glyph-name="radical" unicode="&#x221a;" horiz-adv-x="1124" 
d="M698 -14h-88l-256 802h-209v101h275l237 -756l533 1524h90z" />
    <glyph glyph-name="infinity" unicode="&#x221e;" horiz-adv-x="1454" 
d="M1401 715q0 -126 -80.5 -212.5t-196.5 -86.5q-104 0 -190.5 63t-147.5 187q-60 -117 -140.5 -179.5t-172.5 -62.5q-129 0 -207 80.5t-78 218.5q0 126 79.5 212.5t205.5 86.5q101 0 179.5 -59.5t142.5 -188.5q62 115 146.5 175.5t182.5 60.5q120 0 198.5 -83.5
t78.5 -211.5zM481 504q74 0 138 51t126 168q-57 109 -118.5 163t-143.5 54q-99 0 -157 -61t-58 -160q0 -96 58.5 -155.5t154.5 -59.5zM1104 930q-67 0 -126 -46t-134 -171q58 -111 120 -163t142 -52q97 0 155 60.5t58 158.5q0 94 -58.5 153.5t-156.5 59.5z" />
    <glyph glyph-name="integral" unicode="&#x222b;" horiz-adv-x="762" 
d="M483 -102q0 -209 -49.5 -299.5t-169.5 -90.5q-70 0 -127 25l33 88q47 -20 96 -20q50 0 75 29t36.5 94.5t11.5 175.5v1310q0 188 50 272.5t169 84.5q70 0 127 -25l-33 -88q-47 21 -96 21q-50 0 -75 -29t-36.5 -94t-11.5 -176v-1278z" />
    <glyph glyph-name="approxequal" unicode="&#x2248;" 
d="M602 836q-81 0 -168 55q-38 22 -74 40.5t-79 18.5q-71 0 -170 -121v99q86 106 188 106q49 0 95.5 -19.5t95.5 -48.5q73 -44 131 -44q43 0 82.5 29t84.5 87v-98q-82 -104 -186 -104zM602 405q-81 0 -168 55q-38 22 -74 40.5t-79 18.5q-71 0 -170 -121v99q86 106 188 106
q49 0 95.5 -19.5t95.5 -48.5q73 -44 131 -44q43 0 82.5 29t84.5 87v-98q-82 -104 -186 -104z" />
    <glyph glyph-name="notequal" unicode="&#x2260;" 
d="M532 977l134 285l69 -35l-119 -250h168v-82h-206l-164 -348h370v-82h-409l-133 -287l-66 35l117 252h-170v82h209l162 348h-371v82h409z" />
    <glyph glyph-name="lessequal" unicode="&#x2264;" 
d="M53 82h660v-82h-660v82zM713 287l-660 403v68l660 399v-100l-557 -334l557 -334v-102z" />
    <glyph glyph-name="greaterequal" unicode="&#x2265;" 
d="M758 0h-662v82h662v-82zM96 389l559 334l-559 334v100l662 -399v-68l-662 -403v102z" />
    <glyph glyph-name="lozenge" unicode="&#x25ca;" horiz-adv-x="1194" 
d="M174 735l451 742h47l456 -738l-456 -739h-47zM1028 737l-377 619l-375 -619l375 -620z" />
    <glyph glyph-name="cyrillicbreve" horiz-adv-x="1063" 
d="M670 1241q-99 0 -151 56.5t-52 152.5q0 34 6 72h82q-4 -25 -4 -68q0 -66 28.5 -101.5t96.5 -35.5q71 0 113 50.5t67 154.5h86q-35 -146 -99.5 -213.5t-172.5 -67.5z" />
    <glyph glyph-name="dotlessj" unicode="&#x237;" horiz-adv-x="348" 
d="M299 1085h94l-254 -1191q-34 -160 -65 -238t-73.5 -113t-117.5 -35q-51 0 -88 11v92q37 -12 84 -12t73 26.5t47.5 88.5t47.5 186z" />
    <glyph glyph-name="caroncommaaccent" horiz-adv-x="922" 
d="M492 1245q82 204 114 311h107v-20q-23 -60 -82 -159.5t-99 -147.5h-40v16z" />
    <glyph glyph-name="commaaccent" horiz-adv-x="922" 
d="M274 -422q36 48 84.5 138t71.5 159h105v-22q-10 -43 -81 -148.5t-137 -157.5h-43v31z" />
    <glyph glyph-name="commaaccentrotate" horiz-adv-x="922" 
d="M741 1550q-30 -35 -83.5 -139.5t-75.5 -169.5h-99v21q24 64 92 163t123 144h43v-19z" />
    <glyph glyph-name="zerosuperior" unicode="&#x2070;" horiz-adv-x="553" 
d="M459 1401q-58 0 -110.5 -84t-89 -234.5t-36.5 -281.5q0 -150 86 -150q55 0 109 89.5t90.5 239t36.5 265.5q0 156 -86 156zM633 1253q0 -162 -48.5 -329.5t-123.5 -261t-164 -93.5q-77 0 -119.5 60.5t-42.5 169.5q0 166 50 335t124 259t158 90q78 0 122 -57t44 -173z" />
    <glyph glyph-name="foursuperior" unicode="&#x2074;" horiz-adv-x="553" 
d="M575 795h-90l-45 -209h-78l39 209h-301l9 65l436 608h84l-127 -591h90zM418 877l61 282q25 121 39 170l-20 -33l-80 -122l-211 -297h211z" />
    <glyph glyph-name="fivesuperior" unicode="&#x2075;" horiz-adv-x="553" 
d="M205 1083l119 379h309l-19 -86h-237l-82 -260q36 10 72 10q88 0 139 -61t51 -156q0 -93 -36 -171t-102.5 -123.5t-152.5 -45.5q-88 0 -160 37v92q66 -45 154 -45q98 0 153.5 68.5t55.5 177.5q0 74 -35 112t-98 38q-33 0 -94 -19z" />
    <glyph glyph-name="sixsuperior" unicode="&#x2076;" horiz-adv-x="553" 
d="M123 815q0 156 58.5 325.5t149.5 256t199 86.5q69 0 103 -17l-17 -86q-37 21 -106 21q-89 0 -158 -91t-112 -268h8q71 103 166 103q155 0 155 -203q0 -93 -38 -184t-99.5 -140t-134.5 -49q-82 0 -128 62t-46 184zM307 651q53 0 92 42t60.5 111.5t21.5 137.5
q0 56 -20.5 88.5t-73.5 32.5q-77 0 -128.5 -78.5t-51.5 -181.5q0 -152 100 -152z" />
    <glyph glyph-name="sevensuperior" unicode="&#x2077;" horiz-adv-x="553" 
d="M164 586l391 790h-317l18 86h412l-15 -69l-399 -807h-90z" />
    <glyph glyph-name="eightsuperior" unicode="&#x2078;" horiz-adv-x="553" 
d="M469 1483q84 0 130 -50t46 -135q0 -79 -51 -144t-139 -101q60 -35 87 -85.5t27 -127.5q0 -121 -72.5 -196t-185.5 -75q-100 0 -152.5 51.5t-52.5 141.5q0 193 211 282q-52 47 -71 90.5t-19 100.5q0 108 67.5 178t174.5 70zM373 1010q-77 -33 -126.5 -95t-49.5 -139
q0 -54 29.5 -89.5t90.5 -35.5q76 0 120 53.5t44 139.5q0 57 -27 95.5t-81 70.5zM455 1401q-60 0 -101 -42.5t-41 -109.5q0 -52 20 -89t70 -73q71 30 113.5 83.5t42.5 117.5q0 113 -104 113z" />
    <glyph glyph-name="ninesuperior" unicode="&#x2079;" horiz-adv-x="553" 
d="M627 1262q0 -166 -60 -342t-150 -263.5t-202 -87.5q-52 0 -86 17v86q32 -21 90 -21q95 0 167.5 88t115.5 265h-8q-67 -97 -160 -97q-65 0 -109.5 58t-44.5 153q0 92 35.5 177.5t98.5 136.5t143 51q78 0 124 -54.5t46 -166.5zM438 1401q-72 0 -121 -80.5t-49 -190.5
q0 -69 25 -105t72 -36q79 0 128.5 77t49.5 185q0 79 -25.5 114.5t-79.5 35.5z" />
    <glyph glyph-name="uni2000" unicode="&#x2000;" horiz-adv-x="922" 
 />
    <glyph glyph-name="uni2001" unicode="&#x2001;" horiz-adv-x="1843" 
 />
    <glyph glyph-name="uni2002" unicode="&#x2002;" horiz-adv-x="922" 
 />
    <glyph glyph-name="uni2003" unicode="&#x2003;" horiz-adv-x="1843" 
 />
    <glyph glyph-name="uni2004" unicode="&#x2004;" horiz-adv-x="614" 
 />
    <glyph glyph-name="uni2005" unicode="&#x2005;" horiz-adv-x="461" 
 />
    <glyph glyph-name="uni2006" unicode="&#x2006;" horiz-adv-x="307" 
 />
    <glyph glyph-name="uni2007" unicode="&#x2007;" 
 />
    <glyph glyph-name="uni2008" unicode="&#x2008;" horiz-adv-x="346" 
 />
    <glyph glyph-name="uni2009" unicode="&#x2009;" horiz-adv-x="369" 
 />
    <glyph glyph-name="uni200A" unicode="&#x200a;" horiz-adv-x="184" 
 />
    <glyph glyph-name="uni200B" unicode="&#x200b;" horiz-adv-x="0" 
 />
    <glyph glyph-name="uniFEFF" unicode="&#xfeff;" horiz-adv-x="0" 
 />
    <glyph glyph-name="uniFFFC" unicode="&#xfffc;" horiz-adv-x="2048" 
d="M141 1214v304h303v-111h-192v-193h-111zM1739 1407v111h303v-304h-109v193h-194zM141 -383v303h111v-194h192v-109h-303zM1739 -383v109h194v194h109v-303h-303zM1348 -383v109h272v-109h-272zM565 -383v109h271v-109h-271zM565 1407v111h271v-111h-271zM2042 39h-109
v270h109v-270zM2042 823h-109v271h109v-271zM956 -383v109h273v-109h-273zM252 39h-111v270h111v-270zM956 1407v111h273v-111h-273zM1348 1407v111h272v-111h-272zM252 430h-111v272h111v-272zM252 823h-111v271h111v-271zM2042 430h-109v272h109v-272zM922 629
q0 -145 -67.5 -223t-195.5 -78q-127 0 -194.5 78t-67.5 223q0 146 67.5 223.5t194.5 77.5t195 -77.5t68 -223.5zM524 629q0 -197 135 -197q136 0 136 197q0 196 -136 196q-135 0 -135 -196zM1006 922h172q109 0 165 -33.5t56 -116.5q0 -49 -23.5 -81t-66.5 -40v-8
q58 -13 82 -47t24 -90q0 -81 -54.5 -125.5t-148.5 -44.5h-206v586zM1128 690h66q46 0 64 17t18 49q0 34 -21 48.5t-67 14.5h-60v-129zM1128 592v-154h74q50 0 68 21.5t18 58.5q0 74 -90 74h-70zM1548 330q-52 0 -80 10v102q43 -8 68 -8q86 0 86 86v402h125v-398
q0 -95 -52.5 -144.5t-146.5 -49.5z" />
    <glyph glyph-name="uniFFFD" unicode="&#xfffd;" horiz-adv-x="2048" 
d="M1065 1556l940 -938l-940 -937l-938 937zM1130 367v47q0 50 22 82.5t87 81.5q103 82 139.5 145t36.5 151q0 135 -93.5 212t-258.5 77q-79 0 -172 -28t-164 -70l82 -178q160 80 250 80q63 0 94 -29t31 -76q0 -53 -24.5 -90.5t-96.5 -91.5q-84 -68 -113.5 -124t-29.5 -130
v-59h210zM893 92q0 -63 35.5 -99t105.5 -36q65 0 102.5 35.5t37.5 99.5q0 65 -37 101t-103 36q-72 0 -106.5 -36t-34.5 -101z" />
    <glyph glyph-name="uni01F0" unicode="&#x1f0;" horiz-adv-x="346" 
d="M299 1085h94l-254 -1191q-34 -160 -65 -238t-73.5 -113t-117.5 -35q-51 0 -88 11v92q37 -12 84 -12t73 26.5t47.5 88.5t47.5 186zM263 1569q32 -48 125 -203q135 135 220 203h45l-4 -19q-55 -60 -130 -156t-110 -153h-86q-12 52 -46.5 148t-64.5 161l4 19h47z" />
    <glyph glyph-name="uni02BC" unicode="&#x2bc;" horiz-adv-x="285" 
d="M459 1440q-95 -202 -244 -447h-65q119 255 190 469h111z" />
    <glyph glyph-name="uni03D1" unicode="&#x3d1;" horiz-adv-x="874" 
d="M829 862q-150 -882 -512 -882q-95 0 -144.5 53.5t-49.5 152.5q0 78 18.5 158t41 153.5t41 136t18.5 103.5q0 56 -45 56q-38 0 -84 -23v90q55 25 118 25q54 0 81.5 -30.5t27.5 -86.5t-18.5 -126.5t-41 -145.5t-41 -149t-18.5 -138q0 -66 23.5 -102.5t83.5 -36.5
q128 0 228.5 199t170.5 593q-111 1 -196 48.5t-130 128t-45 178.5q0 96 36 180t102 133t153 49q111 0 163 -91t52 -269q0 -121 -16 -267h125l-19 -90h-123zM741 952q21 160 21 256q0 153 -29.5 217t-105.5 64q-77 0 -124.5 -77.5t-47.5 -194.5q0 -119 76 -192t210 -73z" />
    <glyph glyph-name="uni03D2" unicode="&#x3d2;" horiz-adv-x="616" 
d="M281 0h-101l121 571l-74 891h101l51 -753l72 170q151 368 191 452t73.5 114t85.5 30q35 0 53 -11l-8 -90q-18 6 -37 6q-29 0 -51 -29.5t-51 -90.5q-116 -241 -310 -703z" />
    <glyph glyph-name="uni03D6" unicode="&#x3d6;" horiz-adv-x="852" 
d="M393 156q-29 -84 -69 -130t-103 -46q-60 0 -91.5 58.5t-31.5 164.5q0 171 56 382t151 414h-139l6 35l82 51h743l-18 -86h-129l2 -38v-39q0 -218 -50 -446t-126.5 -362t-159.5 -134q-59 0 -87 40t-28 124v12h-8zM758 924v37l-2 38h-357q-96 -209 -152.5 -424.5
t-56.5 -379.5q0 -125 56 -125q52 0 89 87.5t79 286.5l49 232h92l-49 -232q-41 -186 -41 -282q0 -51 13.5 -71.5t39.5 -20.5q53 0 107.5 124.5t93.5 337t39 392.5z" />
    <glyph glyph-name="uni1E3E" unicode="&#x1e3e;" horiz-adv-x="1255" 
d="M494 0l-52 1331h-6l-44 -240l-230 -1091h-96l309 1462h160l34 -1108l4 -164l-2 -88h2q17 50 107 250l494 1110h169l-309 -1462h-100l238 1122l49 207h-4l-596 -1329h-127zM795 1581v16q154 186 223 312h139v-17q-42 -63 -136 -156t-175 -155h-51z" />
    <glyph glyph-name="uni1E3F" unicode="&#x1e3f;" horiz-adv-x="1171" 
d="M891 0l172 813q10 47 10 84q0 115 -94 115q-82 0 -146 -71.5t-88 -188.5l-157 -752h-94l168 799q12 58 12 98q0 115 -99 115q-101 0 -168 -96t-114 -320l-127 -596h-94l229 1085h80l-25 -151h4q91 172 240 172q73 0 114.5 -36t51.5 -114q51 75 107 112.5t131 37.5
q77 0 119 -50t42 -149q0 -57 -14 -121l-166 -786h-94zM709 1241v16q154 186 223 312h139v-17q-42 -63 -136 -156t-175 -155h-51z" />
    <glyph glyph-name="uni1E00" unicode="&#x1e00;" horiz-adv-x="731" 
d="M555 0v530h-307l-221 -530h-105l606 1468h123v-1468h-96zM555 629v370l6 355q-15 -52 -52 -152t-226 -573h272zM463 -315q0 -88 -51.5 -139.5t-139.5 -51.5q-89 0 -139.5 51t-50.5 136q0 87 52.5 136.5t137.5 49.5t138 -51t53 -131zM391 -319q0 52 -31.5 86t-87.5 34
q-55 0 -86.5 -34t-31.5 -86q0 -119 118 -119q53 0 86 32.5t33 86.5z" />
    <glyph glyph-name="uni1E01" unicode="&#x1e01;" horiz-adv-x="817" 
d="M319 -20q-200 0 -200 282q0 209 62.5 414t162 317.5t217.5 112.5q134 0 174 -150h6l39 129h80l-229 -1085h-76l18 156h-4q-114 -176 -250 -176zM338 63q90 0 168 104t132 304t54 377q0 83 -35.5 125.5t-99.5 42.5q-88 0 -163 -101.5t-126 -297.5t-51 -369
q0 -91 26.5 -138t94.5 -47zM506 -315q0 -88 -51.5 -139.5t-139.5 -51.5q-89 0 -139.5 51t-50.5 136q0 87 52.5 136.5t137.5 49.5t138 -51t53 -131zM434 -319q0 52 -31.5 86t-87.5 34q-55 0 -86.5 -34t-31.5 -86q0 -119 118 -119q53 0 86 32.5t33 86.5z" />
    <glyph glyph-name="uni1F4D" unicode="&#x1f4d;" horiz-adv-x="1118" 
d="M51 1297q0 94 65.5 156t177.5 91l-12 -55q-70 -22 -104.5 -52.5t-34.5 -65.5q0 -15 4.5 -23t25.5 -23q13 -8 23 -19t10 -34q0 -34 -20 -52t-56 -18q-34 0 -56.5 26.5t-22.5 68.5zM251 1229q35 65 75 158t58 149h107v-18q-26 -63 -91 -165.5t-100 -143.5h-49v20zM572 -20
q-277 0 -277 399q0 196 46 414t124.5 376.5t178.5 236t218 77.5q275 0 275 -383q0 -284 -80 -557t-207 -418t-278 -145zM393 377q0 -303 187 -303q92 0 173.5 80.5t144.5 230t102 349.5t39 366q0 289 -187 289q-91 0 -171.5 -73.5t-144.5 -220.5t-103.5 -350t-39.5 -368z
" />
    <glyph glyph-name="uni02F3" unicode="&#x2f3;" horiz-adv-x="614" 
d="M463 -315q0 -88 -51.5 -139.5t-139.5 -51.5q-89 0 -139.5 51t-50.5 136q0 87 52.5 136.5t137.5 49.5t138 -51t53 -131zM391 -319q0 52 -31.5 86t-87.5 34q-55 0 -86.5 -34t-31.5 -86q0 -119 118 -119q53 0 86 32.5t33 86.5z" />
    <glyph glyph-name="dasiaoxia" horiz-adv-x="553" 
d="M240 1223q0 94 65.5 156t177.5 91l-12 -55q-70 -22 -104.5 -52.5t-34.5 -65.5q0 -15 4.5 -23t25.5 -23q13 -8 23 -19t10 -34q0 -34 -20 -52t-56 -18q-34 0 -56.5 26.5t-22.5 68.5zM440 1155q35 65 75 158t58 149h107v-18q-26 -63 -91 -165.5t-100 -143.5h-49v20z" />
    <glyph glyph-name="Ohorn" unicode="&#x1a0;" horiz-adv-x="958" 
d="M412 -20q-277 0 -277 399q0 196 46 414t124.5 376.5t178.5 236t218 77.5q209 0 259 -228q82 29 130 105t68 196h84l8 -26q-48 -265 -278 -352q4 -38 4 -78q0 -284 -80 -557t-207 -418t-278 -145zM233 377q0 -303 187 -303q92 0 173.5 80.5t144.5 230t102 349.5t39 366
q0 289 -187 289q-91 0 -171.5 -73.5t-144.5 -220.5t-103.5 -350t-39.5 -368z" />
    <glyph glyph-name="ohorn" unicode="&#x1a1;" horiz-adv-x="764" 
d="M319 -20q-106 0 -163.5 80.5t-57.5 226.5q0 140 35.5 302t94.5 277.5t137.5 177.5t173.5 62q138 0 194 -137q106 64 144 274h84l8 -26q-44 -226 -213 -324q8 -61 8 -102q0 -193 -64.5 -400t-162.5 -309t-218 -102zM197 268q0 -202 135 -202q89 0 164 101.5t122.5 286.5
t47.5 357q0 205 -140 205q-86 0 -160 -102t-121.5 -288.5t-47.5 -357.5z" />
    <glyph glyph-name="Uhorn" unicode="&#x1af;" horiz-adv-x="948" 
d="M1012 1462l-45 -207q80 28 127.5 102.5t68.5 198.5h84l8 -26q-52 -285 -307 -363l-151 -708q-55 -253 -151.5 -366t-260.5 -113q-125 0 -190.5 78t-65.5 218q0 75 18 164l220 1022h98l-221 -1034q-19 -80 -19 -152q0 -202 172 -202q114 0 186.5 90t114.5 293l215 1005h99
z" />
    <glyph glyph-name="uhorn" unicode="&#x1b0;" horiz-adv-x="838" 
d="M385 1085l-162 -755q-18 -78 -18 -135q0 -123 94 -123q209 0 297 417l127 596h94l-31 -139q153 36 201 297h84l8 -26q-27 -147 -107 -239t-204 -122l-182 -856h-74l8 135h-4q-103 -155 -240 -155q-163 0 -163 198q0 79 20 166l158 741h94z" />
    <glyph glyph-name="uni0300" unicode="&#x300;" horiz-adv-x="0" 
d="M-317 1241q-48 57 -101.5 151t-70.5 160v17h127q26 -156 84 -309v-19h-39z" />
    <glyph glyph-name="uni0301" unicode="&#x301;" horiz-adv-x="0" 
d="M-443 1241v16q154 186 223 312h139v-17q-42 -63 -136 -156t-175 -155h-51z" />
    <glyph glyph-name="uni0303" unicode="&#x303;" horiz-adv-x="0" 
d="M-200 1251q-35 0 -64.5 20.5t-57 45t-53 45t-50.5 20.5q-40 0 -62.5 -35t-39.5 -98h-70q31 120 75.5 175t104.5 55q36 0 65 -20.5t54.5 -45t49.5 -45t48 -20.5q30 0 47.5 22.5t40.5 112.5h70q-29 -134 -65.5 -183t-92.5 -49z" />
    <glyph glyph-name="hook" unicode="&#x309;" horiz-adv-x="0" 
d="M-213 1526q0 -81 -46.5 -132t-131.5 -65l-37 -121h-70l35 178q78 0 121 33t43 97q0 86 -100 86q-36 0 -78 -9v70q55 12 102 12q82 0 122 -39t40 -110z" />
    <glyph glyph-name="dotbelow" unicode="&#x323;" horiz-adv-x="0" 
d="M-627 -256q0 51 23 88t59 37q47 0 47 -57q0 -55 -21 -93t-59 -38q-49 0 -49 63z" />
    <glyph glyph-name="uni0400" unicode="&#x400;" horiz-adv-x="709" 
d="M543 0h-477l309 1462h477l-21 -96h-376l-117 -553h354l-20 -94h-355l-133 -625h377zM638 1579q-48 57 -101.5 151t-70.5 160v17h127q26 -156 84 -309v-19h-39z" />
    <glyph glyph-name="uni040D" unicode="&#x40d;" horiz-adv-x="981" 
d="M375 1462h96l-209 -989q-32 -150 -65 -274h8l745 1263h119l-309 -1462h-96l215 1018q36 169 69 262h-8l-758 -1280h-116zM776 1579q-48 57 -101.5 151t-70.5 160v17h127q26 -156 84 -309v-19h-39z" />
    <glyph glyph-name="uni0450" unicode="&#x450;" horiz-adv-x="723" 
d="M373 -20q-120 0 -187 83.5t-67 233.5q0 214 60.5 401.5t164 297.5t217.5 110q87 0 134.5 -50.5t47.5 -152.5q0 -123 -59.5 -215t-170 -137t-263.5 -45h-12q-21 -99 -21 -199q0 -241 184 -241q47 0 88.5 13t94.5 44v-96q-84 -47 -211 -47zM545 1018q-89 0 -169 -118
t-126 -312q399 0 399 317q0 53 -22.5 83t-81.5 30zM617 1241q-48 57 -101.5 151t-70.5 160v17h127q26 -156 84 -309v-19h-39z" />
    <glyph glyph-name="uni045D" unicode="&#x45d;" horiz-adv-x="795" 
d="M551 1241q-48 57 -101.5 151t-70.5 160v17h127q26 -156 84 -309v-19h-39z" />
    <glyph glyph-name="uni0460" unicode="&#x460;" horiz-adv-x="1262" 
d="M578 66q-47 -44 -98 -65t-118 -21q-110 0 -169.5 100t-59.5 287q0 255 78.5 535.5t193 431.5t240.5 151q104 0 166 -51l-57 -82q-39 39 -111 39q-101 0 -194 -152t-155.5 -411t-62.5 -468q0 -147 40.5 -216.5t103.5 -69.5q142 0 176 164l82 389h98l-76 -351
q-2 -6 -9.5 -46.5t-4.5 -41.5q0 -58 35.5 -86t95.5 -28q101 0 195.5 151t153.5 400.5t59 492.5q0 273 -138 273q-44 0 -74 -13t-53 -26l-28 84q91 49 172 49q106 0 162.5 -94t56.5 -281q0 -286 -69.5 -553.5t-186.5 -422t-252 -154.5t-192 86z" />
    <glyph glyph-name="uni0461" unicode="&#x461;" horiz-adv-x="1044" 
d="M586 512l-303 -512h-95l11 1085h94l-8 -571q-6 -207 -15 -377h6l310 525l8 423h94q-25 -876 -31 -962h9q146 206 243.5 435t161.5 527h94q-69 -330 -187.5 -589t-313.5 -496h-95z" />
    <glyph glyph-name="uni0462" unicode="&#x462;" horiz-adv-x="860" 
d="M193 1237h202l68 319h98l-67 -319h221l-19 -82h-219l-71 -342h79q160 0 244 -80t84 -233q0 -230 -119.5 -365t-326.5 -135h-232l242 1155h-201zM252 90h135q154 0 239 108.5t85 299.5q0 115 -61.5 170t-188.5 55h-74z" />
    <glyph glyph-name="uni0463" unicode="&#x463;" horiz-adv-x="707" 
d="M162 1085h129l51 234h94l-51 -234h152l-19 -81h-151l-88 -412q48 6 122 6q242 -5 242 -272q0 -150 -87.5 -248t-219.5 -98q-221 0 -221 227q0 71 16 141l141 656h-129zM549 319q0 193 -160 193q-48 0 -125 -8l-39 -166q-16 -64 -16 -125q0 -152 131 -152q92 0 150.5 70.5
t58.5 187.5z" />
    <glyph glyph-name="uni0464" unicode="&#x464;" horiz-adv-x="1124" 
d="M66 0l309 1462h98l-137 -649h196q48 196 135.5 351t200 238t236.5 83t196 -62l-61 -86q-60 52 -145 52q-146 0 -270.5 -157.5t-190.5 -418.5h414l-21 -94h-414q-24 -132 -24 -252q0 -208 51 -301.5t164 -93.5q98 0 176 39l16 -91q-84 -40 -215 -40q-138 0 -214.5 114.5
t-76.5 354.5q0 128 25 270h-199l-151 -719h-98z" />
    <glyph glyph-name="uni0465" unicode="&#x465;" horiz-adv-x="930" 
d="M657 -20q-106 0 -167.5 72.5t-61.5 226.5q0 113 23 245h-172l-113 -524h-94l231 1085h94l-100 -475h170q57 236 165.5 366t246.5 130q85 0 143 -33l-39 -86q-53 29 -113 29q-98 0 -177.5 -107t-125.5 -299h258l-18 -86h-258q-23 -115 -23 -243q0 -116 38 -165.5
t110 -49.5q37 0 81.5 12t73.5 28v-86q-28 -16 -77.5 -28t-94.5 -12z" />
    <glyph glyph-name="uni0466" unicode="&#x466;" horiz-adv-x="805" 
d="M375 0h-99l152 719h-84l-321 -719h-99l660 1462h94l49 -1462h-98l-23 719h-80zM387 813h215v420l2 102q-20 -61 -36.5 -101t-180.5 -421z" />
    <glyph glyph-name="uni0467" unicode="&#x467;" horiz-adv-x="700" 
d="M510 524h-61l-113 -524h-92l112 524h-61l-248 -524h-96l522 1085h98l60 -1085h-94zM338 610h166l-3 220q0 118 5 155h-8l-16 -42q-19 -49 -37 -93t-107 -240z" />
    <glyph glyph-name="uni0468" unicode="&#x468;" horiz-adv-x="1155" 
d="M725 0h-98l151 719h-84l-321 -719h-99l324 719h-283l-151 -719h-98l309 1462h98l-137 -649h305l293 649h94l49 -1462h-98l-23 719h-79zM737 813h215v420l2 102q-20 -61 -36.5 -101t-180.5 -421z" />
    <glyph glyph-name="uni0469" unicode="&#x469;" horiz-adv-x="1014" 
d="M823 524h-61l-113 -524h-92l113 524h-62l-248 -524h-96l252 524h-237l-113 -524h-94l231 1085h94l-100 -475h260l229 475h99l59 -1085h-94zM651 610h166l-3 220q0 118 5 155h-8q-8 -23 -33 -87.5t-45.5 -109.5t-81.5 -178z" />
    <glyph glyph-name="uni046A" unicode="&#x46a;" horiz-adv-x="909" 
d="M1042 1462l-18 -86l-373 -545q73 -13 111 -41t55 -79.5t17 -193.5l-7 -517h-94l8 508q0 108 -13.5 153t-44 63.5t-87.5 18.5h-8l-158 -743h-98l157 743h-10q-87 0 -134 -51t-109 -209l-195 -483h-102l200 489q63 158 105.5 220t94.5 91t130 31l-147 545l18 86h702z
M913 1368h-487l135 -520z" />
    <glyph glyph-name="uni046B" unicode="&#x46b;" horiz-adv-x="864" 
d="M915 1085l-10 -71l-305 -383q59 -6 93.5 -33.5t52.5 -74t24.5 -157.5t20.5 -366h-93l-18 354q-7 122 -32.5 156.5t-96.5 34.5h-16l-115 -545h-94l116 545h-18q-42 0 -71 -12t-53 -38t-50 -75.5t-197 -419.5h-96l182 397q47 106 80 145t81 62.5t120 26.5l-148 383l15 71
h628zM782 999h-405l133 -358z" />
    <glyph glyph-name="uni046C" unicode="&#x46c;" horiz-adv-x="1286" 
d="M1415 1462l-18 -86l-377 -561q77 -14 115 -40.5t54.5 -77t16.5 -183.5l-6 -514h-94l8 506q0 102 -13 144t-43 59.5t-93 17.5h-9l-153 -727h-98l153 727h-10q-64 0 -99 -18.5t-64.5 -64.5t-76.5 -161l-194 -483h-103l201 489q43 107 58.5 136.5t32.5 51t40 40.5h-328
l-151 -717h-98l309 1462h98l-137 -647h502l-144 561l19 86h702zM1286 1368h-487l131 -537z" />
    <glyph glyph-name="uni046D" unicode="&#x46d;" horiz-adv-x="1196" 
d="M1245 1085l-10 -71l-309 -404q59 -6 95.5 -34.5t55 -75.5t25.5 -152l18 -348h-92l-16 334q-7 117 -34.5 153.5t-100.5 36.5h-17l-110 -524h-95l113 524h-18q-74 0 -114.5 -32t-92.5 -146l-160 -346h-96l182 397q40 92 80 127h-270l-113 -524h-94l231 1085h94l-100 -475
h448l-143 404l14 71h629zM1112 999h-405l129 -378z" />
    <glyph glyph-name="uni046E" unicode="&#x46e;" horiz-adv-x="731" 
d="M643 463q0 -99 -20 -173t-58.5 -128t-101 -91.5t-189.5 -70.5q-101 -26 -143 -48.5t-64 -54t-22 -75.5q0 -105 117 -105q43 0 81 7.5t83 7.5t82 -8v-101q-47 15 -93 15q-45 0 -87.5 -8.5t-80.5 -8.5q-100 0 -152 55t-52 146q0 72 25.5 117t68 73t96.5 44t111 30
q125 31 182 73.5t87 113t30 176.5q0 131 -56.5 196.5t-162.5 65.5h-105l19 94h100q147 0 246.5 111t99.5 278q0 94 -41.5 144.5t-122.5 50.5q-62 0 -109 -18.5t-116 -72.5l-47 82q97 84 221 99q-31 133 -84 235l4 17h74q44 -72 90 -222q63 120 110 168.5t95 48.5q29 0 47 -6
v-88q-16 8 -39 8q-29 0 -61 -32.5t-91 -139.5q80 -25 124 -94t44 -168q0 -172 -83.5 -290.5t-223.5 -151.5l-2 -6q170 -63 170 -295z" />
    <glyph glyph-name="uni046F" unicode="&#x46f;" horiz-adv-x="580" 
d="M516 344q0 -71 -16.5 -124.5t-46.5 -91.5t-79.5 -67t-176.5 -65q-87 -24 -118.5 -54.5t-31.5 -80.5q0 -94 107 -94q35 0 70 5t61 5q50 0 80 -8v-93q-26 11 -84 11q-29 0 -64 -5.5t-74 -5.5q-88 0 -138 47t-50 132q0 84 47.5 137.5t167.5 87.5q52 15 98 29.5t80 41
t54 71.5t20 122q0 88 -37 138t-100 50h-84l18 86h72q87 0 148 76t61 183q0 139 -125 139q-42 0 -70.5 -10.5t-60.5 -30.5l-27 82q63 35 123 45q-15 76 -74 233v17h70q50 -82 88 -222q57 99 110.5 158.5t110.5 59.5q23 0 39 -9v-86q-13 9 -31 9q-70 -3 -170 -170
q53 -20 82 -71.5t29 -131.5q0 -110 -51 -188.5t-144 -112.5l-2 -8q61 -25 90 -82t29 -154z" />
    <glyph glyph-name="uni0470" unicode="&#x470;" horiz-adv-x="1047" 
d="M489 0h-98l94 451q-146 11 -208 84.5t-62 220.5q0 105 31 248l96 458h98l-96 -456q-31 -151 -31 -242q0 -116 46.5 -167.5t146.5 -51.5l194 917h99l-195 -917q102 0 164 42.5t106.5 139.5t83.5 279l97 456h98l-102 -489q-39 -189 -99.5 -303t-146 -166.5t-221.5 -52.5z
" />
    <glyph glyph-name="uni0471" unicode="&#x471;" horiz-adv-x="879" 
d="M219 272q0 -97 31 -147t96 -57l316 1488h94l-316 -1488q98 0 179 122.5t133.5 360.5t52.5 481v53h94v-67q0 -280 -64 -534t-170 -380.5t-243 -126.5l-100 -469h-95l101 472q-106 15 -156.5 82.5t-50.5 197.5q0 97 33 252l122 573h95l-121 -565q-31 -140 -31 -248z" />
    <glyph glyph-name="uni0472" unicode="&#x472;" horiz-adv-x="958" 
d="M412 -20q-277 0 -277 399q0 196 46 414t124.5 376.5t178.5 236t218 77.5q275 0 275 -383q0 -284 -80 -557t-207 -418t-278 -145zM233 377q0 -303 187 -303q136 0 244.5 171t166.5 453h-567q-31 -188 -31 -321zM879 1100q0 289 -187 289q-136 0 -241.5 -154.5
t-167.5 -441.5h567q29 172 29 307z" />
    <glyph glyph-name="uni0473" unicode="&#x473;" horiz-adv-x="766" 
d="M340 -20q-107 0 -164 80t-57 227q0 142 36 305t94 276.5t136 175.5t174 62q106 0 165.5 -82.5t59.5 -232.5q0 -139 -36.5 -298.5t-95.5 -274t-138 -176.5t-174 -62zM217 268q0 -202 135 -202q98 0 177 121t124 337h-411q-25 -133 -25 -256zM686 811q0 205 -139 205
q-89 0 -164.5 -105.5t-122.5 -300.5h410q16 108 16 201z" />
    <glyph glyph-name="uni0474" unicode="&#x474;" horiz-adv-x="799" 
d="M340 0h-109v1462h99v-909q0 -167 -23 -432q50 153 125 334l303 727q50 120 87.5 182t74.5 87.5t100 25.5q36 0 62 -15v-90q-27 14 -60 14q-49 0 -86 -49t-94 -186z" />
    <glyph glyph-name="uni0475" unicode="&#x475;" horiz-adv-x="659" 
d="M786 1102q38 0 64 -15v-86q-26 15 -62 15q-31 0 -52 -19t-50 -71t-70 -146l-325 -780h-113v1085h94v-659q0 -38 -4.5 -141.5t-11.5 -161.5h6q21 61 50.5 138t62.5 157.5t132 318.5t150.5 303t128.5 62z" />
    <glyph glyph-name="uni0476" unicode="&#x476;" horiz-adv-x="799" 
d="M340 0h-109v1462h99v-909q0 -167 -23 -432q50 153 125 334l303 727q50 120 87.5 182t74.5 87.5t100 25.5q36 0 62 -15v-90q-27 14 -60 14q-49 0 -86 -49t-94 -186zM747 1579q-41 48 -85.5 141.5t-65.5 169.5l2 17h114q39 -206 88 -307l-6 -21h-47zM508 1579
q-38 46 -84 138t-68 173l2 17h115q15 -88 39.5 -173t48.5 -134l-6 -21h-47z" />
    <glyph glyph-name="uni0477" unicode="&#x477;" horiz-adv-x="659" 
d="M786 1102q38 0 64 -15v-86q-26 15 -62 15q-31 0 -52 -19t-50 -71t-70 -146l-325 -780h-113v1085h94v-659q0 -38 -4.5 -141.5t-11.5 -161.5h6q21 61 50.5 138t62.5 157.5t132 318.5t150.5 303t128.5 62zM629 1241q-41 48 -85.5 141.5t-65.5 169.5l2 17h114
q39 -206 88 -307l-6 -21h-47zM390 1241q-38 46 -84 138t-68 173l2 17h115q15 -88 39.5 -173t48.5 -134l-6 -21h-47z" />
    </font>
</defs>
</svg>
